<svg id="Man" xmlns="http://www.w3.org/2000/svg" xmlns:xlink="http://www.w3.org/1999/xlink" width="736" height="593.33" viewBox="0 0 736 593.33"><defs><style>.cls-1,.cls-31,.cls-32{fill:none;}.cls-1,.cls-17,.cls-18,.cls-22,.cls-27,.cls-28,.cls-31,.cls-32,.cls-43{stroke:#000;stroke-miterlimit:10;}.cls-1{stroke-width:0.9254px;}.cls-2{fill:url(#linear-gradient);}.cls-28,.cls-3{fill:#0072bd;}.cls-4{fill:#d55041;}.cls-5{fill:#ededed;}.cls-6{fill:#df716a;}.cls-7{fill:#938b9a;}.cls-8{fill:url(#New_Gradient_Swatch_1);}.cls-9{fill:#fbc064;}.cls-10{fill:#51ddfc;}.cls-11{fill:#e5e4e3;}.cls-12{fill:#e59898;}.cls-13{fill:#dda38e;}.cls-14{fill:blue;}.cls-15{fill:#ff0074;}.cls-16{fill:#f1f1f1;}.cls-17{fill:#0b6fb7;}.cls-17,.cls-22,.cls-27,.cls-28{stroke-width:0.25px;}.cls-18{fill:#fffcf3;}.cls-18,.cls-31{stroke-width:0.5px;}.cls-19{fill:#d4977a;}.cls-20,.cls-22{fill:#fbb38f;}.cls-21{fill:#221d1a;}.cls-23{fill:#d09879;}.cls-24{fill:#011e2e;}.cls-25{fill:#7c7c7c;}.cls-26{fill:#0071bd;}.cls-27{fill:#0073c3;}.cls-29{fill:#0089cc;}.cls-30{fill:#0080cb;}.cls-32{stroke-width:0.2652px;}.cls-33{fill:#d7382a;}.cls-34{fill:#fefefc;}.cls-35{fill:url(#linear-gradient-2);}.cls-36{clip-path:url(#clip-path);}.cls-37{opacity:0.42;}.cls-38{fill:#fefefe;}.cls-39{fill:#77b155;}.cls-40{fill:#c5e4b2;}.cls-41{fill:#5c913b;}.cls-42{fill:#2b3135;}.cls-43{fill:#fff;}.cls-44{fill:url(#linear-gradient-3);}.cls-45{fill:url(#linear-gradient-4);}.cls-46{fill:url(#linear-gradient-5);}.cls-47{fill:url(#linear-gradient-6);}.cls-48{fill:url(#linear-gradient-7);}.cls-49{fill:url(#linear-gradient-8);}.cls-50{fill:url(#linear-gradient-9);}.cls-51{fill:url(#linear-gradient-10);}.cls-52{fill:url(#linear-gradient-11);}.cls-53{fill:url(#linear-gradient-12);}.cls-54{fill:url(#linear-gradient-13);}.cls-55{fill:url(#linear-gradient-14);}.cls-56{fill:url(#linear-gradient-15);}.cls-57{fill:url(#linear-gradient-16);}.cls-58{fill:url(#linear-gradient-17);}</style><linearGradient id="linear-gradient" x1="93.401" y1="184.5056" x2="736" y2="184.5056" gradientUnits="userSpaceOnUse"><stop offset="0" stop-color="red"/><stop offset="0.1611" stop-color="#ff0303"/><stop offset="0.2858" stop-color="#ff0d0d"/><stop offset="0.3985" stop-color="#ff1d1d"/><stop offset="0.5039" stop-color="#ff3535"/><stop offset="0.6044" stop-color="#ff5353"/><stop offset="0.7011" stop-color="#ff7878"/><stop offset="0.7949" stop-color="#ffa4a4"/><stop offset="0.884" stop-color="#ffd5d5"/><stop offset="0.9502" stop-color="#fff"/></linearGradient><linearGradient id="New_Gradient_Swatch_1" x1="-71.544" y1="134.4626" x2="86.9232" y2="134.4626" gradientTransform="matrix(-0.9292, -0.3696, 0.3696, -0.9292, 272.228, 628.242)" gradientUnits="userSpaceOnUse"><stop offset="0" stop-color="#f95516"/><stop offset="1" stop-color="#feb21e"/></linearGradient><linearGradient id="linear-gradient-2" x1="91.0176" y1="223.1198" x2="736" y2="223.1198" gradientUnits="userSpaceOnUse"><stop offset="0" stop-color="blue"/><stop offset="0.1611" stop-color="#0303ff"/><stop offset="0.2858" stop-color="#0d0dff"/><stop offset="0.3985" stop-color="#1d1dff"/><stop offset="0.5039" stop-color="#3535ff"/><stop offset="0.6044" stop-color="#5353ff"/><stop offset="0.7011" stop-color="#7878ff"/><stop offset="0.7949" stop-color="#a4a4ff"/><stop offset="0.884" stop-color="#d5d5ff"/><stop offset="0.9502" stop-color="#fff"/></linearGradient><clipPath id="clip-path"><path class="cls-1" d="M408.9653,440.2022V542.0236s90.22,17.153,133.3027,8.0165C579.6643,542.11,700.5786,523.02,710,542.0236V440.2022s-92.0914-21.5438-169.4976,1.9846S408.9653,440.2022,408.9653,440.2022Z"/></clipPath><linearGradient id="linear-gradient-3" x1="408.5" y1="491.6253" x2="412.2014" y2="491.6253" gradientUnits="userSpaceOnUse"><stop offset="0" stop-color="#ff4000"/><stop offset="1" stop-color="#3f81ff"/></linearGradient><linearGradient id="linear-gradient-4" x1="414.7393" y1="490.314" x2="703.9997" y2="490.314" xlink:href="#linear-gradient-3"/><linearGradient id="linear-gradient-5" x1="414.7393" y1="494.6195" x2="703.9997" y2="494.6195" xlink:href="#linear-gradient-3"/><linearGradient id="linear-gradient-6" x1="414.7393" y1="495.7331" x2="703.9997" y2="495.7331" xlink:href="#linear-gradient-3"/><linearGradient id="linear-gradient-7" x1="414.7394" y1="495.5675" x2="703.9994" y2="495.5675" xlink:href="#linear-gradient-3"/><linearGradient id="linear-gradient-8" x1="414.7393" y1="494.5101" x2="704" y2="494.5101" xlink:href="#linear-gradient-3"/><linearGradient id="linear-gradient-9" x1="414.7395" y1="492.6084" x2="703.9995" y2="492.6084" xlink:href="#linear-gradient-3"/><linearGradient id="linear-gradient-10" x1="414.7395" y1="490.3122" x2="703.9996" y2="490.3122" xlink:href="#linear-gradient-3"/><linearGradient id="linear-gradient-11" x1="414.7397" y1="488.3129" x2="703.9995" y2="488.3129" xlink:href="#linear-gradient-3"/><linearGradient id="linear-gradient-12" x1="414.7396" y1="486.3867" x2="703.9997" y2="486.3867" xlink:href="#linear-gradient-3"/><linearGradient id="linear-gradient-13" x1="414.7392" y1="484.3577" x2="703.9999" y2="484.3577" xlink:href="#linear-gradient-3"/><linearGradient id="linear-gradient-14" x1="414.7397" y1="481.6942" x2="703.9998" y2="481.6942" xlink:href="#linear-gradient-3"/><linearGradient id="linear-gradient-15" x1="414.7397" y1="482.885" x2="703.9998" y2="482.885" xlink:href="#linear-gradient-3"/><linearGradient id="linear-gradient-16" x1="414.7392" y1="484.4298" x2="703.9999" y2="484.4298" xlink:href="#linear-gradient-3"/><linearGradient id="linear-gradient-17" x1="414.7375" y1="486.9698" x2="704" y2="486.9698" xlink:href="#linear-gradient-3"/></defs><polyline class="cls-2" points="93.401 310.033 736 55.502 736 149.87 96.217 313.509 93.401 310.033"/><path d="M99.266,560.2377S97,560,91,572l6,6,1-2.643S103,589,124,592c0,0,6-5-5-11,0,0-6.3322-9.0453-5.6661-11.0226C113.3339,569.9774,108.5321,561.4754,99.266,560.2377Z"/><g id="Rocket_copy" data-name="Rocket copy"><path class="cls-3" d="M146.9856,439.15a6.3027,6.3027,0,0,0-2.7124-4.8318q-2.8613-2.1772-5.7745-4.2811c.0022-.0545.0019-.1085.0042-.163.2434-5.711-6.8681-6.8017-9.7838-3.3009a5.7555,5.7555,0,0,0-2.93,3.45,20.748,20.748,0,0,0,4.9595,19.9c2.8991,3.1139,7.3517,1.4333,8.8456-1.7763a5.6326,5.6326,0,0,0,1.7777.3636,5.6646,5.6646,0,0,0,2.0842.3792C149.0444,448.889,150.2239,442.0361,146.9856,439.15Z"/><path class="cls-4" d="M223.699,456.797a209.6526,209.6526,0,0,0-47.3027-13.2042l-1.8088,6.561a144.1062,144.1062,0,0,1,53.1417,18.67c2.0762,1.2321,4.1843-.0528,4.9976-2.0331l.6962-1.6954c.6982-1.7-.7568-3.74-2.3761-4.1849-1.9517-.5363-3.4841.6694-4.1849,2.3761l-.6962,1.6954,4.9975-2.0331a149.4464,149.4464,0,0,0-42.0486-16.9705q-6.303-1.4767-12.7184-2.3855c-1.8165-.26-3.6547.4466-4.1849,2.3761-.4436,1.6144.55,3.9,2.3761,4.1849A209.6548,209.6548,0,0,1,221.89,463.358c1.7.6982,3.74-.7568,4.1848-2.3761.5363-1.9517-.6694-3.4841-2.3761-4.1849Z"/><path class="cls-4" d="M220.4749,535.7632l10.5164-7.2917a3.52,3.52,0,0,0,1.5634-3.842,3.4681,3.4681,0,0,0-3.28-2.4976,70.9589,70.9589,0,0,0-19.6457,2.8058,3.431,3.431,0,0,0-2.3761,4.1848,16.5359,16.5359,0,0,0,5.8573,7.7592l.8127-6.218a77.5,77.5,0,0,1-9.5858,3.0178l4.1848,4.1849c-.1416.3576.16-.3015.1954-.3665a9.13,9.13,0,0,1,.4778-.793c.2554-.3753.0822-.1319.2621-.3364q.3063-.348.6436-.6669a6.1627,6.1627,0,0,1,2.3044-1.3531l-2.6214-6.218a61.703,61.703,0,0,1-20.7036,7.1058l1.8088,6.561,2.2223-.8724-3.8419-1.5634.1049.2477-.4644-1.7171-.0077.2373.4644-1.7171c-.5684,1.2271.9512-1.1793,1.0477-.6886q.4546-.0036-.3624.03l-.4991.03-2.4951.1493-5.24.3136-10.23.6121a3.4763,3.4763,0,0,0-3.402,3.402c-.06,2.7555,2.014,4.4889,4.5935,4.7492,1.8308.1848,3.4021-1.6958,3.4021-3.402a3.4776,3.4776,0,0,0-3.4021-3.402l-.338-.0341,1.7171.4645.8315,1.6244-3.4021,3.4021,13.7232-.8212c2.1758-.13,4.67.0445,6.7754-.557a5.2279,5.2279,0,0,0,3.0522-2.2157,4.3143,4.3143,0,0,0,.0058-4.1414,3.3882,3.3882,0,0,0-3.842-1.5634l-2.2223.8723a3.4029,3.4029,0,1,0,1.8088,6.561,66.9517,66.9517,0,0,0,22.3289-7.7917c3.3082-1.8553,1.0965-7.436-2.6215-6.218a13.7128,13.7128,0,0,0-8.6354,8.268c-1.0065,2.5418,1.9013,4.7442,4.1848,4.1849a77.495,77.495,0,0,0,9.5858-3.0179,3.458,3.458,0,0,0,.8127-6.218,9.4644,9.4644,0,0,1-2.7305-3.6928l-2.3761,4.1848a63.9917,63.9917,0,0,1,17.837-2.5627l-1.717-6.3395-10.5164,7.2917a3.4907,3.4907,0,0,0-1.22,4.6546,3.4322,3.4322,0,0,0,4.6546,1.2205Z"/><path class="cls-5" d="M61.007,530.9316c37.8841,16.718,95.4995,25.7874,172.547-7.308l1.42-58.9511s-86.35-43.459-172.8916-7.9134C78.7566,499.6679,61.0519,530.8524,61.007,530.9316Z"/><path class="cls-6" d="M61.007,530.9316c.0449-.0792,17.75-31.2637,1.0757-74.1725A186.8946,186.8946,0,0,0,6.7475,492.1568S24.9317,515.0118,61.007,530.9316Z"/><path class="cls-4" d="M169.2942,542.9828s3.2214,21.3953,94.1285,6.1813l-29.8687-25.54S202.1112,542.256,169.2942,542.9828Z"/><path class="cls-4" d="M170.7955,445.5734s7.9679-18.0316,92.4382-4.7834l-28.2594,23.8825S196.2989,445.301,170.7955,445.5734Z"/><polygon class="cls-7" points="233.638 520.147 241.04 520.75 241.765 468.937 234.881 468.563 233.638 520.147"/><path class="cls-8" d="M240.5451,516.8514S316.8982,531.5621,404,490.5437c0,0-68.1023-35.8372-162.9282-19.1471Z"/><path class="cls-4" d="M163.6832,493.7564s-.0147,22.3373,103.6256,1.45C267.3088,495.2059,169.9136,474.1866,163.6832,493.7564Z"/><circle class="cls-9" cx="75.5439" cy="492.3746" r="22.6801"/><circle class="cls-10" cx="75.5439" cy="492.3746" r="18.1441"/><circle class="cls-11" cx="81.6015" cy="472.7755" r="1.134"/><circle class="cls-11" cx="93.5639" cy="482.7967" r="1.134"/><circle class="cls-11" cx="94.936" cy="498.3398" r="1.134"/><circle class="cls-11" cx="84.9154" cy="510.3022" r="1.134"/><circle class="cls-11" cx="69.3712" cy="511.6745" r="1.134"/><circle class="cls-11" cx="57.4088" cy="501.6537" r="1.134"/><circle class="cls-11" cx="56.0373" cy="486.1097" r="1.134"/><circle class="cls-11" cx="66.0565" cy="474.1475" r="1.134"/></g><g id="Hand_copy" data-name="Hand copy"><path class="cls-12" d="M163.6458,470.7192l.01-.0684c.02-.1538.0547-.3042.0889-.4546.0547-.2257.1163-.4513.1539-.6837a3.1332,3.1332,0,0,0-.0718-1.1691c-.1129-.4991-.2256-.9982-.3453-1.4939-.0239-.1128-.0478-.2222-.0786-.3316-.0616-.2769-.1265-.5538-.1949-.8273a5.5107,5.5107,0,0,0-.6426-1.6408,3.4,3.4,0,0,0-.3145-.4239,7.8606,7.8606,0,0,0-.8683-.817c-.0855-.0718-.1709-.14-.2564-.2154-.0957-.0786-.1914-.1572-.2872-.2427.0035-.0239.0035-.0478.0069-.0718.01-.1264.02-.2563.0273-.3828a4.1618,4.1618,0,0,0-.0376-.8512,2.5961,2.5961,0,0,0-.4273-1.0905,1.631,1.631,0,0,0-.2393-.27,2.1254,2.1254,0,0,0-.629-.3829c-.0512-.0205-.1059-.041-.1606-.0581-.1163-.0376-.2359-.0684-.3555-.0957-.5162-.1094-1.07-.13-1.5657-.2017a16.3757,16.3757,0,0,1-1.8631-.3863c-.4546-.1231-.9058-.26-1.3536-.4068-.0308.0478-.0616.0991-.0924.147-.0581-.0171-.12-.0376-.1777-.0581l-.3282-.1129c-.7623-.2632-1.5178-.5537-2.2733-.8409-.123-.0478-.2461-.0923-.3725-.14-.12-.0479-.2393-.0923-.359-.1368-.0581-.02-.12-.0444-.1777-.0683a3.745,3.745,0,0,0-1.3811-.3145,1.2919,1.2919,0,0,0-1.0255.5127c.0512.1231-.0069.2906-.2051.25a.088.088,0,0,1-.0582-.0616,3.7052,3.7052,0,0,0-.1846.4068q-.1383.2718-.2871.5333c-.0137.02-.0239.0445-.0376.065-.0684.12-.14.2358-.2154.3521-.12.1914-.25.3828-.3828.5674-.4137.5709-1.217,1.2683-1.0119,2.0511a.0843.0843,0,0,1,.12.0513c.0616.1982.1265.3965.1983.5914.0855.2461.1812.4854.2872.7213a11.6718,11.6718,0,0,0,2.3519,3.5,1.5118,1.5118,0,0,0-.0787.1436c-.0068.0034-.0068.0068-.0068.01.0513.0547.106.1094.1607.164.0957.0958.1948.1847.2939.2735a.678.678,0,0,0,.0753.065,15.1271,15.1271,0,0,0,1.7878,1.3263c.1265.0855.253.1675.3794.25.0821.0513.1607.106.2393.1641.0411.0273.0821.0581.12.0854a5.7523,5.7523,0,0,1,.564.4752,1.8512,1.8512,0,0,1,.1436.14,7.201,7.201,0,0,1,1.1691,1.511q.1179.2.2256.41a10.6943,10.6943,0,0,1,.5983,1.3947c.0239.0718.0512.1436.0752.2188.1333.4034.25.8136.3521,1.2272.1162.4615.2085.9264.3042,1.3913.0239.1265.0513.2564.0786.3863a2.3649,2.3649,0,0,0,.1128.4034,1.077,1.077,0,0,0,.0513.1094.796.796,0,0,0,.5025.4376c.9777.2734,1.7434-.7008,1.99-1.5178a4.8052,4.8052,0,0,0,.1367-.5914c.0373-.2064.0625-.4146.0821-.6222.0273.2582.0558.5161.0831.7734a.8686.8686,0,0,0,.0746.26c-.0308-.0546-.06-.11-.086-.1651-.0478-.0991-.1948-.0137-.147.0855.2017.4239.5265.923,1.07.82.5914-.1128.923-.7828,1.1691-1.2614.1607-.3145.3111-.6358.4854-.94.1607-.2837.3521-.5435.5367-.81a3.7884,3.7884,0,0,0,.6427-1.2238,2.8092,2.8092,0,0,0,.1709.2906,1.9882,1.9882,0,0,0,.2632.3111,1.1533,1.1533,0,0,0,1.2033.3692.5974.5974,0,0,0,.3658-.6256,2.8259,2.8259,0,0,0-.1162-.5025,1.5639,1.5639,0,0,1-.0581-.3316,1.4349,1.4349,0,0,1,0-.2974A.3532.3532,0,0,1,163.6458,470.7192Zm-5.972.7828a.1.1,0,0,0,.0068.0308l-.01.0171c-.123-.2906-.2632-.5778-.4033-.8615-.12-.229-.2359-.4581-.3521-.6871-.0855-.1709-.1709-.3452-.26-.52-.1436-.2906-.2872-.5811-.4342-.8717-.0854-.1743-.1743-.3487-.26-.523-.0718-.1436-.1572-.2906-.2359-.441a2.2241,2.2241,0,0,1-.2119-.5162c-.0923-.3863.2325-.5743.482-.79a2.0585,2.0585,0,0,0,.55-.776,2.092,2.092,0,0,0,.1538-.5778,1.4709,1.4709,0,0,0,.735.5026.8227.8227,0,0,0,.2461.5743.8437.8437,0,0,0,.3658.2017.0833.0833,0,0,0-.01.0649c.1333.53.2632,1.0631.3966,1.593a.6787.6787,0,0,0,.1982.3931,2.6515,2.6515,0,0,0-.4956.95A5.4356,5.4356,0,0,0,157.6738,471.502Zm-.0661-5.9838c.0178.0158.0381.0287.0556.0448a.6488.6488,0,0,0,.0639.2645.649.649,0,0,1-.1218-.3078Zm1.2135,2.6938-.0194.0049a.3163.3163,0,0,1-.164-.1846,2.4528,2.4528,0,0,1-.0827-.3031A2.0539,2.0539,0,0,0,158.8212,468.212Zm-.7654,1.8423-.013.0031c.0081-.0276.0171-.055.0255-.0825Zm-.289,1.7389c-.0067-.0181-.0127-.0362-.0212-.0553.0068-.0034.01-.01.0136-.0137l.002-.0029C157.7613,471.7455,157.7645,471.77,157.7668,471.7932Zm4.4314.0761.0217.0378c-.0141-.0176-.0258-.0375-.0392-.0557Zm1.2726-1.0146a.18.18,0,0,0-.0154-.0524c.0075-.0141.0118-.0295.0186-.0439C163.4712,470.79,163.4724,470.8228,163.4708,470.8547Zm.2313-2.13c-.0025-.0841-.0117-.1691-.02-.2539q.0346.1656.0558.3321A.8408.8408,0,0,0,163.7021,468.725Zm-14.8753-7.0544a3.54,3.54,0,0,0,.212.3247,2.6343,2.6343,0,0,0,1.6032,1.1247c.0445.0137.0923.0239.14.0342-.041.0512-.0821.0991-.12.147-.0444-.01-.0889-.0206-.1333-.0342a2.7626,2.7626,0,0,1-.4273-.15,2.819,2.819,0,0,1-1.0187-.7863,4.0247,4.0247,0,0,1-.4034-.5743A.085.085,0,0,1,148.8268,461.6706Zm9.0138,10.3488a.1517.1517,0,0,0,.0323.0322c0,.0243.0012.0485.0008.0728C157.864,472.0892,157.8513,472.0544,157.8406,472.0194Zm1.4091,3.4719a.8833.8833,0,0,1-.1414.0811l.0183-.0132a.177.177,0,0,0,.0641-.0334c.03-.0248.059-.05.0885-.075l.005-.003q.0346-.0328.0722-.0625l.0086-.0115c.05-.0477.0992-.0964.1534-.1406a.1487.1487,0,0,0,.0522-.0974c.0238-.0322.0475-.0647.07-.0977l.0108-.0109c.0167-.0238.0308-.0491.047-.0731l.0406-.0589.0049-.0118c.025-.0383.05-.0766.0741-.1153.0286-.0365.0573-.073.0854-.11A2.2572,2.2572,0,0,1,159.25,475.4913Zm4.3073-5.25a1.119,1.119,0,0,0-.02-.1347,2.3234,2.3234,0,0,0,.1025-.3167c.0187-.0414.0354-.0834.0528-.1251C163.6523,469.8585,163.6013,470.05,163.557,470.2418Z"/><path class="cls-13" d="M156.72,464.6685a.0548.0548,0,0,0-.0513.0035.0862.0862,0,0,0-.0991.123c.0069.01.0137.0239.02.0342-.0034.01-.0034.0171-.0068.0274l-.0034.0136a.0785.0785,0,0,0-.0445.0684c0,.0068-.0034.0171-.0034.0239.0171-.0239.0342-.0444.0513-.0683l.0239-.0342v-.0034a.06.06,0,0,0,.0137-.0171c.0307-.0376.0547-.0718.082-.1094.0069-.0069.01-.0137.0171-.02v-.0034c.0068-.01.0137-.0172.02-.0274A.03.03,0,0,0,156.72,464.6685Zm.0616-1.4562a.873.873,0,0,0-.2154-.1573,1.9874,1.9874,0,0,0-.2906-.1162.9626.9626,0,0,1-.482-.2974.5738.5738,0,0,0,.01-.3316.0876.0876,0,0,0-.1573-.02.3959.3959,0,0,0-.0307.3487.8555.8555,0,0,1-.7042.3452.8146.8146,0,0,1-.0923.0035c-.3009.0171-.5983.0171-.8991.0478q-.2256.0206-.4512.0513c-.5128.0615-1.0256.1367-1.5452.1538a4.7383,4.7383,0,0,1-1.1417-.0854c-.0479-.01-.0957-.0205-.14-.0342a2.6343,2.6343,0,0,1-1.6032-1.1247,3.54,3.54,0,0,1-.212-.3247.085.085,0,0,0-.147.0854,4.0247,4.0247,0,0,0,.4034.5743,2.819,2.819,0,0,0,1.0187.7863,2.7626,2.7626,0,0,0,.4273.15c.0444.0136.0889.0239.1333.0342a5.029,5.029,0,0,0,1.4836.0991c.3077-.0205.6154-.0547.92-.0923a14.7084,14.7084,0,0,1,1.552-.1436.4153.4153,0,0,0,.0649-.0034,1.45,1.45,0,0,0,.8478-.1846.7182.7182,0,0,0,.1778-.1743.8.8,0,0,0,.1059.1094,2.5316,2.5316,0,0,0,.5983.2632.6515.6515,0,0,1,.25.1607C156.7371,463.414,156.8567,463.2943,156.7816,463.2123Zm2.43-2.8818a.5562.5562,0,0,0-.065-.0615,1.58,1.58,0,0,0-.6187-.3213,3.3728,3.3728,0,0,0-.4889-.1128h-.0034a3.7573,3.7573,0,0,1-1.1657-.3009c-.0957-.0512-.1846.0957-.0854.1505a3.39,3.39,0,0,0,1.08.2837,4.9007,4.9007,0,0,1,.5059.0991h.0034a1.6545,1.6545,0,0,1,.2222.0684,1.4338,1.4338,0,0,1,.53.3555,2.9215,2.9215,0,0,1,.3966.5333,1.3558,1.3558,0,0,0,.1333-.1163A2.8276,2.8276,0,0,0,159.2121,460.3305Zm.9571-.646a2.1254,2.1254,0,0,0-.629-.3829c-.0512-.0205-.1059-.041-.1606-.0581-.1163-.0376-.2359-.0684-.3555-.0957-.5162-.1094-1.07-.13-1.5657-.2017a16.3757,16.3757,0,0,1-1.8631-.3863c-.4546-.1231-.9058-.26-1.3536-.4068-.2325-.0752-.465-.1539-.6906-.2393-.7008-.2427-1.3947-.5094-2.0886-.7692l-.3487-.1333c-.1607-.0615-.3179-.123-.4786-.1812l-.0274-.01a3.4832,3.4832,0,0,0-1.7673-.3384,1.3833,1.3833,0,0,0-.9093.5469.2245.2245,0,0,0-.1436.0205c-.1025.0445-.123.1675-.1675.26-.0615.1368-.13.2735-.1983.4068-.12.2325-.2427.4615-.3794.6837-.02.0376-.0444.0718-.0649.106q-.0564.0922-.1231.1846c-.2872.441-.6187.8443-.9264,1.2682a1.6413,1.6413,0,0,0-.4171,1.405.0828.0828,0,0,0,.12.0513c.0684.229.1436.4512.2256.6734s.1709.4444.2632.66a11.9615,11.9615,0,0,0,2.1092,3.2441c.0991.1128.2051.2222.3145.3316.0513.0547.106.1094.1607.164.0957.0958.1948.1847.2939.2735a.678.678,0,0,0,.0753.065,15.1271,15.1271,0,0,0,1.7878,1.3263c.1265.0855.253.1675.3794.25.0821.0513.1607.106.2393.1641.0411.0273.0821.0581.12.0854a5.7523,5.7523,0,0,1,.564.4752.5042.5042,0,0,0,.0445-.0308c.0376-.0239.0752-.0478.1094-.0718a3.9591,3.9591,0,0,0-.3111-.2769c-.0342-.0273-.065-.0547-.0992-.082-.041-.0342-.0854-.065-.13-.0991-.0615-.0479-.1264-.0923-.1914-.1368-.1948-.1367-.3965-.2632-.5982-.3931-.1538-.0957-.3111-.1914-.4649-.294a11.024,11.024,0,0,1-1.1555-.8751l-.0923-.082c-.2221-.1949-.4375-.4034-.646-.6154a11.6718,11.6718,0,0,1-2.3519-3.5c-.106-.2359-.2017-.4752-.2872-.7213-.0718-.1949-.1367-.3932-.1983-.5914a.0843.0843,0,0,0-.12-.0513c-.2051-.7828.5982-1.48,1.0119-2.0511.1333-.1846.2632-.376.3828-.5674.0752-.1163.147-.2325.2154-.3521.0137-.0205.0239-.0445.0376-.065q.1486-.2615.2871-.5333a3.7052,3.7052,0,0,1,.1846-.4068.088.088,0,0,0,.0582.0616c.1982.041.2563-.1265.2051-.25a1.2919,1.2919,0,0,1,1.0255-.5127,3.745,3.745,0,0,1,1.3811.3145c.0581.0239.12.0478.1777.0683.12.0445.2393.0889.359.1368.1264.0478.2495.0923.3725.14.7555.2872,1.511.5777,2.2733.8409l.3282.1129c.0581.0205.12.041.1777.0581.4513.15.9094.2905,1.3674.41.3829.106.7692.1948,1.1589.2735.4786.0923.9571.1606,1.4392.2119.229.0239.4614.0513.69.0923.14.0239.28.0547.417.0923.0616.0171.1231.0376.1812.0581a.99.99,0,0,1,.106.0445,1.7016,1.7016,0,0,1,.8.646c.0342-.0581.0684-.1162.0991-.1743A1.631,1.631,0,0,0,160.1692,459.6845Z"/><path d="M158.0224,473.17a1.9386,1.9386,0,0,1,0,.2017.4916.4916,0,0,1,0,.0718c0,.0376-.0034.0718-.0034.1094v.0137a8.3528,8.3528,0,0,1-.1162,1.08,4.8052,4.8052,0,0,1-.1367.5914c-.2462.817-1.0119,1.7912-1.99,1.5178a.796.796,0,0,1-.5025-.4376,1.077,1.077,0,0,1-.0513-.1094,2.3649,2.3649,0,0,1-.1128-.4034c-.0273-.13-.0547-.26-.0786-.3863-.0957-.4649-.188-.93-.3042-1.3913-.1026-.4136-.2188-.8238-.3521-1.2272-.024-.0752-.0513-.147-.0752-.2188a10.6943,10.6943,0,0,0-.5983-1.3947q-.1077-.21-.2256-.41a7.201,7.201,0,0,0-1.1691-1.511,1.8512,1.8512,0,0,0-.1436-.14,5.7523,5.7523,0,0,0-.564-.4752c-.0376-.0273-.0786-.0581-.12-.0854-.0786-.0581-.1572-.1128-.2393-.1641-.1264-.0821-.2529-.1641-.3794-.25a15.1271,15.1271,0,0,1-1.7878-1.3263.678.678,0,0,1-.0753-.065c-.0991-.0888-.1982-.1777-.2939-.2735-.0547-.0546-.1094-.1093-.1607-.164-.1094-.1094-.2154-.2188-.3145-.3316a11.9615,11.9615,0,0,1-2.1092-3.2441c-.0923-.2154-.1812-.4376-.2632-.66s-.1572-.4444-.2256-.6734l-.0034-.0137a.0748.0748,0,0,1,.0444-.0957.0843.0843,0,0,1,.12.0513c.0616.1982.1265.3965.1983.5914.0855.2461.1812.4854.2872.7213a11.6718,11.6718,0,0,0,2.3519,3.5c.2085.212.4239.4205.646.6154l.0923.082a11.024,11.024,0,0,0,1.1555.8751c.1538.1026.3111.1983.4649.294.2017.13.4034.2564.5982.3931.065.0445.13.0889.1914.1368.0445.0341.0889.0649.13.0991.0342.0273.065.0547.0992.082a3.9591,3.9591,0,0,1,.3111.2769,7.503,7.503,0,0,1,1.4254,1.8768.8294.8294,0,0,1,.0479.0957,10.6183,10.6183,0,0,1,.6563,1.4836c.1094.3145.212.6358.3009.9572.0513.1811.0991.3657.1435.5469.1163.4547.212.9127.3043,1.3708.0171.1025.0376.2051.0581.3077a2.87,2.87,0,0,0,.1128.4649c.0171.0444.0342.0854.0547.1264a.6491.6491,0,0,0,.1026.1505.776.776,0,0,0,.7281.2051c.8888-.147,1.2648-.9777,1.4391-1.8016a7.5107,7.5107,0,0,0,.1231-.81c.0137-.1436.0274-.2872.0342-.4342.0034-.0683.0034-.14.0034-.2119a3.88,3.88,0,0,0-.1265-1.1384,5.17,5.17,0,0,0-.3247-.8546c-.0239-.0478-.0479-.0991-.0718-.147-.0684-.147-.1436-.2905-.2154-.4341-.041-.082-.0786-.1607-.12-.2393-.15-.2974-.3008-.5982-.4478-.8956-.1265-.253-.25-.5025-.376-.7555-.0274-.0513-.0547-.106-.0821-.1573-.1675-.3315-.3487-.66-.5059-.9981-.0513-.1026-.0992-.2051-.14-.3111-.0137-.0274-.0273-.0581-.0376-.0855a.2689.2689,0,0,1-.0171-.0478c-.1572-.4342.0547-.7145.39-.9914a2.1511,2.1511,0,0,0,.4991-.5743,1.8521,1.8521,0,0,0,.2564-.7589c0-.0068.0034-.0171.0034-.0239a.0785.0785,0,0,1,.0445-.0684.0389.0389,0,0,1,.0273-.01h.0034l.01-.0034a.0734.0734,0,0,1,.0854.082.0312.0312,0,0,1-.0034.0171v.01a.0433.0433,0,0,1-.0034.0205,2.092,2.092,0,0,1-.1538.5778,2.0585,2.0585,0,0,1-.55.776c-.2495.2153-.5743.4033-.482.79a2.2241,2.2241,0,0,0,.2119.5162c.0787.15.1641.2974.2359.441.0855.1743.1744.3487.26.523.147.2906.2906.5811.4342.8717.0889.1744.1743.3487.26.52.1162.229.2324.4581.3521.6871.14.2837.28.5709.4033.8615.0274.0615.0513.1264.0753.188a.9419.9419,0,0,1,.0341.0889A4.1216,4.1216,0,0,1,158.0224,473.17Z"/><path d="M160.8734,461.8962c-.0068.1265-.0171.2564-.0273.3828-.0034.024-.0034.0479-.0069.0718a.1779.1779,0,0,1-.0478.1026.08.08,0,0,1-.0581.0239.0879.0879,0,0,1-.0616-.0239.047.047,0,0,0-.0136-.01.066.066,0,0,1-.024-.0512.1135.1135,0,0,1,.024-.0718l.01-.01c.0069-.0068.01-.01.0171-.01a.53.53,0,0,0,.0069-.0821c0-.0684-.0035-.147,0-.1709l.01-.15c.0068-.15.01-.3043.0034-.4547a2.9224,2.9224,0,0,0-.1709-.8717,1.9172,1.9172,0,0,0-.2256-.441,1.7016,1.7016,0,0,0-.8-.646.99.99,0,0,0-.106-.0445c-.0581-.0205-.12-.041-.1812-.0581-.1367-.0376-.2769-.0684-.417-.0923-.2291-.041-.4615-.0684-.69-.0923-.4821-.0513-.9606-.12-1.4392-.2119-.39-.0787-.776-.1675-1.1589-.2735-.458-.12-.9161-.26-1.3674-.41-.0581-.0171-.12-.0376-.1777-.0581l-.3282-.1129c-.7623-.2632-1.5178-.5537-2.2733-.8409-.123-.0478-.2461-.0923-.3725-.14-.12-.0479-.2393-.0923-.359-.1368-.0581-.02-.12-.0444-.1777-.0683a3.745,3.745,0,0,0-1.3811-.3145,1.2919,1.2919,0,0,0-1.0255.5127c.0512.1231-.0069.2906-.2051.25a.088.088,0,0,1-.0582-.0616,3.7052,3.7052,0,0,0-.1846.4068q-.1383.2718-.2871.5333c-.0137.02-.0239.0445-.0376.065-.0684.12-.14.2358-.2154.3521-.12.1914-.25.3828-.3828.5674-.4137.5709-1.217,1.2683-1.0119,2.0511l.0034.0137a.0748.0748,0,0,1-.0444.0957.0828.0828,0,0,1-.12-.0513,1.6413,1.6413,0,0,1,.4171-1.405c.3077-.4239.6392-.8272.9264-1.2682q.0666-.0924.1231-.1846c.02-.0342.0444-.0684.0649-.106.1367-.2222.26-.4512.3794-.6837.0684-.1333.1368-.27.1983-.4068.0445-.0923.065-.2153.1675-.26a.2245.2245,0,0,1,.1436-.0205,1.3833,1.3833,0,0,1,.9093-.5469,3.4832,3.4832,0,0,1,1.7673.3384l.0274.01c.1607.0582.3179.12.4786.1812l.3487.1333c.6939.26,1.3878.5265,2.0886.7692.2256.0854.4581.1641.6906.2393.4478.147.899.2837,1.3536.4068a16.3757,16.3757,0,0,0,1.8631.3863c.4957.0718,1.0495.0923,1.5657.2017.12.0273.2392.0581.3555.0957.0547.0171.1094.0376.1606.0581a2.1254,2.1254,0,0,1,.629.3829,1.631,1.631,0,0,1,.2393.27,2.5961,2.5961,0,0,1,.4273,1.0905A4.1618,4.1618,0,0,1,160.8734,461.8962Z"/><path d="M163.6424,470.7773a1.4349,1.4349,0,0,0,0,.2974,1.5639,1.5639,0,0,0,.0581.3316,2.8259,2.8259,0,0,1,.1162.5025.5974.5974,0,0,1-.3658.6256,1.1533,1.1533,0,0,1-1.2033-.3692,1.9882,1.9882,0,0,1-.2632-.3111,2.8092,2.8092,0,0,1-.1709-.2906c-.0342-.0683-.0615-.1367-.0889-.2051a.4866.4866,0,0,1-.0273-.0752v-.0068a4.5632,4.5632,0,0,1-.2085-1.6785,2.1939,2.1939,0,0,1,.2529-1.2853l.01-.0137a.1675.1675,0,0,1-.0513-.0342.4427.4427,0,0,1-.0786-.082l-.0069-.01a.2162.2162,0,0,1-.0273-.0478.0308.0308,0,0,1-.01-.0239,2.3136,2.3136,0,0,1-.147-.3863c-.0786-.2085-.1538-.4171-.229-.6256a3.8018,3.8018,0,0,1-.3282-1.3332.2231.2231,0,0,1-.2564-.0547,4.221,4.221,0,0,1-.6119-.6461q-.0564-.0666-.1025-.1333c-.0308-.0342-.0547-.0718-.082-.106a5.8294,5.8294,0,0,1-.7658-1.422c-.0171-.0445-.0342-.0889-.0478-.1334a5.6054,5.6054,0,0,1-.1983-.711c-.02-.1094.1436-.1538.1675-.0478a6.01,6.01,0,0,0,.1914.6973.7867.7867,0,0,0,.0342.0957,5.4829,5.4829,0,0,0,.5333,1.0939c.0957.15.1948.2974.3042.4376.02.0273.0411.0547.0616.0786q.1179.1488.2461.2872a1.6845,1.6845,0,0,0,.3658.3657c.082.0376.1538-.0239.2119-.1162a1.0151,1.0151,0,0,1,.1573-.3008c.0649-.0855.2051-.01.15.0889-.041.0718-.0855.1743-.14.2734a1.8711,1.8711,0,0,0,.13,1.135c.0923.2666.1914.5332.2872.7965.0512.1435.1025.2871.1572.4307a.8761.8761,0,0,0,.0752.1606v.0035a.3886.3886,0,0,0,.14.1538.6214.6214,0,0,1,.1709-.0889.0849.0849,0,0,1,.0957.1231.2762.2762,0,0,1-.2017.1265.7339.7339,0,0,0-.0991.1094,1.41,1.41,0,0,0-.1744.69,8.9886,8.9886,0,0,0,.0069,1.2511,3.39,3.39,0,0,0,.1436.7247c.0136.0479.0273.0923.0444.14v.0068a.2493.2493,0,0,0,.0137.0308,2.0913,2.0913,0,0,0,.4922.7794,1.3059,1.3059,0,0,0,.4615.2837c.2837.1026.7213.0889.8034-.2769a2.1926,2.1926,0,0,0-.1505-.8717.9936.9936,0,0,1-.0239-.1675,2.3425,2.3425,0,0,1,.01-.3111c.0034-.0512.01-.0991.0171-.15.01-.0718.0239-.1436.0376-.2188a4.9769,4.9769,0,0,0,.2256-1.4324,8.7938,8.7938,0,0,0-.2427-1.1862c-.0616-.26-.1231-.523-.1812-.7828-.0274-.1128-.0547-.2222-.0786-.335-.0069-.0239-.01-.0478-.0171-.0718a8.5947,8.5947,0,0,0-.6871-2.2151,2.0466,2.0466,0,0,0-.188-.294,5.752,5.752,0,0,0-1.0666-1.0905l-.39-.3282c-.0581-.0478-.1162-.0991-.1709-.15a1.192,1.192,0,0,1-.0992-.0854,5.017,5.017,0,0,1-.7452-.8c-.13-.1811-.2427-.376-.3657-.5674a2.9215,2.9215,0,0,0-.3966-.5333,1.4338,1.4338,0,0,0-.53-.3555,1.6545,1.6545,0,0,0-.2222-.0684h-.0034a4.9007,4.9007,0,0,0-.5059-.0991,3.39,3.39,0,0,1-1.08-.2837c-.0992-.0548-.01-.2017.0854-.1505a3.7573,3.7573,0,0,0,1.1657.3009h.0034a3.3728,3.3728,0,0,1,.4889.1128,1.58,1.58,0,0,1,.6187.3213.5562.5562,0,0,1,.065.0615,2.8276,2.8276,0,0,1,.4444.5777c.0581.0923.1128.1812.1675.2735a4.7111,4.7111,0,0,0,.8135.988c.0172.017.0377.0341.0548.0478.0478.0479.0991.0923.1469.1333.0958.0855.1915.1641.2872.2427.0855.0753.1709.1436.2564.2154a7.8606,7.8606,0,0,1,.8683.817,3.4,3.4,0,0,1,.3145.4239,5.5107,5.5107,0,0,1,.6426,1.6408c.0684.2735.1333.55.1949.8273.0308.1094.0547.2188.0786.3316.12.4957.2324.9948.3453,1.4939a3.1332,3.1332,0,0,1,.0718,1.1691c-.0376.2324-.0992.458-.1539.6837-.0342.15-.0684.3008-.0889.4546l-.01.0684A.3532.3532,0,0,0,163.6424,470.7773Z"/><path d="M160.4188,468.1485c-.3658-.12-.4376.359-.4581.6051-.0171.2632-.0342.5264-.0513.7862-.0171.2632-.0376.5265-.0547.79-.0068.13-.0239.2632-.0239.3965a.5182.5182,0,0,0,.0889.3214.7148.7148,0,0,1,.2119-.0137.0874.0874,0,0,1,.0445.1607.2672.2672,0,0,1-.28.0341c-.4273.1368-.5742.7521-.7657,1.111a3.4542,3.4542,0,0,1-.8888,1.0871.3889.3889,0,0,0-.0444.0342.0822.0822,0,0,1-.0718.0171h-.0034a.0819.0819,0,0,1-.0684-.106.0947.0947,0,0,1,.0239-.0308,3.5738,3.5738,0,0,0,1.0563-1.405,1.571,1.571,0,0,1,.6222-.8306.4483.4483,0,0,1-.0889-.1915,2.7888,2.7888,0,0,1,.0171-.5845c.0171-.2359.0308-.4718.0479-.7042l.0512-.7487a2.0339,2.0339,0,0,1,.0718-.5367.5362.5362,0,0,1,.441-.3726,10.2593,10.2593,0,0,1-.6905-1.7912c-.1026-.3726-.2735-1.005.1846-1.2136.0991-.0444.188.1026.0854.147-.4478.2051-.12.9948-.017,1.3195a9.9429,9.9429,0,0,0,.6563,1.593C160.5453,468.087,160.4906,468.1724,160.4188,468.1485Z"/><path d="M161.8784,471.1978a.1943.1943,0,0,1-.01.0615v.0068a1.4275,1.4275,0,0,1-.0547.2974,3.7884,3.7884,0,0,1-.6427,1.2238c-.1846.2667-.376.5265-.5367.81-.1743.3043-.3247.6256-.4854.94-.2461.4786-.5777,1.1486-1.1691,1.2614-.5435.1026-.8683-.3965-1.07-.82-.0478-.0992.0992-.1846.147-.0855.2291.4786.629.9982,1.1931.5982a3.6526,3.6526,0,0,0,.9537-1.446,10.6645,10.6645,0,0,1,.8615-1.3981,3.0473,3.0473,0,0,0,.6324-1.364v-.0068a.55.55,0,0,0,.01-.0786.09.09,0,0,1,.1163-.0787A.07.07,0,0,1,161.8784,471.1978Z"/><path d="M159.1369,468.4425a1.378,1.378,0,0,1-.3351-.0376,1.09,1.09,0,0,0-.3555.54c-.1094.27-.2153.54-.311.8136a4.8572,4.8572,0,0,0-.294,1.5554c0,.0479,0,.0957.0034.1436v.0444c.0068.1026-.13.1094-.1641.0308a.1.1,0,0,1-.0068-.0308,5.4356,5.4356,0,0,1,.4615-2.2357,2.6515,2.6515,0,0,1,.4956-.95.6787.6787,0,0,1-.1982-.3931c-.1334-.53-.2633-1.0631-.3966-1.593a.0833.0833,0,0,1,.01-.0649.8437.8437,0,0,1-.3658-.2017.8227.8227,0,0,1-.2461-.5743,1.4709,1.4709,0,0,1-.735-.5026.1023.1023,0,0,1-.0171-.0239l-.0034-.0034c-.02-.0239-.0376-.0513-.0581-.0786v-.0034l-.01-.0171h-.0034v-.0034a.2021.2021,0,0,1-.0171-.0274c-.0068-.01-.0136-.0239-.02-.0342a.0862.0862,0,0,1,.0991-.123.0733.0733,0,0,1,.0513.0342v.0034l.0171.0273a.34.34,0,0,0,.0376.0581.1209.1209,0,0,0,.0171.0274,1.2712,1.2712,0,0,0,.6564.4888.8932.8932,0,0,1,.0991-.2871c.0376-.0684.1675-.0445.1572.0444-.01.1231-.0239.2461-.0342.3726a.0925.0925,0,0,1-.0649.0786.6684.6684,0,0,0,.8136.5743l.2051-.082.0137-.0068a.0494.0494,0,0,0,.02-.0069c.0923-.0376.1435.106.0649.1573a.9.9,0,0,1-.2734.1094c-.0753.0307-.1505.0615-.2291.0922.0923.3692.1846.7419.2769,1.111a5.4406,5.4406,0,0,0,.14.5641.3163.3163,0,0,0,.164.1846.4029.4029,0,0,1,.38.0649A.0873.0873,0,0,1,159.1369,468.4425Z"/><path d="M156.6619,463.3354a.6515.6515,0,0,0-.25-.1607,2.5316,2.5316,0,0,1-.5983-.2632.8.8,0,0,1-.1059-.1094.7182.7182,0,0,1-.1778.1743,1.45,1.45,0,0,1-.8478.1846.4153.4153,0,0,1-.0649.0034,14.7084,14.7084,0,0,0-1.552.1436c-.3042.0376-.6119.0718-.92.0923a5.029,5.029,0,0,1-1.4836-.0991c-.0444-.01-.0889-.0206-.1333-.0342a2.7626,2.7626,0,0,1-.4273-.15,2.819,2.819,0,0,1-1.0187-.7863,4.0247,4.0247,0,0,1-.4034-.5743.085.085,0,0,1,.147-.0854,3.54,3.54,0,0,0,.212.3247,2.6343,2.6343,0,0,0,1.6032,1.1247c.0445.0137.0923.0239.14.0342a4.7383,4.7383,0,0,0,1.1417.0854c.52-.0171,1.0324-.0923,1.5452-.1538q.2256-.0308.4512-.0513c.3008-.0307.5982-.0307.8991-.0478a.8146.8146,0,0,0,.0923-.0035.8555.8555,0,0,0,.7042-.3452.3959.3959,0,0,1,.0307-.3487.0876.0876,0,0,1,.1573.02.5738.5738,0,0,1-.01.3316.9626.9626,0,0,0,.482.2974,1.9874,1.9874,0,0,1,.2906.1162.873.873,0,0,1,.2154.1573C156.8567,463.2943,156.7371,463.414,156.6619,463.3354Z"/><path d="M155.11,467.6187a.0748.0748,0,0,1-.0444.0717l-1.005.5128c-.0992.0479-.1846-.0991-.0855-.15.3179-.1607.6392-.3213.9572-.4854.0171-.0069.0307-.0171.0478-.0239A.09.09,0,0,1,155.11,467.6187Z"/><path d="M157.2123,471.6661c-.4.1914-.8.3863-1.2.5777-.0957.0479-.1846-.0991-.0855-.147.3282-.1572.6564-.3179.9846-.4751l.2153-.1026a.0772.0772,0,0,1,.0855.0068A.0782.0782,0,0,1,157.2123,471.6661Z"/><path d="M157.414,471.3482l-.0137.01c-.0615.0581-.1265.1128-.188.1675-.0513.0479-.106.0923-.1573.1368a.0866.0866,0,0,1-.123,0,.0488.0488,0,0,1-.02-.041.0833.0833,0,0,1,.02-.0787c.123-.1059.2427-.2119.3623-.3145a.0477.0477,0,0,1,.0342-.0171.0747.0747,0,0,1,.0855.0171A.0826.0826,0,0,1,157.414,471.3482Z"/><path d="M155.4415,467.42l-.0068.01a.5541.5541,0,0,1-.3248.1881.49.49,0,0,1-.0991.01.084.084,0,0,1-.0786-.0615.05.05,0,0,1-.0069-.0239.0869.0869,0,0,1,.0855-.0855c.0171,0,.0342-.0034.0513-.0034h.0034l.0068-.0034c.0069,0,.0137-.0035.024-.0035.0136-.0034.0307-.01.0444-.0136.0034-.0035.0137-.0035.02-.0069l.01-.0068a.288.288,0,0,0,.0444-.0239l.02-.01.0069-.0068.0068-.0034.0034-.0035.0273-.0273a.3.3,0,0,0,.0308-.0342.07.07,0,0,1,.0752-.0239.091.091,0,0,1,.0479.0239A.0875.0875,0,0,1,155.4415,467.42Z"/><path d="M157.4752,476.2878a3.9865,3.9865,0,0,0,.131-.8618,1.7187,1.7187,0,0,0-.01-.31c-.01-.0738-.0283-.1462-.044-.2191a3.1464,3.1464,0,0,1-.0716-.5551.3473.3473,0,0,1,.0184-.1505.2311.2311,0,0,1,.2775-.11.3838.3838,0,0,1,.2237.2246,1.2406,1.2406,0,0,1,.0708.3184,2.5009,2.5009,0,0,0,.4694,1.29l-.0275.36a24.1583,24.1583,0,0,1,1.4273,4.7733,11.267,11.267,0,0,1,.2352,2.2271c-.0089.7361-.1286,1.4706-.086,2.2055a11.3974,11.3974,0,0,0,.7864,3.0253,29.888,29.888,0,0,1,1.7284,8.3385,1.3184,1.3184,0,0,1-.1232.7671c-.2709.4347-.8974.42-1.4053.3537l-1.6616-.2178a2.4943,2.4943,0,0,1-1.2779-.4141,2.29,2.29,0,0,1-.595-.9046,14.1525,14.1525,0,0,1-1.1178-4.4772,3.2632,3.2632,0,0,1,.5256-2.4276l-.0622-.0652,1.6471-1.21a1.5756,1.5756,0,0,0,.4744-.4657,1.2,1.2,0,0,0-.6053-1.4857c-.508-.3045-1.1177-.3912-1.65-.6508a4.5292,4.5292,0,0,1-2.03-2.6236,7.4924,7.4924,0,0,1-.2042-5.227,1.27,1.27,0,0,1,.3784-.5863,1.43,1.43,0,0,1,.53-.2093l1.9917-.4909Z"/><path class="cls-14" d="M159.3129,489.1837a3.6437,3.6437,0,0,0-1.6124,1.3316,3.2645,3.2645,0,0,0-.2233,1.8321c.0854.9381.2548,1.8663.4239,2.793a2.71,2.71,0,0,0,.52,1.3653,2.44,2.44,0,0,0,1.0467.6,1.9093,1.9093,0,0,0,1.1173.1349c.7386-.2027,1.0035-1.1114,1.0334-1.8767a16.1653,16.1653,0,0,0-.9223-5.1342,1.622,1.622,0,0,0-.5354-.944"/><path class="cls-15" d="M157.9017,477.227c.3382.0547.496.4419.5842.7729a22.1123,22.1123,0,0,1,.7319,6.367c-.0142.4535-.0939.99-.5,1.192a.9571.9571,0,0,1-.5412.0689,2.8845,2.8845,0,0,1-2.0208-1.7359,14.0747,14.0747,0,0,1-1.098-3.8191,2.6068,2.6068,0,0,1,.346-2.3959C155.9842,477.1238,157.9017,477.227,157.9017,477.227Z"/><path d="M158.6514,471.5225a.0874.0874,0,0,1-.1162.0308.6829.6829,0,0,0-.3213-.0479,1.3521,1.3521,0,0,1-.3521-.0273l-.0137-.0034h-.0034a.0924.0924,0,0,1-.0445-.0342.09.09,0,0,1,.0411-.1265.0732.0732,0,0,1,.0547-.0034,1.3768,1.3768,0,0,0,.3555.0239.8106.8106,0,0,1,.3692.0718A.0815.0815,0,0,1,158.6514,471.5225Z"/><path d="M157.8652,471.567c-.0342.0512-.0718.1025-.106.1572-.0034.0034-.0068.01-.0136.0137a.09.09,0,0,1-.0376.0239.0944.0944,0,0,1-.0684-.0068.1117.1117,0,0,1-.0376-.0513.0957.0957,0,0,1,.0068-.0684c.02-.0273.041-.0581.0615-.0854l.01-.0171c.0137-.0171.0239-.0342.0376-.0513a.0874.0874,0,0,1,.0513-.041.0475.0475,0,0,1,.0307,0,.1.1,0,0,1,.0342.01l.01.0069v.0034c.0068,0,.0137.01.0171.0171a.037.037,0,0,1,.01.0239A.0864.0864,0,0,1,157.8652,471.567Z"/><path d="M158.2412,473.4266v.0137a.0477.0477,0,0,1-.01.0307.0567.0567,0,0,1-.0137.024.2353.2353,0,0,1-.0239.0376l-.0137.0136a.2093.2093,0,0,1-.0342.024.1213.1213,0,0,1-.0581.0136h-.02c-.0069,0-.0137-.0034-.02-.0034a.2011.2011,0,0,1-.0274-.0136l-.0068-.0035a.1171.1171,0,0,1-.041-.041l-.0069-.0171a.026.026,0,0,1-.0068-.0171.0668.0668,0,0,1-.0034-.0273.0953.0953,0,0,1,.0034-.0308.1418.1418,0,0,1,.0239-.0376.0575.0575,0,0,0,.0171-.0137.064.064,0,0,1,.0239-.0068.0478.0478,0,0,1,.0308,0h.01l.0239.01a.0757.0757,0,0,1,.0444-.0341.0934.0934,0,0,1,.0684.0068.079.079,0,0,1,.0239.0239.068.068,0,0,1,.0137.0274A.0435.0435,0,0,1,158.2412,473.4266Z"/><path d="M156.7918,464.8155v.065a.0684.0684,0,0,1-.0137.0444c-.0034.0034-.0068.01-.0136.0171a.0672.0672,0,0,1-.0377.02.0433.0433,0,0,1-.02.0034h-.0034c-.0068,0-.01,0-.0137-.0034h-.0068l-.0034-.0034h-.0068a.0718.0718,0,0,1-.0445-.0444.0566.0566,0,0,1-.0068-.0342v-.065a.0818.0818,0,0,1,.01-.041.07.07,0,0,0,.0137-.02.081.081,0,0,1,.0376-.0205c.0068,0,.0137-.0034.02-.0034h.0034a.1.1,0,0,1,.0308.0068.0544.0544,0,0,1,.0274.0171l.0171.0171v.0034l.0034.01A.0817.0817,0,0,1,156.7918,464.8155Z"/><path d="M156.7816,464.7711v.0034a.0476.0476,0,0,0-.0069.0205c-.01.0376-.02.0718-.0273.106a.0744.0744,0,0,1-.0376.0513l-.0069.0034-.0137.0068h-.0068a.07.07,0,0,1-.0376,0,.1024.1024,0,0,1-.0513-.041.0457.0457,0,0,1-.01-.0273.0588.0588,0,0,1-.0034-.024l.0034-.0136c.0034-.01.0034-.0171.0068-.0274.0069-.0342.0171-.0684.024-.1025a.0985.0985,0,0,1,.041-.0513l.0136-.0034a.0548.0548,0,0,1,.0513-.0035.03.03,0,0,1,.02.01.06.06,0,0,1,.0308.0274A.1089.1089,0,0,1,156.7816,464.7711Z"/></g><polygon class="cls-16" points="118 439.366 140 433 107.5 351.092 77.5 348.258 118 439.366"/><path class="cls-17" d="M106,472s14,21,28,32c0,0-28,34-36,56,0,0,11,1.3461,16,11.1731,0,0-2-5.9475,36-51.56L156,513s4-9,1-13l-16.61-36.0215L124.4114,442.55l-16.4557,2.3629Z"/><polygon class="cls-18" points="140.39 463.979 143.658 466 150 454.859 148.081 452.791 140.39 463.979"/><polygon class="cls-19" points="96.291 337.57 98 341 96.291 348.947 78 343.258 76.712 340.5 79.5 339.5 96.291 337.57"/><polygon class="cls-20" points="79.5 339.5 87.5 340.5 102.5 335.5 100.5 323.5 103.5 322.5 91.5 307.686 82 306 73.5 311.5 75.5 335.5 79.5 339.5"/><path class="cls-21" d="M76.7124,340.5l2.7876-1-1.3938-8.0049v-3.2894L88.5,326.4826l-1-4.9826-1-4v-4l-3-2s-1.1043-2.6281-.0522-3.814,8.0522,0,8.0522,0l-1-7.186-13.7876-1.7425S43.9247,304.5,76.7124,340.5Z"/><path class="cls-22" d="M84.5,331.5a4.0716,4.0716,0,0,0,2-3c.0883-2.3032-5-6-5-6H77.6522a2.8954,2.8954,0,0,0,0,3.9826C79.5,328.5,83,332,84.5,331.5Z"/><path class="cls-23" d="M83.67,330.1562a65.1092,65.1092,0,0,1-5.19-4.5964,1.5378,1.5378,0,0,1-.2123-1.9825h2.49l4.38,5.1109Z"/><polygon class="cls-24" points="120.514 432.844 136 429 140 433 120 438.643 116 434.482 120.514 432.844"/><polygon class="cls-25" points="122 432 128.058 430.587 130 437 124.411 437.935 122 432"/><path class="cls-26" d="M76.82,346.0917,70,357l-7.86,20.9907L73.5,399.4783l8.575,78.68L109,469s5-3,5-7-5.3425-49.8748-5.3425-49.8748L93,375,79,354Z"/><path class="cls-27" d="M70,357l-13,9-6,13s-2,8,6,19,29,32,29,32l53,36,11-16-36-22.1671L88.07,391.282,73.5,370.6805"/><path class="cls-28" d="M137.4552,436.2233,160,444s1.5186,1.1007,4.2593-1.45l.8861-6.3271L143,427l-18-58-9-21-3.5766-1.9083-12.0345,1.9366L101.8241,357,122,397l9,25Z"/><polygon class="cls-29" points="101.329 348.947 107 350.168 105.166 355.957 112 356 124.411 403.698 122 397 101.824 357 101.329 348.947"/><polygon class="cls-30" points="88.5 448.877 101.824 440.748 95.162 436.223 84.955 442.55 88.5 448.877"/><polygon class="cls-29" points="75.035 348.947 71 359 76.82 360.048 73.5 363.149 108.658 412.125 93 375 75.035 348.947"/><path class="cls-31" d="M124.2016,431.3675s-22.55-72.3118-25.126-72.59"/><circle class="cls-32" cx="104.25" cy="376.25" r="0.75"/><circle class="cls-32" cx="108.25" cy="387.25" r="0.75"/><circle class="cls-32" cx="111.25" cy="397.25" r="0.75"/><circle class="cls-32" cx="115.25" cy="410.25" r="0.75"/><circle class="cls-32" cx="119.25" cy="422.25" r="0.75"/><path class="cls-33" d="M99,348.4837l.0756,10.2942s5.2338,34.9658,61.1524,22.5917l-4.1371,9.4279s-45.9674,17.1991-59.5563-32.0569l-8.3593-3.5192Z"/><polygon class="cls-34" points="75.035 348.947 93.389 362.263 96 351 107 359 97.514 343.258 96.291 348.947 78 343.258 75.035 348.947"/><polygon class="cls-35" points="91.018 313.509 736 128.604 736 204.807 93.401 317.635 91.018 313.509"/><g id="Flag"><g class="cls-36"><g class="cls-37"><path class="cls-38" d="M691.112,467.5241q0,19.7825.0127,39.5649c.0006.5038-.0568.659-.6243.6586q-39.6042-.0285-79.2083-.0036c-.5,0-.5949-.1263-.5946-.605q.0192-39.604-.0061-79.2082c0-.5855.1828-.6141.6682-.6139q39.5651.0189,79.13-.0042c.5454,0,.6375.12.6367.6465Q691.0988,447.7416,691.112,467.5241Zm-1.8149,13.1872a19.8389,19.8389,0,0,0-.0009-9.5214,30.5907,30.5907,0,0,0-8.0225-14.4614c-.4594-.4847-.4775-.7064.0378-1.19a12.517,12.517,0,0,0,3.9269-12.2338,12.9421,12.9421,0,0,0-25.0966-.84c-.1609.5646-.2866.6814-.8691.4837a24.9144,24.9144,0,0,0-16.65.04c-.5422.1894-.6274.0206-.7625-.4516a12.9005,12.9005,0,0,0-15.2708-9.1595,12.9427,12.9427,0,0,0-5.869,22.2185c.4518.4248.4762.6294.0442,1.0715a31.2628,31.2628,0,0,0-5.5017,7.5755c-2.6707,5.2-3.9883,10.6244-2.5831,16.4695a11.4419,11.4419,0,0,0,1.116,3.7038c2.3661,5.3928,6.4906,9.1075,11.5425,11.8876,6.7735,3.7276,14.1455,5.3246,21.7754,5.7392a64.7242,64.7242,0,0,0,14.3291-.71,45.8141,45.8141,0,0,0,17.084-6.1357,24.0859,24.0859,0,0,0,9.7507-10.9954A10.1565,10.1565,0,0,0,689.2971,480.7113Z"/><path class="cls-39" d="M612.68,480.7122c-1.4052-5.8451-.0876-11.2695,2.5831-16.4695a31.2628,31.2628,0,0,1,5.5017-7.5755c.432-.4421.4076-.6467-.0442-1.0715a12.9427,12.9427,0,0,1,5.869-22.2185,12.9005,12.9005,0,0,1,15.2708,9.1595c.1351.4722.22.641.7625.4516a24.9144,24.9144,0,0,1,16.65-.04c.5825.1977.7082.0809.8691-.4837a12.9421,12.9421,0,0,1,25.0966.84,12.517,12.517,0,0,1-3.9269,12.2338c-.5153.4832-.4972.7049-.0378,1.19a30.5907,30.5907,0,0,1,8.0225,14.4614,19.8435,19.8435,0,0,1,.0012,9.5216c-.2574.1343-.3056.4118-.4239.6369a4.88,4.88,0,0,1-3.9612,2.5652,17.1155,17.1155,0,0,1-5.73-.4188c-4.5708-.9065-9.0345-2.2618-13.5806-3.2768a72.4654,72.4654,0,0,0-12.1084-1.76,53.8475,53.8475,0,0,0-7.8865.2408,97.7572,97.7572,0,0,0-13.6358,2.57c-4.1426,1.0022-8.2156,2.3081-12.4982,2.69-2.8977.258-5.692-.5309-6.6194-3.0973C612.831,480.7987,612.7392,480.7613,612.68,480.7122Zm23.1638-36.1868a7.4919,7.4919,0,0,0-8.1921-7.1187,7.551,7.551,0,1,0,8.1921,7.1187Zm45.382.4387a7.5667,7.5667,0,1,0-7.6131,7.5393A7.5885,7.5885,0,0,0,681.2255,444.9641ZM642.3062,474.036a2.1289,2.1289,0,0,0,2.22-2.1293,2.1678,2.1678,0,0,0-2.1772-2.1058,2.25,2.25,0,0,0-2.1734,2.1145A2.1245,2.1245,0,0,0,642.3062,474.036Zm17.35,0a2.118,2.118,0,1,0-.0237-4.2351,2.1668,2.1668,0,0,0-2.1792,2.097A2.1267,2.1267,0,0,0,659.6557,474.036Z"/><path class="cls-40" d="M612.68,480.7122c.0595.0491.1513.0865.1738.149.9274,2.5664,3.7217,3.3553,6.6194,3.0973,4.2826-.3814,8.3556-1.6873,12.4982-2.69a97.7572,97.7572,0,0,1,13.6358-2.57,53.8475,53.8475,0,0,1,7.8865-.2408,72.4654,72.4654,0,0,1,12.1084,1.76c4.5461,1.015,9.01,2.37,13.5806,3.2768a17.1155,17.1155,0,0,0,5.73.4188,4.88,4.88,0,0,0,3.9612-2.5652c.1183-.2251.1665-.5026.4239-.6369a10.1638,10.1638,0,0,1-1.02,3.49,24.0859,24.0859,0,0,1-9.7507,10.9954,45.8141,45.8141,0,0,1-17.084,6.1357,64.7242,64.7242,0,0,1-14.3291.71c-7.63-.4146-15.0019-2.0116-21.7754-5.7392-5.0519-2.78-9.1764-6.4948-11.5425-11.8876A11.4419,11.4419,0,0,1,612.68,480.7122Z"/><path class="cls-38" d="M635.8435,444.5254a7.5558,7.5558,0,1,1-8.1921-7.1187A7.5429,7.5429,0,0,1,635.8435,444.5254Zm-10.7491.3765a3.2127,3.2127,0,0,0,3.1885,3.27,3.2315,3.2315,0,1,0,.065-6.4627A3.183,3.183,0,0,0,625.0944,444.9019Z"/><path class="cls-38" d="M681.2255,444.9641a7.5667,7.5667,0,1,1-7.55-7.5927A7.6093,7.6093,0,0,1,681.2255,444.9641Zm-4.3422-.0492a3.1859,3.1859,0,0,0-3.241-3.2062,3.2181,3.2181,0,0,0-3.2189,3.2445,3.2537,3.2537,0,0,0,3.2571,3.2191A3.2138,3.2138,0,0,0,676.8833,444.9149Z"/><path class="cls-41" d="M642.3062,474.036a2.1245,2.1245,0,0,1-2.131-2.1206,2.25,2.25,0,0,1,2.1734-2.1145,2.1678,2.1678,0,0,1,2.1772,2.1058A2.1289,2.1289,0,0,1,642.3062,474.036Z"/><path class="cls-41" d="M659.6557,474.036a2.1267,2.1267,0,0,1-2.2029-2.1381,2.1668,2.1668,0,0,1,2.1792-2.097,2.118,2.118,0,1,1,.0237,4.2351Z"/><path class="cls-42" d="M625.0944,444.9019a3.183,3.183,0,0,1,3.2535-3.1926,3.2315,3.2315,0,1,1-3.2535,3.1926Z"/><path class="cls-42" d="M676.8833,444.9149a3.2138,3.2138,0,0,1-3.2028,3.2574,3.2537,3.2537,0,0,1-3.2571-3.2191,3.2181,3.2181,0,0,1,3.2189-3.2445A3.1859,3.1859,0,0,1,676.8833,444.9149Z"/></g><g class="cls-37"><path class="cls-38" d="M528.2484,540.6277q0,19.7825.0127,39.5649c.0006.5038-.0568.6589-.6243.6585q-39.604-.0285-79.2083-.0035c-.5,0-.5948-.1263-.5946-.605q.0192-39.6042-.006-79.2082c0-.5855.1827-.6142.6682-.6139q39.5649.0188,79.13-.0043c.5455,0,.6375.12.6368.6466Q528.2354,520.8453,528.2484,540.6277Zm-1.8149,13.1872a19.8393,19.8393,0,0,0-.0009-9.5215,30.59,30.59,0,0,0-8.0225-14.4613c-.4593-.4848-.4775-.7065.0379-1.19a12.5166,12.5166,0,0,0,3.9268-12.2337,12.9421,12.9421,0,0,0-25.0965-.84c-.161.5647-.2867.6814-.8691.4837a24.9141,24.9141,0,0,0-16.65.04c-.5421.1894-.6274.02-.7624-.4517a12.9005,12.9005,0,0,0-15.2709-9.1594,12.9426,12.9426,0,0,0-5.869,22.2184c.4519.4248.4762.6294.0443,1.0715a31.2607,31.2607,0,0,0-5.5017,7.5756c-2.6708,5.2-3.9883,10.6243-2.5832,16.4694a11.4419,11.4419,0,0,0,1.116,3.7038c2.3661,5.3928,6.4906,9.1076,11.5425,11.8877,6.7735,3.7275,14.1455,5.3245,21.7755,5.7392a64.7237,64.7237,0,0,0,14.329-.7105,45.8141,45.8141,0,0,0,17.084-6.1357,24.0848,24.0848,0,0,0,9.7507-10.9954A10.1554,10.1554,0,0,0,526.4335,553.8149Z"/><path class="cls-39" d="M449.8161,553.8157c-1.4051-5.8451-.0876-11.2695,2.5832-16.4694a31.2607,31.2607,0,0,1,5.5017-7.5756c.4319-.4421.4076-.6467-.0443-1.0715a12.9426,12.9426,0,0,1,5.869-22.2184,12.9005,12.9005,0,0,1,15.2709,9.1594c.135.4722.22.6411.7624.4517a24.9141,24.9141,0,0,1,16.65-.04c.5824.1977.7081.081.8691-.4837a12.9421,12.9421,0,0,1,25.0965.84,12.5166,12.5166,0,0,1-3.9268,12.2337c-.5154.4832-.4972.7049-.0379,1.19a30.59,30.59,0,0,1,8.0225,14.4613,19.8435,19.8435,0,0,1,.0012,9.5216c-.2574.1344-.3056.4118-.4239.6369a4.88,4.88,0,0,1-3.9612,2.5653,17.1207,17.1207,0,0,1-5.73-.4188c-4.5708-.9066-9.0345-2.2619-13.5806-3.2769a72.4637,72.4637,0,0,0-12.1084-1.76,53.8618,53.8618,0,0,0-7.8865.2407,97.7745,97.7745,0,0,0-13.6358,2.57c-4.1425,1.0022-8.2156,2.3082-12.4982,2.69-2.8977.2581-5.692-.5309-6.6193-3.0973C449.9674,553.9023,449.8756,553.8648,449.8161,553.8157ZM472.98,517.6289a7.4919,7.4919,0,0,0-8.1921-7.1186,7.551,7.551,0,1,0,8.1921,7.1186Zm45.382.4388a7.5667,7.5667,0,1,0-7.613,7.5392A7.5885,7.5885,0,0,0,518.3619,518.0677ZM479.4427,547.14a2.1287,2.1287,0,0,0,2.2195-2.1293,2.1679,2.1679,0,0,0-2.1772-2.1058,2.2494,2.2494,0,0,0-2.1733,2.1146A2.1244,2.1244,0,0,0,479.4427,547.14Zm17.3494,0a2.118,2.118,0,1,0-.0236-4.2351,2.1667,2.1667,0,0,0-2.1792,2.0971A2.1266,2.1266,0,0,0,496.7921,547.14Z"/><path class="cls-40" d="M449.8161,553.8157c.06.0491.1513.0866.1739.149.9273,2.5664,3.7216,3.3554,6.6193,3.0973,4.2826-.3813,8.3557-1.6873,12.4982-2.69a97.7745,97.7745,0,0,1,13.6358-2.57,53.8618,53.8618,0,0,1,7.8865-.2407,72.4637,72.4637,0,0,1,12.1084,1.76c4.5461,1.015,9.01,2.37,13.5806,3.2769a17.1207,17.1207,0,0,0,5.73.4188,4.88,4.88,0,0,0,3.9612-2.5653c.1183-.2251.1665-.5025.4239-.6369a10.1625,10.1625,0,0,1-1.02,3.49A24.0848,24.0848,0,0,1,515.6631,568.3a45.8141,45.8141,0,0,1-17.084,6.1357,64.7237,64.7237,0,0,1-14.329.7105c-7.63-.4147-15.002-2.0117-21.7755-5.7392-5.0519-2.78-9.1764-6.4949-11.5425-11.8877A11.4419,11.4419,0,0,1,449.8161,553.8157Z"/><path class="cls-38" d="M472.98,517.6289a7.5558,7.5558,0,1,1-8.1921-7.1186A7.5431,7.5431,0,0,1,472.98,517.6289Zm-10.7491.3765a3.2128,3.2128,0,0,0,3.1885,3.27,3.2551,3.2551,0,0,0,3.2708-3.2051,3.2226,3.2226,0,0,0-3.2058-3.2576A3.1829,3.1829,0,0,0,462.2308,518.0054Z"/><path class="cls-38" d="M518.3619,518.0677a7.5667,7.5667,0,1,1-7.55-7.5928A7.6092,7.6092,0,0,1,518.3619,518.0677Zm-4.3422-.0493a3.186,3.186,0,0,0-3.241-3.2062,3.2183,3.2183,0,0,0-3.2189,3.2446,3.2536,3.2536,0,0,0,3.2571,3.219A3.2138,3.2138,0,0,0,514.02,518.0184Z"/><path class="cls-41" d="M479.4427,547.14a2.1244,2.1244,0,0,1-2.131-2.12,2.2494,2.2494,0,0,1,2.1733-2.1146,2.1679,2.1679,0,0,1,2.1772,2.1058A2.1287,2.1287,0,0,1,479.4427,547.14Z"/><path class="cls-41" d="M496.7921,547.14a2.1266,2.1266,0,0,1-2.2028-2.138,2.1667,2.1667,0,0,1,2.1792-2.0971,2.118,2.118,0,1,1,.0236,4.2351Z"/><path class="cls-42" d="M462.2308,518.0054a3.1829,3.1829,0,0,1,3.2535-3.1925,3.2226,3.2226,0,0,1,3.2058,3.2576,3.2551,3.2551,0,0,1-3.2708,3.2051A3.2128,3.2128,0,0,1,462.2308,518.0054Z"/><path class="cls-42" d="M514.02,518.0184a3.2138,3.2138,0,0,1-3.2028,3.2574,3.2536,3.2536,0,0,1-3.2571-3.219,3.2183,3.2183,0,0,1,3.2189-3.2446A3.186,3.186,0,0,1,514.02,518.0184Z"/></g></g><path class="cls-1" d="M408.9653,440.2022V542.0236s90.22,17.153,133.3027,8.0165C579.6643,542.11,700.5786,523.02,710,542.0236V440.2022s-92.0914-21.5438-169.4976,1.9846S408.9653,440.2022,408.9653,440.2022Z"/><line class="cls-43" x1="408.5" y1="440.5" x2="234.8805" y2="468.5633"/><line class="cls-43" x1="408.5" y1="542.5" x2="233.6377" y2="520.1474"/><rect class="cls-44" x="408.5" y="437.029" width="3.7014" height="109.1926"/><path class="cls-45" d="M426.4941,492.4368q-.11.8868-.1367,1.2115c-4.6473-1.3412-6.9708-2.071-11.6181-3.6669C419.4413,491.0958,421.7922,491.5832,426.4941,492.4368Zm-.1914,2.6018a9.1183,9.1183,0,0,0,.0821,1.2512c-4.6473-1.3405-6.9709-2.07-11.6182-3.6653C419.381,493.7175,421.6883,494.1968,426.3027,495.0386Zm.4385-3.9574c-4.6469-1.333-6.97-2.0585-11.6171-3.6455,4.7347,1.1131,7.1021,1.5991,11.8368,2.4488Zm.4678-2.5526c-4.6582-1.3253-6.9873-2.047-11.6455-3.6267,4.7461,1.1056,7.1191,1.5878,11.8652,2.4295Zm-.44,9.2586a4.7478,4.7478,0,0,0,.8789,1.393c-4.6472-1.3141-6.9708-2.03-11.6181-3.5963C420.326,496.5748,422.4738,497.0127,426.77,497.7872ZM416.0576,482.38c4.7352,1.0916,7.1027,1.5673,11.8379,2.3972l-.22,1.1976C423.0285,484.6612,420.7049,483.9458,416.0576,482.38Zm12.085,1.04c-4.6473-1.3038-6.9709-2.0142-11.6182-3.57,4.7352,1.0809,7.1027,1.5514,11.8379,2.3714Zm5.8769,12.5926a2.5075,2.5075,0,0,0,1.3741-.0616q.4116-.2021.5761-1.1128c.8129-4.4561,1.2193-6.6858,2.0323-11.1487,2.0874.2752,3.1312.4014,5.2187.6326-.6813,3.7806-1.0219,5.67-1.7031,9.4458a19.9433,19.9433,0,0,1-.9473,3.6493,5.7909,5.7909,0,0,1-1.4971,2.2307,4.3117,4.3117,0,0,1-2.375,1.0587,12.9966,12.9966,0,0,1-3.5849-.1343,8.8968,8.8968,0,0,1-4.6553-1.7594,4.7763,4.7763,0,0,1-1.332-3.68,19.4341,19.4341,0,0,1,.3847-3.42c.6813-3.7355,1.0219-5.6046,1.7032-9.3452,2.0871.3536,3.1306.5181,5.2177.8245-.9117,5.0186-1.3675,7.5257-2.2793,12.5355C432.8992,495.8446,433.2726,495.9016,434.02,496.0125Z"/><path class="cls-46" d="M447.7246,501.8646c-4.6578-.9293-6.9867-1.4435-11.6445-2.5893,4.7457.6635,7.1185.9344,11.8642,1.3734Zm.4668-2.6208c-4.6578-.921-6.9867-1.431-11.6445-2.5677,4.7457.6543,7.1185.9208,11.8642,1.3514Zm.4678-2.5942c-4.6582-.9128-6.9873-1.4185-11.6455-2.5462,4.7457.6451,7.1185.9072,11.8642,1.3295Zm.4667-2.5951c-4.6581-.9047-6.9872-1.406-11.6454-2.5247,4.7461.636,7.1191.8937,11.8652,1.3077Zm.4668-2.5959c-4.6582-.8965-6.9873-1.3936-11.6454-2.5032,4.746.6267,7.1191.88,11.8652,1.2858Zm.4668-2.5967c-4.6582-.8885-6.9872-1.3812-11.6454-2.482,4.7351.6163,7.1027.8649,11.8378,1.2619Zm7.086,13.8c-1.1316-2.2422-1.6974-3.366-2.8291-5.6194l-.1094-.0076c-.3847,2.1485-.5771,3.2225-.9619,5.37-1.8457-.1346-2.7685-.2094-4.6142-.3754,1.0109-5.7205,1.5163-8.5833,2.5273-14.3133,1.4941.12,2.2412.1752,3.7353.2753,1.1426,2.2409,1.7139,3.3585,2.8565,5.588l.164.0092c.3739-2.1432.5608-3.2151.9346-5.36,1.8344.0976,2.7516.1391,4.5859.2087-1.0215,5.7727-1.5322,8.657-2.5536,14.4211C459.3867,502.79,458.64,502.7505,457.1455,502.6622Z"/><path class="cls-47" d="M468.8457,503.0428c-4.6578-.5912-6.9867-.9267-11.6445-1.6956,4.7457.28,7.1185.3685,11.8642.4638Zm.4668-2.6546c-4.6578-.5845-6.9867-.9165-11.6445-1.6778,4.7457.2718,7.1185.3572,11.8642.4458Zm.4677-2.6279c-4.6582-.5779-6.9873-.9063-11.6455-1.66,4.7457.2642,7.1186.346,11.8643.4278Zm.4668-2.6285c-4.6582-.5713-6.9873-.8963-11.6455-1.6427,4.7461.2567,7.1192.3349,11.8652.41Zm.4668-2.6293c-4.6582-.5647-6.9873-.8861-11.6455-1.6251,4.7461.2491,7.1191.3237,11.8652.3921Zm.4668-2.63c-4.6582-.5583-6.9873-.8762-11.6455-1.6077,4.7352.2409,7.1027.3119,11.8379.3739C471.296,489.1324,471.2576,489.3792,471.1806,489.8727Zm7.4981,13.313c-3.5707.028-5.356.021-8.9267-.0433,1.0109-5.7932,1.5162-8.6919,2.5273-14.4928,1.9336.02,2.9.0231,4.8339.0163-.7363,4.1993-1.1045,6.298-1.8408,10.4935,1.6481.0027,2.4721-.0008,4.12-.0169C479.107,500.76,478.9643,501.5687,478.6787,503.1857Z"/><path class="cls-48" d="M484.418,503.0146c-4.6578-.3873-6.9868-.6137-11.6446-1.15,4.7457.0425,7.1186.02,11.8643-.0915Zm.4667-2.675c-4.6578-.3817-6.9867-.6052-11.6445-1.1349,4.7457.0359,7.1186.0108,11.8643-.1068Zm.4678-2.6482c-4.6582-.3762-6.9873-.5967-11.6455-1.12,4.7457.0294,7.1185.0013,11.8642-.1218Zm.4668-2.6487c-4.6582-.3708-6.9873-.5883-11.6455-1.1054,4.7461.023,7.1191-.0082,11.8652-.1368Zm.4667-2.6493c-4.6581-.3654-6.9872-.58-11.6454-1.0908,4.7461.0166,7.1191-.0175,11.8652-.1517Zm.4669-2.65c-4.6582-.36-6.9873-.5717-11.6455-1.0763,4.7351.01,7.1027-.0266,11.8379-.1656Zm8.3222,7.0648c-1.6371.079-2.4556.1149-4.0927.1788-.1317.7523-.1975,1.1285-.3291,1.8808,2.0324-.0778,3.0486-.1229,5.081-.2238-.2859,1.629-.4288,2.4433-.7148,4.0719-3.8781.1866-5.8172.26-9.6953.3586,1.0109-5.8371,1.5163-8.7572,2.5273-14.6006,3.8672-.1221,5.8008-.2069,9.668-.4138-.5165,1.6756-.7747,2.5131-1.2911,4.1873-1.791.0909-2.6865.1321-4.4775.2052-.1317.7522-.1975,1.1283-.3291,1.88,1.648-.066,2.4721-.103,4.12-.1842C495.3552,495.2129,495.2618,495.7447,495.0751,496.8084Z"/><path class="cls-49" d="M502.1328,502.2111c-4.5043-.2006-6.7564-.324-11.2607-.633,4.7129-.1826,7.0693-.3081,11.7822-.609C502.4457,501.466,502.3414,501.7144,502.1328,502.2111Zm1.126-2.7369c-4.5043-.19-6.7565-.3082-11.2608-.6051,4.7129-.1949,7.0694-.326,11.7822-.637C503.5717,498.7291,503.4673,498.9774,503.2588,499.4742Zm1.1259-2.711c-4.5043-.1808-6.7564-.2934-11.2607-.5787,4.7019-.2065,7.0528-.3427,11.7548-.6626C504.6812,496.0185,504.5824,496.2668,504.3847,496.7632Zm1.0986-2.71c-4.4933-.1729-6.74-.2809-11.2334-.5558,4.702-.2183,7.0529-.36,11.7549-.69C505.7962,493.3057,505.6919,493.5548,505.4833,494.0528Zm1.126-2.7156c-4.4934-.1637-6.74-.2666-11.2334-.5305,4.691-.2294,7.0365-.3758,11.7275-.7139C506.9057,490.5906,506.8069,490.84,506.6093,491.3372Zm1.0986-2.7433c-4.4824-.1448-6.7236-.2377-11.206-.48,4.68-.24,7.02-.3913,11.7-.7377C508.0044,487.8632,507.9056,488.1068,507.7079,488.5939Zm4.4767,13.0025c-.0438-.8862-.0656-1.3294-.11-2.2156-1.3843.1114-2.0765.1652-3.4609.2686-.3406.9153-.5109,1.3728-.8515,2.2875-1.9.1392-2.8506.205-4.751.3276,2.4386-5.9688,3.6578-8.9605,6.0966-14.9563,2.7246-.2059,4.087-.3171,6.8116-.5526.4284,5.7745.6427,8.6616,1.0713,14.4352C515.0685,501.36,514.1072,501.4413,512.1846,501.5964Zm-.11-6.1432v-4.1746c-.1539.0124-.2309.0186-.3848.0308-.648,1.7217-.9721,2.582-1.62,4.3019C510.8722,495.5494,511.2732,495.5178,512.0751,495.4532Z"/><path class="cls-50" d="M512.02,500.2914c4.7461-.3815,7.1192-.5969,11.8653-1.0577-.1539.51-.2309.7642-.3848,1.2735C518.9078,500.4565,516.6117,500.4167,512.02,500.2914Zm12.3594-2.5618c-4.5812-.0356-6.8719-.0673-11.4532-.1756,4.7352-.3875,7.1027-.6053,11.8379-1.07C524.61,496.9823,524.5328,497.2314,524.3789,497.73Zm.9062-5.5535v.22c-4.6578-.0346-6.9868-.0658-11.6446-.1739,4.68-.3882,7.02-.6054,11.7-1.0679Q525.285,491.8187,525.2851,492.1761Zm.6875-3.7213a11.8847,11.8847,0,0,0-.3575,1.2717c-4.5922-.0392-6.8882-.0723-11.4805-.1824C518.87,489.1477,521.2374,488.9261,525.9726,488.4548Zm-.44,5.3168a2.6647,2.6647,0,0,0,.7959,1.157c-4.6468-.03-6.97-.0585-11.6171-.16C519.04,494.4026,521.2046,494.2,525.5331,493.7716Zm2.334-8.144a5.1684,5.1684,0,0,0-1.126,1.267c-4.2843-.0312-6.4265-.0581-10.7109-.1485C520.765,486.3362,523.1323,486.1088,527.8671,485.6276Zm8.624,3.4a14.07,14.07,0,0,0-3.1855-.0945,17.4848,17.4848,0,0,0-1.95.2889c-.0551.3245-.0826.4868-.1377.8113.55.0079.8244.0117,1.374.0189,2.9473.0714,4.4219,1.1239,4.4219,3.1746a10.1836,10.1836,0,0,1-.165,1.35,9.1272,9.1272,0,0,1-.55,1.942,5.0132,5.0132,0,0,1-.9746,1.575,8.0162,8.0162,0,0,1-1.1533,1.0309,4.3816,4.3816,0,0,1-1.4424.6349,24.7541,24.7541,0,0,1-3.666.6035,16.8993,16.8993,0,0,1-4.6279-.1662c.5382-1.6787.8074-2.5183,1.3456-4.1978a13.4153,13.4153,0,0,0,3.7491.2244,21.32,21.32,0,0,0,2.2656-.3188l.1377-.8934c-.6922-.0037-1.0383-.0059-1.7305-.0109a5.4552,5.4552,0,0,1-3.1592-.72,2.56,2.56,0,0,1-.9336-2.1856,8.8722,8.8722,0,0,1,.1377-1.3877,7.34,7.34,0,0,1,1.9775-4.2639,7.6608,7.6608,0,0,1,4.3536-1.58,21.5949,21.5949,0,0,1,5.2314.0094C537.2822,486.5347,537.0185,487.3656,536.4911,489.0273Z"/><path class="cls-51" d="M542.9727,498.4363c-4.6579.0361-6.9867.0484-11.6446.0436,4.7458-.4989,7.1186-.7637,11.8643-1.3049Zm.4668-2.7171c-4.6579.0373-6.9868.05-11.6446.0476,4.7457-.501,7.1186-.7666,11.8643-1.309Zm.4677-2.69c-4.6582.0386-6.9873.0525-11.6455.0518,4.7457-.5031,7.1185-.7695,11.8642-1.313Zm.4668-2.69c-4.6582.04-6.9873.0544-11.6455.0556,4.746-.5051,7.1191-.7723,11.8652-1.3171Zm.4668-2.69c-4.6582.0408-6.9873.0562-11.6455.0595,4.746-.5072,7.1191-.7751,11.8652-1.321Zm.4668-2.69c-4.6582.0418-6.9873.0581-11.6456.0632,4.7352-.5079,7.1028-.776,11.8379-1.3216Zm6.2891,12.56.8515-5.1261c-1.2305.1448-1.8457.217-3.0762.3607-.3515,2.0515-.5273,3.0772-.8788,5.1286-1.8457.215-2.7686.3218-4.6143.533,1.0109-5.927,1.5163-8.8909,2.5273-14.8193,1.8566-.2147,2.785-.3231,4.6416-.5409-.3625,2.053-.5438,3.0794-.9063,5.1323,1.2414-.1453,1.8622-.2183,3.1036-.3646.3515-2.0519.5273-3.0778.8789-5.13,1.8566-.2191,2.7849-.3292,4.6416-.5492-1.0219,5.9326-1.5329,8.8989-2.5547,14.8311C554.3652,497.1929,553.4424,497.3019,551.5967,497.5187Z"/><path class="cls-52" d="M564.1758,495.95c-4.6579.0556-6.9867.0874-11.6446.1411,4.7458-.5586,7.1186-.843,11.8643-1.4033Zm.4667-2.719c-4.6578.0552-6.9867.087-11.6445.1412,4.7457-.559,7.1185-.8435,11.8642-1.4034Zm.4678-2.6918c-4.6582.0549-6.9873.0867-11.6455.1414,4.7457-.5595,7.1185-.8439,11.8642-1.4034C565.2415,489.7815,565.1978,490.0339,565.11,490.5387Zm.4668-2.6916c-4.6582.0544-6.9873.0863-11.6455.1414,4.7461-.56,7.1191-.8445,11.8652-1.4035Zm.4668-2.6916c-4.6582.054-6.9873.0858-11.6455.1413,4.7461-.56,7.1191-.8449,11.8652-1.4034Zm.4668-2.6915c-4.6582.0534-6.9873.0852-11.6455.1411,4.7351-.56,7.1027-.8433,11.8379-1.4Zm-1.4287,13.4605c1.0109-5.93,1.5163-8.8958,2.5273-14.8259,1.9336-.2269,2.9-.34,4.834-.5633-1.0219,5.93-1.5328,8.8948-2.5546,14.8252C567.966,495.5847,567.0047,495.6978,565.082,495.9245Z"/><path class="cls-53" d="M577.6064,494.3918c-4.6579.0311-6.9866.0568-11.6445.1108,4.7457-.5589,7.1185-.837,11.8642-1.3719Zm.4668-2.7165c-4.6579.03-6.9867.055-11.6446.1084,4.7458-.5583,7.1186-.8359,11.8643-1.3694Zm.4678-2.6892c-4.6582.0284-6.9874.0532-11.6456.1062,4.7458-.5578,7.1186-.835,11.8643-1.367C578.6722,488.23,578.6285,488.4818,578.541,488.9861Zm.4668-2.6889c-4.6583.0269-6.9874.0512-11.6456.1036,4.7461-.5572,7.1191-.8339,11.8652-1.3645C579.14,485.5407,579.0956,485.7928,579.0078,486.2972Zm.4667-2.6888c-4.6582.0255-6.9873.0493-11.6455.1011,4.7461-.5567,7.1192-.8328,11.8653-1.3619C579.6063,482.8519,579.5624,483.1041,579.4745,483.6084Zm.4668-2.6887c-4.6582.024-6.9873.0473-11.6455.0984,4.7352-.5547,7.1028-.83,11.8379-1.356Zm7.086,12.5232c-1.1317-2.0558-1.6975-3.083-2.8291-5.136l-.1094.0118c-.3848,2.2169-.5771,3.3254-.9619,5.5425-1.8457.201-2.7686.3034-4.6143.5106,1.011-5.9248,1.5164-8.887,2.5274-14.81,1.4941-.1651,2.2412-.2467,3.7353-.4074,1.1425,2.0415,1.7138,3.063,2.8564,5.1075l.1641-.0173c.3738-2.2035.5608-3.3052.9346-5.5083,1.8344-.1905,2.7516-.2838,4.5859-.4653-1.0215,5.9126-1.5322,8.87-2.5537,14.7849C589.2685,493.2078,588.5214,493.2853,587.0273,493.4429Z"/><path class="cls-54" d="M598.8915,485.6482q-.11.8612-.1377,1.1659c-4.3284-.0625-6.4928-.0766-10.8212-.085C592.3162,486.27,594.5079,486.0512,598.8915,485.6482Zm-.165,2.6517a7.7419,7.7419,0,0,0,.11,1.1431c-4.3176-.0639-6.4764-.0789-10.794-.0889C592.3163,488.9074,594.4531,488.6938,598.7265,488.3Zm.6865-5.3361-.247,1.1758c-4.2953-.0679-6.443-.0849-10.7383-.0988C592.8218,483.5831,595.0189,483.3647,599.413,482.9638Zm.9619-2.7238q-.33.7445-.4668,1.1407c-4.1527-.0633-6.2291-.0788-10.3818-.09C593.8658,480.8432,596.0355,480.63,600.3749,480.24Zm-1.0713,10.6709a3.1039,3.1039,0,0,0,.7139.9516c-3.834-.06-5.751-.0762-9.5849-.0914C593.981,491.4088,595.7552,491.2352,599.3036,490.9109Zm3.461-13.5183a5.2631,5.2631,0,0,0-1.127,1.0046c-3.3726-.0652-5.0589-.087-8.4316-.1154C597.0294,477.9031,598.9412,477.7233,602.7646,477.3926Zm7.8819,13.1269a16.7271,16.7271,0,0,1-5.7129,1.5467c-1.94.1615-3.3234-.096-4.1466-.7816a4.2183,4.2183,0,0,1-1.2363-3.4176,21.7228,21.7228,0,0,1,.3848-3.4127,14.4077,14.4077,0,0,1,1.1806-3.8685c1.1534-2.3172,3.4883-3.6342,7.004-3.9088a10.1024,10.1024,0,0,1,4.2841.2855c-.56,1.5665-.84,2.35-1.4,3.918a13.94,13.94,0,0,0-3.1171-.1483,7.1227,7.1227,0,0,0-1.9639.35,1.0551,1.0551,0,0,0-.6865.7976c-.4613,2.565-.692,3.8477-1.1534,6.4136.5051-.0427.7577-.0639,1.2627-.1055a3.0584,3.0584,0,0,0,1.0577-.2379.873.873,0,0,0,.4531-.7093l.1924-1.0866c-.45.036-.6756.0541-1.126.091.2195-1.27.3293-1.9053.5488-3.1754,2.2191-.1793,3.3288-.2642,5.5479-.4226C611.47,485.7953,611.1956,487.37,610.6465,490.52Z"/><path class="cls-55" d="M623.4189,490.4172c-4.6582-.2673-6.9873-.37-11.6455-.5295,4.7461-.3409,7.1192-.4882,11.8653-.7174Zm.4668-2.6865c-4.6582-.272-6.9873-.3765-11.6455-.54,4.7461-.3369,7.1191-.482,11.8652-.7064Zm.4668-2.6586c-4.6582-.2768-6.9873-.3835-11.6455-.5512,4.7461-.3329,7.1191-.4758,11.8652-.6953Zm.4668-2.6582c-4.6582-.2816-6.9873-.3905-11.6455-.5622,4.7461-.3289,7.1191-.4695,11.8652-.684Zm.4668-2.6576c-4.6582-.2865-6.9873-.3976-11.6455-.5733,4.7461-.3248,7.1191-.4632,11.8652-.6728Zm.4668-2.6573c-4.6582-.2914-6.9873-.4046-11.6455-.5844,4.7352-.32,7.1027-.4558,11.8379-.66Zm.44-2.6555c-4.6469-.2965-6.97-.4123-11.6172-.5969,4.7347-.3158,7.1022-.4493,11.8369-.6487Zm8.3769-1.51c2.3623-.0529,4.042.3464,5.04,1.17a4.9573,4.9573,0,0,1,1.4971,4.04,19.2774,19.2774,0,0,1-.33,3.2976q-.8232,4.6188-2.8144,6.6188c-1.3282,1.3362-3.4658,2.0293-6.414,2.1176-2.9223.0876-4.3835.1449-7.3057.2822,1.2085-6.9228,1.8128-10.3823,3.0215-17.2969C630.1859,473.0456,631.6471,472.9987,634.5693,472.9333Zm-.7139,4.411c-.868.021-1.3019.0327-2.17.0584-.5824,3.3679-.8737,5.0524-1.4561,8.4223.868-.0288,1.302-.0421,2.17-.0663a3.81,3.81,0,0,0,1.5937-.3019,1.5729,1.5729,0,0,0,.6865-1.21c.3844-2.1947.5766-3.2918.961-5.4856a2.9161,2.9161,0,0,0,.0273-.44.7845.7845,0,0,0-.4394-.8153A3.5821,3.5821,0,0,0,633.8554,477.3443Z"/><path class="cls-56" d="M646.4335,489.94c-4.6578-.5426-6.9867-.7719-11.6445-1.1648,4.7457-.1036,7.1185-.1212,11.8643-.0691Zm.4668-2.6587c-4.6578-.5491-6.9867-.7815-11.6445-1.18,4.7457-.0979,7.1185-.1124,11.8643-.0538Zm.4678-2.6308c-4.6582-.5556-6.9873-.791-11.6455-1.195,4.7457-.0922,7.1185-.1036,11.8643-.0384C647.4993,483.9106,647.4556,484.1572,647.3681,484.6506Zm.4668-2.63c-4.6582-.5621-6.9873-.8-11.6455-1.21,4.7461-.0864,7.1191-.0947,11.8652-.0228Zm.4668-2.63c-4.6582-.5686-6.9873-.81-11.6455-1.2255,4.7461-.0806,7.1191-.0858,11.8652-.0072Zm.4668-2.6288c-4.6582-.5752-6.9873-.82-11.6455-1.241,4.7352-.0745,7.1027-.0767,11.8379.0081Zm8.3222,7.64c-1.6371-.0717-2.4557-.1019-4.0927-.1518-.1317.7432-.1975,1.1149-.3291,1.8583,2.0324.06,3.0486.0977,5.081.1912-.2859,1.6016-.4289,2.4026-.7148,4.0049-3.8781-.1691-5.8172-.2215-9.6953-.272,1.0108-5.7982,1.5163-8.6955,2.5273-14.486,3.8672.08,5.8008.1477,9.6679.3489-.5164,1.6211-.7746,2.4322-1.291,4.0556-1.791-.0854-2.6865-.1212-4.4775-.18-.1317.7425-.1975,1.1138-.3291,1.8564,1.648.0526,2.472.0842,4.12.1589C657.3708,482.8325,657.2774,483.3557,657.0907,484.4021Z"/><path class="cls-57" d="M664.4774,490.6415c-4.6578-.8171-6.9866-1.1754-11.6445-1.81,4.7458.1422,7.1186.2561,11.8642.5885Zm.4678-2.6312c-4.6582-.8249-6.9873-1.1869-11.6455-1.8279,4.7461.1493,7.1191.2669,11.8652.6073Zm.4668-2.6031c-4.6582-.8327-6.9873-1.1984-11.6455-1.8463,4.7461.1563,7.1191.2778,11.8652.6261Zm.4668-2.6023c-4.6582-.8406-6.9873-1.21-11.6455-1.8649,4.7461.1635,7.1191.2887,11.8652.6451Zm.4668-2.6015c-4.6582-.8485-6.9873-1.2216-11.6455-1.8836,4.7461.1706,7.1191.3,11.8652.6641Zm.4668-2.6007c-4.6582-.8564-6.9873-1.2333-11.6455-1.9023,4.7351.1774,7.1027.31,11.8379.681Zm7.7178,8.73c-1.45-.155-2.175-.2273-3.625-.362-.3739,2.0745-.5608,3.1121-.9346,5.188-1.8457-.165-2.7686-.2394-4.6143-.3731,1.0109-5.7382,1.5164-8.6051,2.5274-14.334,3.6582.2986,5.4873.4779,9.1455.9051-.5051,1.5889-.7577,2.3841-1.2627,3.9756-1.5934-.1781-2.39-.2607-3.9834-.4141-.1317.7342-.1975,1.1013-.3291,1.8356,1.45.1378,2.175.2116,3.625.37C674.8594,484.407,674.75,485.0488,674.53,486.3328Zm6.1523,5.9241c-4.6582-1.1075-6.9873-1.6036-11.6455-2.4983,4.7461.4077,7.1191.6621,11.8652,1.2911Zm.4668-2.6021c-4.6582-1.1165-6.9873-1.6168-11.6455-2.52,4.7461.4159,7.1191.6747,11.8652,1.3128Zm.4668-2.5738c-4.6582-1.1256-6.9873-1.63-11.6455-2.5411,4.7461.4243,7.1191.6874,11.8652,1.3347Zm.4668-2.5729c-4.6582-1.1346-6.9873-1.6435-11.6455-2.5626,4.7461.4326,7.1191.7,11.8652,1.3566Zm.4668-2.572c-4.6579-1.1437-6.9867-1.6569-11.6445-2.5842,4.7457.441,7.1185.7129,11.8642,1.3787Zm.4668-2.5711c-4.6579-1.1528-6.9867-1.67-11.6446-2.6059,4.7348.4484,7.1022.724,11.837,1.3969C683.1319,478.64,683.0934,478.8814,683.0165,479.365ZM681.5887,492.46c1.0106-5.6747,1.5159-8.5094,2.5264-14.1733,1.9337.2822,2.9.4331,4.8341.7557-1.0215,5.641-1.5323,8.4644-2.5538,14.1168C684.4728,492.86,683.5115,492.72,681.5887,492.46Z"/><path class="cls-58" d="M694.579,493.3732a3.0561,3.0561,0,0,0,.22,1.1682c-4.57-1.3774-6.8549-2.0043-11.4249-3.1515,4.4821.64,6.7231,1.0115,11.2051,1.8729Zm.962-2.5873a2.5586,2.5586,0,0,0-.7139,1.0414c-4.3945-1.3218-6.5918-1.9257-10.9864-3.0342C688.5208,489.4707,690.8609,489.8657,695.541,490.7859Zm.3837-1.3246c-4.6468-1.4164-6.97-2.06-11.6172-3.2368,4.702.69,7.053,1.092,11.7549,2.0279C696.0074,488.736,695.98,488.9777,695.9247,489.4613ZM696.2,486.88c-4.57-1.4071-6.8554-2.0482-11.4258-3.2226,4.6251.688,6.9376,1.0872,11.5626,2.0137Zm.3018-2.5761c-4.5043-1.4-6.7565-2.04-11.2608-3.2132,4.5594.6873,6.8391,1.0849,11.3985,2.0046C696.5845,483.5782,696.5569,483.82,696.5019,484.3034Zm.2744-2.5812c-4.4274-1.39-6.641-2.0269-11.0684-3.1978,4.4825.6848,6.7237,1.0795,11.2061,1.9894C696.8589,480.9971,696.8314,481.2388,696.7763,481.7222Zm-1.373,11.8109a2.1774,2.1774,0,0,1,.8515-2.0569,3.4385,3.4385,0,0,1,2.417-.1623,5.3333,5.3333,0,0,1,2.1427.8074,1.5263,1.5263,0,0,1,.5761,1.2407,2.2864,2.2864,0,0,1-.7275,2.0216,3.3007,3.3007,0,0,1-2.4171.1258,6.356,6.356,0,0,1-2.2656-.7784A1.4076,1.4076,0,0,1,695.4033,493.5331Zm3.6806-15.2043c1.6259.3467,2.4387.5278,4.0645.9063.5674.1321.8516.3836.8516.75a.438.438,0,0,1-.0273.1859c-1.1535,4.4284-1.73,6.6468-2.8838,11.0916-1.7688-.3941-2.6532-.5817-4.422-.9387.5164-4.5976.7746-6.8955,1.291-11.49Q698.0664,478.1138,699.0839,478.3288Z"/></g></svg>