<svg id="Man" xmlns="http://www.w3.org/2000/svg" viewBox="0 0 736 593.33">
  <defs>
    <linearGradient id="linear-gradient" x1="93.401" y1="184.506" x2="740" y2="184.506" gradientUnits="userSpaceOnUse">
      <stop offset="0" stop-color="red"/>
      <stop offset=".161" stop-color="#ff0303"/>
      <stop offset=".286" stop-color="#ff0d0d"/>
      <stop offset=".399" stop-color="#ff1d1d"/>
      <stop offset=".504" stop-color="#ff3535"/>
      <stop offset=".604" stop-color="#ff5353"/>
      <stop offset=".701" stop-color="#ff7878"/>
      <stop offset=".795" stop-color="#ffa4a4"/>
      <stop offset=".884" stop-color="#ffd5d5"/>
      <stop offset=".95" stop-color="#fff"/>
    </linearGradient>
    <linearGradient id="New_Gradient_Swatch_1" x1="-71.544" y1="134.463" x2="86.923" y2="134.463" gradientTransform="rotate(-158.31 196.293 288.043)" gradientUnits="userSpaceOnUse">
      <stop offset="0" stop-color="#f95516"/>
      <stop offset="1" stop-color="#feb21e"/>
    </linearGradient>
    <linearGradient id="linear-gradient-2" x1="91.018" y1="223.12" x2="736" y2="223.12" gradientUnits="userSpaceOnUse">
      <stop offset="0" stop-color="#00f"/>
      <stop offset=".161" stop-color="#0303ff"/>
      <stop offset=".286" stop-color="#0d0dff"/>
      <stop offset=".399" stop-color="#1d1dff"/>
      <stop offset=".504" stop-color="#3535ff"/>
      <stop offset=".604" stop-color="#5353ff"/>
      <stop offset=".701" stop-color="#7878ff"/>
      <stop offset=".795" stop-color="#a4a4ff"/>
      <stop offset=".884" stop-color="#d5d5ff"/>
      <stop offset=".95" stop-color="#fff"/>
    </linearGradient>
    <style>
      .cls-3{fill:#d55041}.cls-31{stroke:#000;stroke-miterlimit:10}.cls-28{fill:#0089cc}.cls-31{fill:none;stroke-width:.2652px}
    </style>
  </defs>
  <path fill="url(#linear-gradient)" d="M93.401 310.033 736 55.502v94.368L96.217 313.509l-2.816-3.476"/>
  <path d="M99.266 560.238S97 560 91 572l6 6 1-2.643S103 589 124 592c0 0 6-5-5-11 0 0-6.332-9.045-5.666-11.023 0 0-4.802-8.502-14.068-9.74Z"/>
  <g id="Rocket_copy" data-name="Rocket copy">
    <path d="M146.986 439.15a6.303 6.303 0 0 0-2.713-4.832q-2.861-2.177-5.774-4.28l.004-.164c.243-5.71-6.868-6.802-9.784-3.3a5.755 5.755 0 0 0-2.93 3.45 20.748 20.748 0 0 0 4.96 19.9c2.899 3.113 7.351 1.432 8.845-1.777a5.633 5.633 0 0 0 1.778.363 5.665 5.665 0 0 0 2.084.38c5.588-.001 6.768-6.854 3.53-9.74Z" fill="#0072bd"/>
    <path class="cls-3" d="M223.699 456.797a209.653 209.653 0 0 0-47.303-13.204l-1.808 6.56a144.106 144.106 0 0 1 53.141 18.67c2.076 1.233 4.184-.052 4.998-2.032l.696-1.696c.698-1.7-.757-3.74-2.376-4.185-1.952-.536-3.484.67-4.185 2.376l-.696 1.696 4.997-2.033a149.446 149.446 0 0 0-42.048-16.97q-6.303-1.477-12.719-2.386c-1.816-.26-3.654.446-4.185 2.376-.443 1.614.55 3.9 2.376 4.185a209.655 209.655 0 0 1 47.303 13.204c1.7.698 3.74-.757 4.185-2.376.536-1.952-.67-3.484-2.376-4.185ZM220.475 535.763l10.516-7.292a3.52 3.52 0 0 0 1.564-3.842 3.468 3.468 0 0 0-3.28-2.497 70.959 70.959 0 0 0-19.646 2.806 3.431 3.431 0 0 0-2.376 4.184 16.536 16.536 0 0 0 5.857 7.76l.813-6.218a77.5 77.5 0 0 1-9.586 3.017l4.185 4.185c-.142.358.16-.301.195-.366a9.13 9.13 0 0 1 .478-.793c.256-.375.082-.132.262-.337q.307-.348.644-.666a6.163 6.163 0 0 1 2.304-1.354l-2.621-6.218a61.703 61.703 0 0 1-20.704 7.106l1.809 6.561 2.222-.872-3.842-1.564.105.248-.464-1.717-.008.237.465-1.717c-.569 1.227.95-1.179 1.047-.688q.455-.004-.362.03l-.5.03-2.494.149-5.24.314-10.23.612a3.476 3.476 0 0 0-3.402 3.402c-.06 2.755 2.014 4.489 4.593 4.749 1.831.185 3.402-1.696 3.402-3.402a3.478 3.478 0 0 0-3.402-3.402l-.338-.034 1.717.464.832 1.625-3.402 3.402 13.723-.821c2.176-.13 4.67.044 6.775-.557a5.228 5.228 0 0 0 3.052-2.216 4.314 4.314 0 0 0 .006-4.141 3.388 3.388 0 0 0-3.842-1.564l-2.222.872a3.403 3.403 0 1 0 1.809 6.561 66.952 66.952 0 0 0 22.329-7.791c3.308-1.856 1.096-7.436-2.622-6.218a13.713 13.713 0 0 0-8.635 8.268c-1.007 2.542 1.901 4.744 4.185 4.185a77.495 77.495 0 0 0 9.585-3.018 3.458 3.458 0 0 0 .813-6.218 9.464 9.464 0 0 1-2.73-3.693l-2.377 4.185a63.992 63.992 0 0 1 17.837-2.563l-1.717-6.34-10.516 7.292a3.49 3.49 0 0 0-1.22 4.655 3.432 3.432 0 0 0 4.655 1.22Z"/>
    <path d="M61.007 530.932c37.884 16.718 95.5 25.787 172.547-7.308l1.42-58.952s-86.35-43.459-172.892-7.913c16.675 42.909-1.03 74.093-1.075 74.173Z" fill="#ededed"/>
    <path d="M61.007 530.932c.045-.08 17.75-31.264 1.076-74.173a186.895 186.895 0 0 0-55.335 35.398s18.184 22.855 54.259 38.775Z" fill="#df716a"/>
    <path class="cls-3" d="M169.294 542.983s3.222 21.395 94.129 6.181l-29.869-25.54s-31.443 18.632-64.26 19.359ZM170.796 445.573s7.967-18.031 92.438-4.783l-28.26 23.882s-38.675-19.371-64.178-19.099Z"/>
    <path fill="#938b9a" d="m233.638 520.147 7.402.603.725-51.813-6.884-.374-1.243 51.584z"/>
    <path d="M240.545 516.851S316.898 531.562 404 490.544c0 0-68.102-35.837-162.928-19.147Z" fill="url(#New_Gradient_Swatch_1)"/>
    <path class="cls-3" d="M163.683 493.756s-.014 22.338 103.626 1.45c0 0-97.395-21.02-103.626-1.45Z"/>
    <circle cx="75.544" cy="492.375" r="22.68" fill="#fbc064"/>
    <circle cx="75.544" cy="492.375" r="18.144" fill="#51ddfc"/>
    <circle cx="67.194" cy="510.851" r="1.134" fill="#e5e4e3"/>
  </g>
  <g id="Hand_copy" data-name="Hand copy">
    <path d="m163.646 470.72.01-.07c.02-.153.054-.303.089-.454.054-.226.116-.451.154-.684a3.133 3.133 0 0 0-.072-1.169c-.113-.499-.226-.998-.346-1.494a5.164 5.164 0 0 0-.078-.331 32.55 32.55 0 0 0-.195-.827 5.51 5.51 0 0 0-.643-1.641 3.4 3.4 0 0 0-.314-.424 7.86 7.86 0 0 0-.868-.817c-.086-.072-.171-.14-.257-.216a9.054 9.054 0 0 1-.287-.242c.003-.024.003-.048.007-.072.01-.126.02-.256.027-.383a4.162 4.162 0 0 0-.037-.851 2.596 2.596 0 0 0-.428-1.09 1.631 1.631 0 0 0-.239-.27 2.125 2.125 0 0 0-.629-.383 2.216 2.216 0 0 0-.16-.059 4.184 4.184 0 0 0-.356-.095c-.516-.11-1.07-.13-1.566-.202a16.376 16.376 0 0 1-1.863-.386c-.454-.123-.906-.26-1.353-.407-.031.048-.062.1-.093.147a3.472 3.472 0 0 1-.178-.058l-.328-.113c-.762-.263-1.518-.554-2.273-.84-.123-.049-.246-.093-.373-.14-.12-.049-.239-.093-.359-.138a3.193 3.193 0 0 1-.177-.068 3.745 3.745 0 0 0-1.381-.315 1.292 1.292 0 0 0-1.026.513c.051.123-.007.29-.205.25a.088.088 0 0 1-.058-.061 3.705 3.705 0 0 0-.185.406q-.138.272-.287.534c-.014.02-.024.044-.037.065-.069.12-.14.235-.216.352-.12.191-.25.383-.383.567-.413.571-1.217 1.268-1.012 2.051a.084.084 0 0 1 .12.052c.062.198.127.396.199.591.085.246.18.485.287.721a11.672 11.672 0 0 0 2.352 3.5 1.512 1.512 0 0 0-.079.144c-.007.003-.007.007-.007.01a7.034 7.034 0 0 0 .455.437.678.678 0 0 0 .075.065 15.127 15.127 0 0 0 1.788 1.327c.127.085.253.167.38.25a3.7 3.7 0 0 1 .239.164c.04.027.082.058.12.085a5.752 5.752 0 0 1 .564.475 1.851 1.851 0 0 1 .143.14 7.201 7.201 0 0 1 1.17 1.511q.117.2.225.41a10.694 10.694 0 0 1 .598 1.395c.024.072.051.144.075.219.134.403.25.813.353 1.227.116.462.208.926.304 1.391.024.127.051.257.078.387a2.365 2.365 0 0 0 .113.403 1.077 1.077 0 0 0 .051.11.796.796 0 0 0 .503.437c.978.273 1.743-.7 1.99-1.518a4.805 4.805 0 0 0 .137-.591c.037-.207.062-.415.082-.622l.083.773a.869.869 0 0 0 .074.26c-.03-.055-.06-.11-.086-.165-.047-.1-.194-.014-.147.085.202.424.527.923 1.07.82.592-.112.923-.782 1.17-1.26.16-.315.31-.637.485-.94.16-.285.352-.544.537-.81a3.788 3.788 0 0 0 .642-1.225 2.81 2.81 0 0 0 .171.29 1.988 1.988 0 0 0 .263.312 1.153 1.153 0 0 0 1.204.37.597.597 0 0 0 .366-.626 2.826 2.826 0 0 0-.117-.503 1.564 1.564 0 0 1-.058-.332 1.435 1.435 0 0 1 0-.297.353.353 0 0 1 .003-.058Zm-5.972.782a.1.1 0 0 0 .007.03l-.01.018c-.123-.29-.264-.578-.404-.862-.12-.229-.236-.458-.352-.687-.085-.17-.17-.345-.26-.52-.143-.29-.287-.58-.434-.871-.085-.175-.174-.35-.26-.523-.072-.144-.157-.291-.236-.441a2.224 2.224 0 0 1-.212-.517c-.092-.386.233-.574.482-.79a2.058 2.058 0 0 0 .55-.776 2.092 2.092 0 0 0 .154-.577 1.47 1.47 0 0 0 .735.502.823.823 0 0 0 .246.575.844.844 0 0 0 .366.201.083.083 0 0 0-.01.065c.133.53.263 1.063.397 1.593a.679.679 0 0 0 .198.393 2.651 2.651 0 0 0-.496.95 5.436 5.436 0 0 0-.461 2.237Zm-.066-5.984c.017.016.038.029.055.045a.649.649 0 0 0 .064.265.649.649 0 0 1-.122-.308Zm1.213 2.694-.02.005a.316.316 0 0 1-.163-.185 2.453 2.453 0 0 1-.083-.303 2.054 2.054 0 0 0 .266.483Zm-.765 1.842-.013.003.025-.082Zm-.29 1.74c-.006-.019-.012-.037-.02-.056.006-.003.01-.01.013-.014l.002-.003c0 .024.004.049.006.072Zm4.432.075.022.038c-.014-.017-.026-.037-.04-.056Zm1.273-1.014a.18.18 0 0 0-.016-.053c.008-.014.012-.03.019-.044-.003.032-.002.065-.003.097Zm.231-2.13c-.002-.084-.012-.17-.02-.254q.035.165.056.332a.84.84 0 0 0-.036-.078Zm-14.875-7.055a3.54 3.54 0 0 0 .212.325 2.634 2.634 0 0 0 1.603 1.125c.044.013.092.024.14.034l-.12.147a1.811 1.811 0 0 1-.133-.034 2.763 2.763 0 0 1-.428-.15 2.819 2.819 0 0 1-1.018-.787 4.025 4.025 0 0 1-.404-.574.085.085 0 0 1 .148-.085Zm9.014 10.35a.152.152 0 0 0 .032.031v.073c-.009-.035-.022-.07-.032-.105Zm1.409 3.471a.883.883 0 0 1-.142.081l.019-.013a.177.177 0 0 0 .064-.033l.088-.075.005-.003q.035-.033.072-.063l.009-.011c.05-.048.1-.097.153-.141a.149.149 0 0 0 .053-.097l.07-.098.01-.011c.017-.024.031-.05.047-.073l.041-.06.005-.01.074-.116.085-.11a2.257 2.257 0 0 1-.653.833Zm4.307-5.25a1.119 1.119 0 0 0-.02-.135 2.323 2.323 0 0 0 .102-.316c.02-.042.036-.084.053-.125-.04.193-.09.385-.135.577Z" fill="#e59898"/>
    <path d="M156.72 464.668a.055.055 0 0 0-.051.004.086.086 0 0 0-.1.123c.008.01.014.024.02.034l-.006.028-.004.013a.079.079 0 0 0-.044.069l-.003.023c.017-.023.034-.044.05-.068l.025-.034v-.003a.06.06 0 0 0 .013-.018c.031-.037.055-.071.082-.109.007-.007.01-.014.018-.02v-.003l.02-.028a.03.03 0 0 0-.02-.01Zm.062-1.456a.873.873 0 0 0-.216-.157 1.987 1.987 0 0 0-.29-.116.963.963 0 0 1-.482-.298.574.574 0 0 0 .01-.331.088.088 0 0 0-.158-.02.396.396 0 0 0-.03.348.856.856 0 0 1-.705.346.815.815 0 0 1-.092.003c-.3.017-.598.017-.899.048q-.226.02-.451.051c-.513.062-1.026.137-1.545.154a4.738 4.738 0 0 1-1.142-.085 1.557 1.557 0 0 1-.14-.034 2.634 2.634 0 0 1-1.603-1.125 3.54 3.54 0 0 1-.212-.325.085.085 0 0 0-.147.085 4.025 4.025 0 0 0 .403.575 2.819 2.819 0 0 0 1.019.786 2.763 2.763 0 0 0 .427.15c.045.014.089.024.133.034a5.029 5.029 0 0 0 1.484.1c.308-.021.615-.055.92-.093a14.708 14.708 0 0 1 1.552-.144.415.415 0 0 0 .065-.003 1.45 1.45 0 0 0 .848-.185.718.718 0 0 0 .178-.174.8.8 0 0 0 .105.11 2.532 2.532 0 0 0 .599.263.651.651 0 0 1 .25.16c.074.079.194-.04.119-.123Zm2.43-2.882a.556.556 0 0 0-.065-.061 1.58 1.58 0 0 0-.62-.321 3.373 3.373 0 0 0-.488-.113h-.003a3.757 3.757 0 0 1-1.166-.301c-.096-.051-.185.096-.085.15a3.39 3.39 0 0 0 1.08.284 4.9 4.9 0 0 1 .505.1h.004a1.655 1.655 0 0 1 .222.068 1.434 1.434 0 0 1 .53.355 2.921 2.921 0 0 1 .397.534 1.356 1.356 0 0 0 .133-.117 2.828 2.828 0 0 0-.444-.578Zm.957-.646a2.125 2.125 0 0 0-.63-.382 2.216 2.216 0 0 0-.16-.059 4.184 4.184 0 0 0-.355-.095c-.517-.11-1.07-.13-1.566-.202a16.376 16.376 0 0 1-1.863-.386 27.014 27.014 0 0 1-2.044-.646c-.701-.243-1.395-.51-2.089-.77l-.349-.133c-.16-.061-.318-.123-.478-.181l-.028-.01a3.483 3.483 0 0 0-1.767-.338 1.383 1.383 0 0 0-.91.546.225.225 0 0 0-.143.021c-.102.044-.123.167-.167.26a8.93 8.93 0 0 1-.199.407c-.12.232-.242.461-.38.683-.02.038-.043.072-.064.106q-.056.093-.123.185c-.287.441-.619.844-.926 1.268a1.641 1.641 0 0 0-.418 1.405.083.083 0 0 0 .12.052c.069.229.144.45.226.673s.17.444.263.66a11.961 11.961 0 0 0 2.11 3.244c.099.113.205.222.314.332a7.034 7.034 0 0 0 .455.437.678.678 0 0 0 .075.065 15.127 15.127 0 0 0 1.788 1.326c.126.086.253.168.379.25a3.7 3.7 0 0 1 .24.165c.04.027.081.058.12.085a5.752 5.752 0 0 1 .563.475.504.504 0 0 0 .045-.03l.11-.072a3.96 3.96 0 0 0-.312-.277c-.034-.028-.065-.055-.1-.082-.04-.035-.084-.065-.13-.1-.06-.047-.125-.092-.19-.136-.195-.137-.397-.263-.599-.393-.153-.096-.31-.192-.465-.294a11.024 11.024 0 0 1-1.155-.875l-.092-.082a12.197 12.197 0 0 1-.646-.616 11.672 11.672 0 0 1-2.352-3.5 8.81 8.81 0 0 1-.287-.721 12.1 12.1 0 0 1-.199-.592.084.084 0 0 0-.12-.05c-.205-.784.598-1.48 1.012-2.052.133-.185.263-.376.383-.567a7.55 7.55 0 0 0 .215-.352c.014-.02.024-.045.038-.065q.149-.262.287-.534a3.705 3.705 0 0 1 .185-.407.088.088 0 0 0 .058.062c.198.041.256-.126.205-.25a1.292 1.292 0 0 1 1.025-.513 3.745 3.745 0 0 1 1.382.315c.058.024.12.048.177.068.12.045.24.09.36.137.126.048.249.092.372.14.755.287 1.51.578 2.273.84l.328.114a21.82 21.82 0 0 0 1.545.468c.383.106.77.195 1.16.273.478.093.956.161 1.438.212.23.024.462.052.69.093.14.023.28.054.417.092.062.017.124.037.182.058a.99.99 0 0 1 .106.044 1.702 1.702 0 0 1 .8.646c.034-.058.068-.116.099-.174a1.631 1.631 0 0 0-.239-.27Z" fill="#dda38e"/>
    <path d="M158.022 473.17a1.939 1.939 0 0 1 0 .202.492.492 0 0 1 0 .072c0 .037-.003.071-.003.109v.014a8.353 8.353 0 0 1-.116 1.08 4.805 4.805 0 0 1-.137.591c-.246.817-1.012 1.791-1.99 1.518a.796.796 0 0 1-.502-.438 1.077 1.077 0 0 1-.052-.11 2.365 2.365 0 0 1-.112-.403c-.028-.13-.055-.26-.08-.386-.095-.465-.187-.93-.303-1.391a16.816 16.816 0 0 0-.352-1.227c-.024-.076-.052-.147-.076-.22a10.694 10.694 0 0 0-.598-1.394q-.108-.21-.225-.41a7.201 7.201 0 0 0-1.17-1.51 1.851 1.851 0 0 0-.143-.14 5.752 5.752 0 0 0-.564-.476c-.038-.027-.079-.058-.12-.085a3.7 3.7 0 0 0-.24-.165c-.126-.082-.252-.164-.379-.25a15.127 15.127 0 0 1-1.788-1.326.678.678 0 0 1-.075-.065 7.222 7.222 0 0 1-.455-.437 7.096 7.096 0 0 1-.314-.332 11.961 11.961 0 0 1-2.11-3.244c-.092-.215-.18-.438-.262-.66s-.158-.444-.226-.673l-.003-.014a.075.075 0 0 1 .044-.096.084.084 0 0 1 .12.051c.062.199.126.397.198.592.086.246.181.485.287.721a11.672 11.672 0 0 0 2.352 3.5c.209.212.424.42.646.616l.093.082a11.024 11.024 0 0 0 1.155.875c.154.102.311.198.465.294.202.13.403.256.598.393.065.044.13.089.192.137.044.034.089.064.13.099l.099.082a3.96 3.96 0 0 1 .31.277 7.503 7.503 0 0 1 1.426 1.876.83.83 0 0 1 .048.096 10.618 10.618 0 0 1 .657 1.484 15.522 15.522 0 0 1 .444 1.504c.116.454.212.912.304 1.37.017.103.038.206.058.308a2.87 2.87 0 0 0 .113.465c.017.045.034.086.055.127a.65.65 0 0 0 .102.15.776.776 0 0 0 .729.205c.888-.147 1.264-.978 1.439-1.801a7.51 7.51 0 0 0 .123-.81c.013-.144.027-.288.034-.435.003-.068.003-.14.003-.212a3.88 3.88 0 0 0-.126-1.138 5.17 5.17 0 0 0-.325-.855l-.072-.147c-.068-.147-.143-.29-.215-.434-.041-.082-.079-.16-.12-.239-.15-.297-.3-.598-.448-.896l-.376-.755-.082-.157c-.167-.332-.349-.66-.506-.998a3.538 3.538 0 0 1-.14-.312.935.935 0 0 1-.037-.085.269.269 0 0 1-.018-.048c-.157-.434.055-.714.39-.991a2.151 2.151 0 0 0 .5-.575 1.852 1.852 0 0 0 .256-.758l.003-.024a.079.079 0 0 1 .045-.069.039.039 0 0 1 .027-.01h.004l.01-.003a.073.073 0 0 1 .085.082.031.031 0 0 1-.003.017v.01a.043.043 0 0 1-.004.02 2.092 2.092 0 0 1-.154.578 2.058 2.058 0 0 1-.55.776c-.25.216-.574.404-.482.79a2.224 2.224 0 0 0 .212.516c.079.15.164.298.236.441l.26.523c.147.291.29.582.434.872.09.175.175.349.26.52.117.23.233.458.352.687.14.284.28.571.404.862.027.061.051.126.075.188a.942.942 0 0 1 .034.089 4.122 4.122 0 0 1 .242 1.343Z"/>
    <path d="M160.873 461.896c-.006.127-.017.257-.027.383-.003.024-.003.048-.007.072a.178.178 0 0 1-.048.102.08.08 0 0 1-.058.024.088.088 0 0 1-.061-.024.047.047 0 0 0-.014-.01.066.066 0 0 1-.024-.05.114.114 0 0 1 .024-.073l.01-.01c.007-.006.01-.01.017-.01a.53.53 0 0 0 .007-.082c0-.068-.003-.147 0-.17l.01-.15c.007-.15.01-.305.004-.455a2.922 2.922 0 0 0-.171-.872 1.917 1.917 0 0 0-.226-.441 1.702 1.702 0 0 0-.8-.646.99.99 0 0 0-.106-.044 2.885 2.885 0 0 0-.181-.059 4.312 4.312 0 0 0-.417-.092 9.579 9.579 0 0 0-.69-.092 17.35 17.35 0 0 1-1.44-.212c-.39-.079-.775-.168-1.158-.274a22.161 22.161 0 0 1-1.545-.468l-.329-.113c-.762-.263-1.517-.553-2.273-.84-.123-.048-.246-.093-.372-.14-.12-.048-.24-.093-.36-.137a3.193 3.193 0 0 1-.177-.069 3.745 3.745 0 0 0-1.381-.314 1.292 1.292 0 0 0-1.026.513c.052.123-.007.29-.205.25a.088.088 0 0 1-.058-.062 3.705 3.705 0 0 0-.185.407q-.138.272-.287.533c-.013.02-.024.045-.037.065-.069.12-.14.236-.216.352-.12.192-.25.383-.382.568-.414.57-1.217 1.268-1.012 2.05l.003.014a.075.075 0 0 1-.044.096.083.083 0 0 1-.12-.051 1.641 1.641 0 0 1 .417-1.405c.307-.424.639-.827.926-1.268q.067-.093.123-.185c.02-.034.045-.068.065-.106.137-.222.26-.451.38-.684.068-.133.136-.27.198-.407.044-.092.065-.215.167-.26a.225.225 0 0 1 .144-.02 1.383 1.383 0 0 1 .91-.547 3.483 3.483 0 0 1 1.767.338l.027.01c.16.059.318.12.479.182l.348.133c.694.26 1.388.526 2.089.77a26.806 26.806 0 0 0 2.044.646 16.376 16.376 0 0 0 1.863.386c.496.071 1.05.092 1.566.201.12.028.239.058.355.096.055.017.11.038.16.058a2.125 2.125 0 0 1 .63.383 1.631 1.631 0 0 1 .24.27 2.596 2.596 0 0 1 .427 1.09 4.162 4.162 0 0 1 .037.85Z"/>
    <path d="M163.642 470.777a1.435 1.435 0 0 0 0 .298 1.564 1.564 0 0 0 .059.331 2.826 2.826 0 0 1 .116.503.597.597 0 0 1-.366.625 1.153 1.153 0 0 1-1.203-.369 1.988 1.988 0 0 1-.264-.31 2.81 2.81 0 0 1-.17-.292c-.035-.068-.062-.136-.09-.205a.487.487 0 0 1-.027-.075v-.007a4.563 4.563 0 0 1-.208-1.678 2.194 2.194 0 0 1 .253-1.285l.01-.014a.168.168 0 0 1-.052-.034.443.443 0 0 1-.078-.082l-.007-.01a.216.216 0 0 1-.027-.048.03.03 0 0 1-.01-.024 2.314 2.314 0 0 1-.147-.386c-.079-.209-.154-.417-.23-.626a3.802 3.802 0 0 1-.328-1.333.223.223 0 0 1-.256-.055 4.221 4.221 0 0 1-.612-.646q-.056-.066-.102-.133c-.031-.034-.055-.072-.082-.106a5.83 5.83 0 0 1-.766-1.422c-.017-.045-.034-.09-.048-.134a5.605 5.605 0 0 1-.198-.71c-.02-.11.143-.154.167-.048a6.01 6.01 0 0 0 .192.697.787.787 0 0 0 .034.096 5.483 5.483 0 0 0 .533 1.093 5.624 5.624 0 0 0 .366.517q.118.149.246.287a1.685 1.685 0 0 0 .366.366c.082.037.154-.024.212-.117a1.015 1.015 0 0 1 .157-.3c.065-.086.205-.01.15.088-.041.072-.085.175-.14.274a1.871 1.871 0 0 0 .13 1.135c.092.267.191.533.287.796.051.144.103.287.157.431a.876.876 0 0 0 .076.16v.004a.389.389 0 0 0 .14.154.621.621 0 0 1 .17-.089.085.085 0 0 1 .096.123.276.276 0 0 1-.201.127.734.734 0 0 0-.1.11 1.41 1.41 0 0 0-.174.69 8.989 8.989 0 0 0 .007 1.25 3.39 3.39 0 0 0 .144.725c.013.048.027.092.044.14v.007a.25.25 0 0 0 .014.03 2.091 2.091 0 0 0 .492.78 1.306 1.306 0 0 0 .461.284c.284.102.722.088.804-.277a2.193 2.193 0 0 0-.15-.872.994.994 0 0 1-.025-.168 2.342 2.342 0 0 1 .01-.31c.004-.052.01-.1.017-.15.01-.072.024-.144.038-.22a4.977 4.977 0 0 0 .226-1.432 8.794 8.794 0 0 0-.243-1.186c-.062-.26-.123-.523-.181-.783-.028-.113-.055-.222-.079-.335-.007-.024-.01-.048-.017-.072a8.595 8.595 0 0 0-.687-2.215 2.047 2.047 0 0 0-.188-.294 5.752 5.752 0 0 0-1.067-1.09l-.39-.328a3.77 3.77 0 0 1-.17-.15 1.192 1.192 0 0 1-.1-.086 5.017 5.017 0 0 1-.745-.8c-.13-.18-.243-.376-.366-.567a2.921 2.921 0 0 0-.396-.533 1.434 1.434 0 0 0-.53-.356 1.655 1.655 0 0 0-.222-.068h-.004a4.9 4.9 0 0 0-.506-.1 3.39 3.39 0 0 1-1.08-.283c-.099-.055-.01-.202.086-.15a3.757 3.757 0 0 0 1.165.3h.004a3.373 3.373 0 0 1 .489.113 1.58 1.58 0 0 1 .618.321.556.556 0 0 1 .065.062 2.828 2.828 0 0 1 .445.577c.058.093.113.182.167.274a4.711 4.711 0 0 0 .814.988.728.728 0 0 0 .055.048c.047.048.099.092.146.133.096.086.192.164.288.243.085.075.17.143.256.215a7.86 7.86 0 0 1 .868.817 3.4 3.4 0 0 1 .315.424 5.51 5.51 0 0 1 .642 1.64c.069.274.134.55.195.828.031.11.055.219.079.332.12.495.232.995.345 1.494a3.133 3.133 0 0 1 .072 1.169c-.038.232-.1.458-.154.684-.034.15-.068.3-.089.454l-.01.069a.353.353 0 0 0-.003.057Z"/>
    <path d="M160.419 468.149c-.366-.12-.438.359-.458.605l-.052.786c-.017.263-.037.526-.054.79-.007.13-.024.263-.024.396a.518.518 0 0 0 .089.322.715.715 0 0 1 .212-.014.087.087 0 0 1 .044.16.267.267 0 0 1-.28.035c-.427.137-.574.752-.766 1.11a3.454 3.454 0 0 1-.888 1.088.389.389 0 0 0-.045.034.082.082 0 0 1-.072.017h-.003a.082.082 0 0 1-.068-.106.095.095 0 0 1 .024-.03 3.574 3.574 0 0 0 1.056-1.406 1.571 1.571 0 0 1 .622-.83.448.448 0 0 1-.089-.192 2.789 2.789 0 0 1 .017-.584c.017-.236.031-.472.048-.704l.051-.75a2.034 2.034 0 0 1 .072-.536.536.536 0 0 1 .441-.372 10.26 10.26 0 0 1-.69-1.792c-.103-.372-.274-1.005.184-1.213.1-.045.188.102.086.147-.448.205-.12.995-.017 1.32a9.943 9.943 0 0 0 .656 1.592c.03.065-.024.15-.096.127ZM161.878 471.198a.194.194 0 0 1-.01.061v.007a1.427 1.427 0 0 1-.054.297 3.788 3.788 0 0 1-.643 1.224c-.185.267-.376.527-.537.81-.174.305-.324.626-.485.94-.246.479-.578 1.149-1.17 1.262-.543.102-.867-.397-1.07-.82-.047-.1.1-.185.148-.086.229.479.629.998 1.193.598a3.653 3.653 0 0 0 .954-1.446 10.665 10.665 0 0 1 .861-1.398 3.047 3.047 0 0 0 .633-1.364v-.007a.55.55 0 0 0 .01-.078.09.09 0 0 1 .116-.079.07.07 0 0 1 .054.079Z"/>
    <path d="M159.137 468.442a1.378 1.378 0 0 1-.335-.037 1.09 1.09 0 0 0-.356.54c-.11.27-.215.54-.31.814a4.857 4.857 0 0 0-.295 1.555c0 .048 0 .096.004.144v.044c.006.103-.13.11-.164.03a.1.1 0 0 1-.007-.03 5.436 5.436 0 0 1 .461-2.236 2.651 2.651 0 0 1 .496-.95.679.679 0 0 1-.198-.393c-.134-.53-.264-1.063-.397-1.593a.083.083 0 0 1 .01-.065.844.844 0 0 1-.366-.201.823.823 0 0 1-.246-.575 1.47 1.47 0 0 1-.735-.502.102.102 0 0 1-.017-.024l-.003-.004c-.02-.024-.038-.051-.058-.078v-.004l-.01-.017h-.004v-.003a.202.202 0 0 1-.017-.028l-.02-.034a.086.086 0 0 1 .1-.123.073.073 0 0 1 .05.034v.004l.018.027a.34.34 0 0 0 .037.058.12.12 0 0 0 .017.028 1.271 1.271 0 0 0 .657.488.893.893 0 0 1 .099-.287c.037-.068.167-.044.157.045-.01.123-.024.246-.034.372a.092.092 0 0 1-.065.079.668.668 0 0 0 .813.574l.206-.082.013-.007a.05.05 0 0 0 .02-.006c.093-.038.144.106.065.157a.9.9 0 0 1-.273.11l-.23.091.278 1.111a5.44 5.44 0 0 0 .14.565.316.316 0 0 0 .164.184.403.403 0 0 1 .38.065.087.087 0 0 1-.045.16ZM156.662 463.335a.651.651 0 0 0-.25-.16 2.532 2.532 0 0 1-.598-.264.8.8 0 0 1-.106-.109.718.718 0 0 1-.178.174 1.45 1.45 0 0 1-.848.185.415.415 0 0 1-.065.003 14.708 14.708 0 0 0-1.552.144c-.304.038-.612.072-.92.092a5.029 5.029 0 0 1-1.483-.099 1.811 1.811 0 0 1-.134-.034 2.763 2.763 0 0 1-.427-.15 2.819 2.819 0 0 1-1.019-.786 4.025 4.025 0 0 1-.403-.575.085.085 0 0 1 .147-.085 3.54 3.54 0 0 0 .212.325 2.634 2.634 0 0 0 1.603 1.124c.045.014.092.024.14.035a4.738 4.738 0 0 0 1.142.085c.52-.017 1.032-.092 1.545-.154q.226-.03.451-.051c.301-.03.598-.03.9-.048a.815.815 0 0 0 .092-.003.856.856 0 0 0 .704-.346.396.396 0 0 1 .03-.348.088.088 0 0 1 .158.02.574.574 0 0 1-.01.331.963.963 0 0 0 .482.298 1.987 1.987 0 0 1 .29.116.873.873 0 0 1 .216.157c.076.082-.044.202-.12.123ZM155.11 467.619a.075.075 0 0 1-.044.071l-1.005.513c-.1.048-.185-.099-.086-.15.318-.16.64-.321.957-.485.017-.007.031-.017.048-.024a.09.09 0 0 1 .13.075ZM157.212 471.666c-.4.191-.8.386-1.2.578-.095.048-.184-.1-.085-.147.328-.157.656-.318.984-.475l.216-.103a.077.077 0 0 1 .085.007.078.078 0 0 1 0 .14Z"/>
    <path d="m157.414 471.348-.014.01c-.061.058-.126.113-.188.168-.051.048-.106.092-.157.137a.087.087 0 0 1-.123 0 .049.049 0 0 1-.02-.041.083.083 0 0 1 .02-.08c.123-.105.243-.211.362-.314a.048.048 0 0 1 .035-.017.075.075 0 0 1 .085.017.083.083 0 0 1 0 .12ZM155.441 467.42l-.006.01a.554.554 0 0 1-.325.188.49.49 0 0 1-.1.01.084.084 0 0 1-.078-.061.05.05 0 0 1-.007-.024.087.087 0 0 1 .086-.086l.051-.003h.003l.007-.004c.007 0 .014-.003.024-.003l.045-.014c.003-.003.013-.003.02-.007l.01-.006a.288.288 0 0 0 .044-.024l.02-.01.007-.007.007-.004.003-.003.027-.027a.3.3 0 0 0 .031-.035.07.07 0 0 1 .075-.023.091.091 0 0 1 .048.023.087.087 0 0 1 .008.11ZM157.475 476.288a3.986 3.986 0 0 0 .131-.862 1.719 1.719 0 0 0-.01-.31c-.01-.074-.028-.146-.044-.22a3.146 3.146 0 0 1-.071-.554.347.347 0 0 1 .018-.15.231.231 0 0 1 .278-.11.384.384 0 0 1 .223.224 1.24 1.24 0 0 1 .071.318 2.5 2.5 0 0 0 .47 1.29l-.028.36a24.158 24.158 0 0 1 1.427 4.774 11.267 11.267 0 0 1 .235 2.227c-.008.736-.128 1.47-.086 2.205a11.397 11.397 0 0 0 .787 3.025 29.888 29.888 0 0 1 1.728 8.339 1.318 1.318 0 0 1-.123.767c-.27.435-.897.42-1.405.354l-1.662-.218a2.494 2.494 0 0 1-1.278-.414 2.29 2.29 0 0 1-.595-.905 14.152 14.152 0 0 1-1.118-4.477 3.263 3.263 0 0 1 .526-2.428l-.062-.065 1.647-1.21a1.576 1.576 0 0 0 .474-.465 1.2 1.2 0 0 0-.605-1.486c-.508-.305-1.118-.391-1.65-.65a4.53 4.53 0 0 1-2.03-2.625 7.492 7.492 0 0 1-.204-5.227 1.27 1.27 0 0 1 .378-.586 1.43 1.43 0 0 1 .53-.21l1.992-.49Z"/>
    <path d="M159.313 489.184a3.644 3.644 0 0 0-1.612 1.331 3.264 3.264 0 0 0-.224 1.832c.086.939.255 1.867.424 2.793a2.71 2.71 0 0 0 .52 1.366 2.44 2.44 0 0 0 1.047.6 1.91 1.91 0 0 0 1.117.135c.739-.203 1.004-1.112 1.034-1.877a16.165 16.165 0 0 0-.923-5.134 1.622 1.622 0 0 0-.535-.944" fill="#00f"/>
    <path d="M157.902 477.227c.338.055.496.442.584.773a22.112 22.112 0 0 1 .732 6.367c-.014.453-.094.99-.5 1.192a.957.957 0 0 1-.541.069 2.885 2.885 0 0 1-2.021-1.736 14.075 14.075 0 0 1-1.098-3.82 2.607 2.607 0 0 1 .346-2.395c.58-.553 2.498-.45 2.498-.45Z" fill="#ff0074"/>
    <path d="M158.651 471.522a.087.087 0 0 1-.116.031.683.683 0 0 0-.321-.048 1.352 1.352 0 0 1-.352-.027l-.014-.003h-.003a.092.092 0 0 1-.045-.035.09.09 0 0 1 .041-.126.073.073 0 0 1 .055-.003 1.377 1.377 0 0 0 .355.023.81.81 0 0 1 .37.072.082.082 0 0 1 .03.116Z"/>
    <path d="M157.865 471.567c-.034.051-.072.102-.106.157-.003.004-.007.01-.013.014a.09.09 0 0 1-.038.024.094.094 0 0 1-.068-.007.112.112 0 0 1-.038-.051.096.096 0 0 1 .007-.069c.02-.027.04-.058.061-.085l.01-.017c.014-.017.024-.034.038-.052a.087.087 0 0 1 .051-.04.048.048 0 0 1 .03 0 .1.1 0 0 1 .035.01l.01.006v.004c.007 0 .014.01.017.017a.037.037 0 0 1 .01.024.086.086 0 0 1-.006.065ZM158.241 473.427v.013a.048.048 0 0 1-.01.031.057.057 0 0 1-.013.024.235.235 0 0 1-.024.038l-.014.013a.21.21 0 0 1-.034.024.121.121 0 0 1-.058.014h-.02c-.007 0-.014-.004-.02-.004a.201.201 0 0 1-.028-.013l-.007-.004a.117.117 0 0 1-.04-.04l-.008-.018a.026.026 0 0 1-.006-.017.067.067 0 0 1-.004-.027.095.095 0 0 1 .004-.031.142.142 0 0 1 .024-.038.058.058 0 0 0 .017-.013.064.064 0 0 1 .024-.007.048.048 0 0 1 .03 0h.01l.024.01a.076.076 0 0 1 .045-.034.093.093 0 0 1 .068.007.079.079 0 0 1 .024.023.068.068 0 0 1 .014.028.043.043 0 0 1 .002.02ZM156.792 464.815v.065a.068.068 0 0 1-.014.045l-.013.017a.067.067 0 0 1-.038.02.043.043 0 0 1-.02.003h-.004c-.006 0-.01 0-.013-.003h-.007l-.004-.003h-.006a.072.072 0 0 1-.045-.045.057.057 0 0 1-.007-.034v-.065a.082.082 0 0 1 .01-.041.07.07 0 0 0 .014-.02.081.081 0 0 1 .038-.02c.006 0 .013-.004.02-.004h.003a.1.1 0 0 1 .03.007.054.054 0 0 1 .028.017l.017.017v.004l.004.01a.082.082 0 0 1 .007.03Z"/>
    <path d="M156.782 464.771v.003a.048.048 0 0 0-.007.021l-.028.106a.074.074 0 0 1-.037.051l-.007.004-.014.007h-.007a.07.07 0 0 1-.037 0 .102.102 0 0 1-.052-.041.046.046 0 0 1-.01-.028.059.059 0 0 1-.003-.024l.004-.013.006-.028.024-.102a.099.099 0 0 1 .041-.052l.014-.003a.055.055 0 0 1 .051-.004.03.03 0 0 1 .02.01.06.06 0 0 1 .031.028.109.109 0 0 1 .01.065Z"/>
  </g>
  <path fill="#f1f1f1" d="M118 439.366 140 433l-32.5-81.908-30-2.834 40.5 91.108z"/>
  <path d="M106 472s14 21 28 32c0 0-28 34-36 56 0 0 11 1.346 16 11.173 0 0-2-5.947 36-51.56l6-6.613s4-9 1-13l-16.61-36.022-15.979-21.428-16.455 2.363Z" stroke-width=".25" stroke="#000" stroke-miterlimit="10" fill="#0b6fb7"/>
  <path stroke-width=".5" fill="#fffcf3" stroke="#000" stroke-miterlimit="10" d="m140.39 463.979 3.268 2.021L150 454.859l-1.919-2.068-7.691 11.188z"/>
  <path fill="#d4977a" d="M96.291 337.57 98 341l-1.709 7.947L78 343.258l-1.288-2.758 2.788-1 16.791-1.93z"/>
  <path fill="#fbb38f" d="m79.5 339.5 8 1 15-5-2-12 3-1-12-14.814L82 306l-8.5 5.5 2 24 4 4z"/>
  <path d="m76.712 340.5 2.788-1-1.394-8.005v-3.29l10.394-1.722-1-4.983-1-4v-4l-3-2s-1.104-2.628-.052-3.814 8.052 0 8.052 0l-1-7.186-13.788-1.742s-32.787 5.742 0 41.742Z" fill="#221d1a"/>
  <path d="M84.5 331.5a4.072 4.072 0 0 0 2-3c.088-2.303-5-6-5-6h-3.848a2.895 2.895 0 0 0 0 3.983C79.5 328.5 83 332 84.5 331.5Z" fill="#fbb38f" stroke-width=".25" stroke="#000" stroke-miterlimit="10"/>
  <path d="M83.67 330.156a65.11 65.11 0 0 1-5.19-4.596 1.538 1.538 0 0 1-.212-1.983h2.49l4.38 5.111Z" fill="#d09879"/>
  <path fill="#011e2e" d="M120.514 432.844 136 429l4 4-20 5.643-4-4.161 4.514-1.638z"/>
  <path fill="#7c7c7c" d="m122 432 6.058-1.413L130 437l-5.589.935L122 432z"/>
  <path d="M76.82 346.092 70 357l-7.86 20.99 11.36 21.488 8.575 78.68L109 469s5-3 5-7-5.343-49.875-5.343-49.875L93 375l-14-21Z" fill="#0071bd"/>
  <path d="m70 357-13 9-6 13s-2 8 6 19 29 32 29 32l53 36 11-16-36-22.167-25.93-36.551-14.57-20.601" fill="#0073c3" stroke-width=".25" stroke="#000" stroke-miterlimit="10"/>
  <path d="M137.455 436.223 160 444s1.519 1.1 4.26-1.45l.885-6.327L143 427l-18-58-9-21-3.577-1.908-12.034 1.936 1.435 8.972L122 397l9 25Z" stroke-width=".25" stroke="#000" stroke-miterlimit="10" fill="#0072bd"/>
  <path class="cls-28" d="m101.329 348.947 5.671 1.221-1.834 5.789L112 356l12.411 47.698L122 397l-20.176-40-.495-8.053z"/>
  <path fill="#0080cb" d="m88.5 448.877 13.324-8.129-6.662-4.525-10.207 6.327 3.545 6.327z"/>
  <path class="cls-28" d="M75.035 348.947 71 359l5.82 1.048-3.32 3.101 35.158 48.976L93 375l-17.965-26.053z"/>
  <path d="M124.202 431.368s-22.55-72.312-25.126-72.59" fill="none" stroke-width=".5" stroke="#000" stroke-miterlimit="10"/>
  <circle class="cls-31" cx="104.25" cy="376.25" r=".75"/>
  <circle class="cls-31" cx="108.25" cy="387.25" r=".75"/>
  <circle class="cls-31" cx="111.25" cy="397.25" r=".75"/>
  <circle class="cls-31" cx="115.25" cy="410.25" r=".75"/>
  <circle class="cls-31" cx="119.25" cy="422.25" r=".75"/>
  <path d="m99 348.484.076 10.294s5.233 34.966 61.152 22.592l-4.137 9.427s-45.968 17.2-59.556-32.056l-8.36-3.52Z" fill="#d7382a"/>
  <path fill="#fefefc" d="m75.035 348.947 18.354 13.316L96 351l11 8-9.486-15.742-1.223 5.689L78 343.258l-2.965 5.689z"/>
  <path fill="url(#linear-gradient-2)" d="M91.018 313.509 736 128.604v76.203L93.401 317.635l-2.383-4.126z"/>
</svg>