<svg id="Artboard" xmlns="http://www.w3.org/2000/svg" width="736" height="80" viewBox="0 0 736 80"><defs><style>.cls-1,.cls-13,.cls-15,.cls-6,.cls-7{fill:none;}.cls-1{stroke:#d9666d;stroke-width:2px;}.cls-1,.cls-11,.cls-15,.cls-6,.cls-9{stroke-miterlimit:10;}.cls-2{fill:#d9666d;}.cls-3{fill:#ffffb6;}.cls-4{fill:#9bce06;}.cls-5{fill:#58720a;}.cls-6,.cls-7{stroke:#080017;}.cls-6,.cls-7,.cls-9{stroke-width:0.6369px;}.cls-13,.cls-7{stroke-linecap:round;stroke-linejoin:round;}.cls-8{fill:#485908;}.cls-9{fill:#fff;}.cls-11,.cls-13,.cls-15,.cls-9{stroke:#000;}.cls-10{fill:#080017;}.cls-11{fill:#9b9ba9;stroke-width:0.1592px;}.cls-12{fill:#3a3b3a;}.cls-13{stroke-width:0.3185px;}.cls-14{opacity:0.51;}.cls-15{stroke-width:0.7784px;}</style></defs><g id="Frog"><g id="tongue"><line id="tongueLine" class="cls-1" x1="88.027" y1="29.8991" x2="688.4844" y2="20.0102"/><ellipse id="tongueEnd" class="cls-2" cx="694.2471" cy="18.3252" rx="6.5232" ry="3.6389" transform="translate(11.9589 147.9313) rotate(-12.2677)"/><path id="tongueStart" class="cls-2" d="M90.8117,29.3347s-4.3425-1.3164-6.1246-.4584-5.5329,2.4854-9.2016.8467,7.75,8.9215,12.8317,6.4135h0a3.738,3.738,0,0,1,2.4945-5.28C95.0676,29.4953,90.8117,29.3347,90.8117,29.3347Z"/></g><path class="cls-3" d="M96.7021,38.7887a1.0319,1.0319,0,0,0-.488-.8937,1.0086,1.0086,0,0,0-.5605-.1388,1.6963,1.6963,0,0,0-.992-.38c-.0236-.0016-.0469-.0045-.0705-.0062a4.6851,4.6851,0,0,0-.7758-.0684,29.675,29.675,0,0,1-6.7238-1.5012,1.5617,1.5617,0,0,0-.7057-.0777,34.0921,34.0921,0,0,1-10.9-6c-1.482-1.2194-3.5811.7061-2.4828,2.0225-.0085.0259-.014.0546-.0213.0817a1.5128,1.5128,0,0,0-1.0144,1.43,9.1418,9.1418,0,0,0,.4881,3.0342,1.66,1.66,0,0,0,.2495.4639l.01.0457a1.3525,1.3525,0,0,0,.3036.6067c.1166.5.226,1.0018.332,1.504a1.402,1.402,0,0,0,.0027.34c.0181.1414.04.2819.0582.4231l-.0013,0,.0059.0326c.2658,1.9912.5954,3.9666,1.0218,5.9313a1.4342,1.4342,0,0,0,.1061.3123l.0311.1723a16.5326,16.5326,0,0,0-1.2567,3.2036,25.581,25.581,0,0,0-1.441,3.81q-3.5883,2.6013-6.9851,5.4556a1.7254,1.7254,0,0,0-2.8555-.0426,1.5693,1.5693,0,0,0-1.0682.4133,1.6057,1.6057,0,0,0-2.6125.0088,1.2684,1.2684,0,0,0-.1582.0636,1.7367,1.7367,0,0,0-1.2614.0676,1.5749,1.5749,0,0,0-1.7035.9533,1.579,1.579,0,0,0-.7371.652c-.014.023-.0269.0466-.0409.07-.0348.0016-.0691.0034-.104.0068a1.53,1.53,0,0,0-2.7231-.0912,10.6511,10.6511,0,0,0-1.1779,3.852,10.0786,10.0786,0,0,1-.916,1.3117,1.6227,1.6227,0,0,0,.3222,2.501,7.3866,7.3866,0,0,0,3.9771,1.05c.6951.0213,1.3992-.0178,2.0918.0541a8.3906,8.3906,0,0,1,2.15.736c1.4879.5479,2.8611-.3865,4.1673-1.0182,1.2646-.6116,2.83-1.0887,3.7384-2.2006a5.8762,5.8762,0,0,0,.5612-.3185,1.6589,1.6589,0,0,0,.7011-1.9178c1.0851-.7372,2.2713-1.3207,3.4058-1.9873a16.3009,16.3009,0,0,0,4.03-3.3069,95.0272,95.0272,0,0,0,7.0887-9.4086,1.4018,1.4018,0,0,0,.1575-.3095A16.6828,16.6828,0,0,0,88.66,46.4132a1.2771,1.2771,0,0,0,.51-.9635c.3009-.2046.6356-.4015.7863-.5222.4313-.3455.8549-.7006,1.2666-1.0693a31.599,31.599,0,0,0,2.7047-2.7615,1.7794,1.7794,0,0,0,.3027-.4985c.1438-.0122.2871-.0234.4314-.0367a1.6122,1.6122,0,0,0,1.3993-.9716A.8628.8628,0,0,0,96.7021,38.7887Z"/><path class="cls-4" d="M90.7293,67.8153a9.4751,9.4751,0,0,0,1.8277-.235,12.4373,12.4373,0,0,1,3.8566-.161.706.706,0,0,0,.4969-.1056.5245.5245,0,0,0,.5434.2931l.67-.05a.64.64,0,0,0,.1693-1.2511,13.5813,13.5813,0,0,0-5.1306-.6611c-.8732-.0161-1.7494.0148-2.6218-.0151-.87-.03-1.6962-.3544-2.5711-.3544a.6481.6481,0,0,0-.2469.0478,2.0441,2.0441,0,0,0-.5125-.1725c-3.0751-2.412-7.6329-2.9444-11.4091-3.204a6.4966,6.4966,0,0,0-1.8091.103,2.4073,2.4073,0,0,0-2.0286-.319,1.2969,1.2969,0,0,0,.5857-1.176,18.27,18.27,0,0,0-.9133-5.8457c-.1028-.3027-.2126-.6153-.3326-.9287a1.2381,1.2381,0,0,0,.7852-.66l.7051-1.3742a1.6062,1.6062,0,0,0,.1134-.1275,7.9761,7.9761,0,0,0,1.3051-2.6979,1.3143,1.3143,0,0,0-.0043-.7428,1.7228,1.7228,0,0,0,.0788-.5772,14.4743,14.4743,0,0,0,.1164-7.2941,2.0171,2.0171,0,0,0,.1549-1.1094,44.7085,44.7085,0,0,0-1.0748-4.7787,7.0961,7.0961,0,0,0-.3667-1.165,9.2429,9.2429,0,0,0,.3607-1.0414l.8905-2.9376c.2309-.1475.4927-.3356.7415-.52a16.604,16.604,0,0,0,9.55-2.8371,1.48,1.48,0,0,0,.7264-.39l.72-.6769a1.6666,1.6666,0,0,0,.2311-.2678q.1606-.1383.3317-.27a17.1878,17.1878,0,0,0,4.0662-2.5837,27.5968,27.5968,0,0,0,6.9621-7.5751,3.7409,3.7409,0,0,0,.2645-3.91c-.81-1.2328-2.6071-1.7267-3.9626-2.0128-3.7466-.79-7.5714-.0318-11.2492.761a1.1922,1.1922,0,0,0-.3636.15,1.5006,1.5006,0,0,0-.3157-.19,3.1511,3.1511,0,0,0-1.9362-.31c-.5777.0926-1.3634.64-1.9526.6017a4.4308,4.4308,0,0,0-.4669-.0541,1.1919,1.1919,0,0,0-.6925.1572,1.1955,1.1955,0,0,0-.4128.0494c-.3478.1133-1.53-.916-1.9093-1.1052a7.0679,7.0679,0,0,0-2.3375-.7475,4.7375,4.7375,0,0,0-3.4359.8784,3.2478,3.2478,0,0,0-.5134.4286,1.463,1.463,0,0,0-.3512.5573,5.756,5.756,0,0,0-1.1989,1.7286,1.742,1.742,0,0,0-.13.9282,5.4186,5.4186,0,0,0-.4489,2.63c-.0653.05-.1295.1024-.1934.1557a3.01,3.01,0,0,0-1.1981.3716,6.1506,6.1506,0,0,0-1.6739,1.6267,1.5273,1.5273,0,0,0-.3387.2838l-.5424.6123a1.5214,1.5214,0,0,0-.4137.9387,10.0888,10.0888,0,0,0-1.37,2.4352,1.1266,1.1266,0,0,0-.1754.0481q-1.592.5861-3.1586,1.2335a1.6982,1.6982,0,0,0-.8171.7015c-2.2065.6007-4.2567,1.6229-6.5078,2.1514-2.8252.6633-5.75.5928-8.4613,1.7353a1.5814,1.5814,0,0,0-.344.1994.8324.8324,0,0,0-.8146-.018c-.1506.0743-.304.1423-.4578.2093a10.19,10.19,0,0,1-1.4437.47.8025.8025,0,0,0-.5452.5248L37.81,28.38a38.1743,38.1743,0,0,0-6.24,3.6253.9.9,0,0,0-.2354.2436,21.7827,21.7827,0,0,0-3.1615,2.7095,3.6491,3.6491,0,0,0-.9451,1.0593.76.76,0,0,0-.0694.155,10.7618,10.7618,0,0,0-4.6982,5.5825.5563.5563,0,0,0-.027.1095,40.542,40.542,0,0,0-6.0673,10.3019.6216.6216,0,0,0,.002.4867,3.7185,3.7185,0,0,0-1.4318.6608c-2.5548,1.23-4.7918,3.1656-5.3269,6.1127a9.3453,9.3453,0,0,0,.5985,5.0282A17.6753,17.6753,0,0,0,11.42,67.0659c.1371.2343.2841.4614.4364.6854a4.01,4.01,0,0,0,1.8822,2.7917c1.7263,1.0682,3.4275,2.3823,5.4809,2.5317a2.0734,2.0734,0,0,0,2.1607.824,4.8107,4.8107,0,0,1,.6915-.116c.15.024.3481.043.5125.0552a1.1379,1.1379,0,0,0,1.1432.49q.6288-.0682,1.2514-.0907a1.43,1.43,0,0,0,.9932.3958q1.7646.0583,3.5273.03a1.3134,1.3134,0,0,0,.6485.17h1.9883a2.708,2.708,0,0,0,1.1726.0769,37.4687,37.4687,0,0,0,6.0524-.242c1.3517-.1431,2.1662.4826,3.4.8177a12.9708,12.9708,0,0,0,2.1114.1271,1.6506,1.6506,0,0,0,.7739.3065l.8876.1181a1.1188,1.1188,0,0,0,.8269-.1949c.49-.0122.98-.0176,1.4718-.012a1.2884,1.2884,0,0,0,.4305-.0683,31.9948,31.9948,0,0,0,4.9476,1.5752.482.482,0,0,0,.4648-.7984,7.867,7.867,0,0,0-3.55-2.4786.4714.4714,0,0,0-.2257-.0249,2.6619,2.6619,0,0,0-.8255-.4005,1.1746,1.1746,0,0,0-.2415-.2888,5.5969,5.5969,0,0,0,1.1292-.2329,8.9811,8.9811,0,0,0,3.0085.1267,7.6567,7.6567,0,0,1,1.7281.0948,6.81,6.81,0,0,0,1.8185.1693.4769.4769,0,0,0,.2475-.0982c.2871.0645.5718.1431.8522.2236q.19.0543.3792.11c.1227.04.2454.08.3662.1236.6042.221,1.1649.5417,1.7782.7415a.48.48,0,0,0,.3681-.8732,9.4639,9.4639,0,0,0-2.2331-.9064c-.5266-.1723-1.068-.3087-1.5984-.4611l-3.5961-1.0333a.8512.8512,0,0,0-.5561-.14.5271.5271,0,0,0-.1663.0467q-.3137-.07-.6241-.1537a.3808.3808,0,0,0-.3328-.3523,1.5347,1.5347,0,0,0-.4324-.0224c-.0171-.027-.0358-.0527-.0544-.0787a3.8386,3.8386,0,0,0,.4595-.2641c.4777.0353.9571.1194,1.4311.1821a6.8638,6.8638,0,0,0,1.4635.0756,1.9462,1.9462,0,0,0,.8957-.2272,6.5863,6.5863,0,0,1,1.0338.3075c.4509.178.8-.49.4648-.7984A6.582,6.582,0,0,0,54.1573,68.67a12.9953,12.9953,0,0,0-2.115-.3,4.9428,4.9428,0,0,0-1.38.2176,1.0224,1.0224,0,0,0-.6933.1405,1.3257,1.3257,0,0,0-.4743-.0751,1.9718,1.9718,0,0,0,.0566-.4955,1.9918,1.9918,0,0,0-.0392-.3508c.1336-.081.2672-.167.4011-.2643a9.1474,9.1474,0,0,0,3.0045-4.5522,3.2294,3.2294,0,0,0,.18-1.7251,10.4885,10.4885,0,0,0,3.1476-.6416c.9192-.1006,1.8331-.2927,2.6651-.4642,1.6035-.3306,3.6582-.6011,5.0343-1.4835.353,1.0912.599,2.2289.8975,3.3088a13.6379,13.6379,0,0,0,2.8088,5.6741,1.2271,1.2271,0,0,0,.3829.29,1.7389,1.7389,0,0,0,.5917.5593,8.5255,8.5255,0,0,0,2.815,1.0577,1.664,1.664,0,0,0,1.1571.8914c1.9805.4641,3.9568.96,5.9475,1.3781.8525.1792,1.7226.27,2.5729.4505.6958.1475,1.3519.4439,2.0434.5946a.5611.5611,0,0,0,.4169.3429,12.6442,12.6442,0,0,1,2.6625.9537A.6256.6256,0,0,0,86.91,74.12c.2158.1026.43.2054.6407.3027q1.91.8795,3.7533,1.8918a.64.64,0,0,0,.7718-1c-1.38-1.511-3.2521-2.386-4.8394-3.635a5.9341,5.9341,0,0,0,.6972-.0039,11.3462,11.3462,0,0,1,2.5564.4753c.87.2138,1.7469.41,2.61.6528.8708.2451,1.683.6741,2.5642.877a.6665.6665,0,0,0,.1356.0114l.0527.02a.52.52,0,0,0,.6245-.1718l.0758.0383c.3132.2264.6275.45.9473.6583.5448.3557,1.1829-.3388.8714-.8715a2.7223,2.7223,0,0,0-1.2808-.9568,28.6826,28.6826,0,0,0-2.896-1.9508,9.11,9.11,0,0,0-2.16-.88c-.77-.1917-1.5687-.1768-2.3312-.4017-.2056-.0606-.4184-.138-.6345-.2082a2.8265,2.8265,0,0,0,.0213-.52c-.0016-.0311-.0026-.0642-.0033-.0982a.5066.5066,0,0,0,.2393-.1639C89.7277,67.6926,90.15,67.7969,90.7293,67.8153ZM43.2776,69.3534a3.98,3.98,0,0,0-.5323-.0181,7.4716,7.4716,0,0,1,1.4016-.4164c.3832-.0569.7561-.0939,1.1215-.1248v.0011C44.6,68.9694,43.9537,69.1975,43.2776,69.3534Zm9.449-7.8068.0452.1671Q52.5218,62.824,52.7266,61.5466Zm14.5256-1.6654q-.0515-.1971-.1038-.3929a23.6835,23.6835,0,0,0-.7894-2.4537q.1847-.1539.3518-.3238A4.9816,4.9816,0,0,1,67.2522,59.8812Zm3.0852-46.3078A1.4777,1.4777,0,0,0,69.801,12.51a1.1675,1.1675,0,0,0,.1622-.91,3.5528,3.5528,0,0,1,1.25-.8754,1.2841,1.2841,0,0,0,.5287-.4115,7.21,7.21,0,0,1,3.02,1.28,1.6294,1.6294,0,0,0,.3276.4938,1.8107,1.8107,0,0,0,.3723.3029l.4605.3749a28.5549,28.5549,0,0,0-2.4143,1.8242,4.5694,4.5694,0,0,0-3.0923.05Z"/><path class="cls-5" d="M78.0469,66.0249a3.4512,3.4512,0,0,0-1.09-.8764c-.6528-.3117-1.2269.0687-1.8.369a12.4848,12.4848,0,0,0-1.4778.8128A9.74,9.74,0,0,0,72.4624,67.45l-1.25,1.2575a.8083.8083,0,0,0,.7433,1.3414.713.713,0,0,0,.2749.286,6.7008,6.7008,0,0,0,2.2979.622,5.8822,5.8822,0,0,1,1.1033.2583,8.3368,8.3368,0,0,0,1.1961.4161.81.81,0,0,0,.9794-.5561c.2434-1.0952.5573-2.1994.72-3.3095A2.1017,2.1017,0,0,0,78.0469,66.0249Z"/><path class="cls-5" d="M69.835,56.7232c-.4881-.7834-1.625-.5984-2.4075-.532a14.884,14.884,0,0,0-2.7638.4947.8125.8125,0,0,0-.5561.9794,10.52,10.52,0,0,1,.28,2.5954.7711.7711,0,0,0,.2212.5406c-.0058.032-.0131.0633-.0161.0967l-.0573.6337A.798.798,0,0,0,65.12,62.3a.84.84,0,0,0,.8991-.3659q.087-.1188.1753-.2366.036-.0478.0723-.0954l.0082-.01q.1941-.2487.3974-.49.3651-.435.7571-.8465a8.5126,8.5126,0,0,1,.7778-.7332l.0156-.0127.07-.0524c.0648-.0486.13-.0967.195-.1453.1652-.1234.33-.2477.49-.3784C69.57,58.4475,70.33,57.5177,69.835,56.7232Z"/><path class="cls-5" d="M47.9448,66.0774q-.0617-.9931-.1232-1.9861a8.2691,8.2691,0,0,0-.2485-1.8075,14.8559,14.8559,0,0,0-.6632-1.797,3.7246,3.7246,0,0,0-2.3361-2.3047c-.7942-.1566-1.2773.5706-1.5577,1.204a3.8576,3.8576,0,0,0-.3188,2.0652l.0032.0155c-.5541,2.3678-.1878,4.8436-.4761,7.25a.8006.8006,0,0,0,.7961.7961.73.73,0,0,0,.66-.385.7854.7854,0,0,0,.6231.1041l1.9669-.4962c.5563-.14,1.27-.2124,1.5932-.7544A3.5136,3.5136,0,0,0,47.9448,66.0774Z"/><path class="cls-5" d="M34.6555,69.2951a11.9608,11.9608,0,0,1-.3051-3.1828c-.0053-.5349-.013-1.0707-.0634-1.6036a8.82,8.82,0,0,1-.0835-1.6256,10.7175,10.7175,0,0,0-.252-3.1733c-.1075-.5177-.2337-1.0312-.3692-1.5422a16.6289,16.6289,0,0,0-.4682-1.674c-.4384-1.1449-1.4847.2913-1.7237.8058a26.11,26.11,0,0,0-1.0014,2.9c-.3392,1.0359-.6885,2.0666-.9275,3.1314-.2408,1.0727-.4436,2.1548-.6616,3.2323a4.4015,4.4015,0,0,0-.2252,1.6177c.11.5411.5344.6711,1.0149.7748l3.8579.8326a.4993.4993,0,0,0,.3726-.07A.4822.4822,0,0,0,34.6555,69.2951Z"/><path class="cls-6" d="M64.17,58.5569a44.73,44.73,0,0,1-11.0224,2.6815"/><path class="cls-6" d="M77.5812,26.3528a12.12,12.12,0,0,0-2.5223,2.3026.2181.2181,0,0,0-.035.0414,7.7479,7.7479,0,0,0-1.92,4.85c0,3.0032,5,13.2135-1.9745,20.5288"/><path class="cls-6" d="M16.09,52.5711s10.3154-26.3521,32.58-27.03c0,0,9.2771-3.0542,12.0255-4.8281"/><path class="cls-6" d="M59.6638,24.8612a14.2339,14.2339,0,0,1,6.38-10.5879"/><path class="cls-6" d="M16.0907,64.0905s16.4248,8.4159,26.0624,5.43c0,0,13.5742-3.2578,16.1533,1.2217,0,0-7.873-.1357-9.6377,0"/><path class="cls-6" d="M49.2643,68.4511S65.1056,55.48,32.0183,50.4c0,0-34.78-1.5758-18.3427,20.3414,0,0,5.4323,5.55,27.5845,4.0684a13.57,13.57,0,0,0,7.8309,1.0582S53.0418,77.35,54.9466,77.35c0,0,.3576-2.6725-8.1837-4.9384"/><path class="cls-6" d="M49.1579,73.1315s9.0274-.085,12.1348,1.6787c0,0,4.0952-1.2022-9.5913-4.1286"/><path class="cls-7" d="M86.0585,38.83s5.3617,2.7514,8.2542,2.1164c0,0,6.7727-3.3157-1.6932-4.0212,0,0-14.036-1.9761-17.5836-8.2455l3.79-.4679a13.29,13.29,0,0,0,5.8389-2.15C109.809,9.2282,93.0523,6.9748,88.984,7.8935c-4.208.95-12.4883,1.2216-12.4883,1.2216-10.8593-6.1083-10.4521,6.7871-10.4521,6.7871"/><path class="cls-6" d="M94.3127,40.9468s-5.7576,5.345-7.0319,6.5131S80.803,51.07,79.1039,49.4776"/><path class="cls-6" d="M82.1328,49.84s-8.9757,12.5929-9.8252,11.9557"/><path class="cls-6" d="M58.3064,70.7418s8.0991-3.3072,8.3857-4.1668"/><path class="cls-6" d="M69.4558,46.2524s3.7832,4.2422,1.3753,7.1629"/><path class="cls-6" d="M64.012,56.1086c-3.61-1.5472-2.1453-6.6472-2.1453-6.6472"/><path class="cls-6" d="M64.012,52.04S62.9233,66.194,69.4558,68.8872c0,0,2.9225,2.3882,12.9506,3.8587,0,0,9.2258,2.96,9.34,4.0492,0,0,1.9483-1.318-4.24-5.2146,0,0,9.6512,2.0056,10.6992,2.98,0,0,1.9648-2.3286-9.2093-5.9778,0,0-2.0057-.8611,9.6842-1.1664,0,0,2.4067-2.3682-11.0022-2.0244,0,0-5.4443-4.5088-17.1339-3.5724"/><path class="cls-6" d="M72.3076,61.7959c.445-9.1542-4.7428-12.621-4.7428-12.621"/><path class="cls-8" d="M95.1006,10.8155s-.6445,1.4145,1.133,1.9174C96.2336,12.7329,97.846,11.1641,95.1006,10.8155Z"/><ellipse class="cls-5" cx="42.7772" cy="42.3816" rx="5.2329" ry="2.4143" transform="translate(-15.7286 28.1283) rotate(-31.042)"/><ellipse class="cls-5" cx="53.6276" cy="33.3665" rx="3.6678" ry="1.6922" transform="translate(-9.5259 32.4324) rotate(-31.042)"/><ellipse class="cls-5" cx="28.8408" cy="44.1942" rx="3.6719" ry="1.6941" transform="translate(-18.6592 21.2013) rotate(-31.042)"/><ellipse class="cls-5" cx="36.2115" cy="37.88" rx="3.2541" ry="1.5013" transform="translate(-14.3476 24.0979) rotate(-31.042)"/><ellipse class="cls-5" cx="43.7108" cy="33.3665" rx="2.4225" ry="1.1177" transform="translate(-10.9461 27.3186) rotate(-31.042)"/><path class="cls-6" d="M28.4339,68.797s4.885-29.6031,6.31,1.2179"/><path class="cls-6" d="M42.1531,69.52s-.54-11.2888,2.1406-11.571,4.5032,6.8044,3.4862,10.6334"/><path class="cls-6" d="M70.5444,69.54s4.4636-5.0789,6.1832-4.5261,2.3223,1.7869.8541,6.8508"/><path class="cls-6" d="M64.9777,62.7823S70.4648,58.21,69.95,56.907s-4.68-.86-5.9219,0"/><path class="cls-9" d="M74.4777,22.9193s6.0342-1.8305,3.104-6.9989-4.3609-7.2142-7.0373-6.3528S71.2018,25.2235,74.4777,22.9193Z"/><ellipse class="cls-10" cx="75.1438" cy="16.9766" rx="1.5353" ry="2.3848" transform="matrix(0.9532, -0.3022, 0.3022, 0.9532, -1.6168, 23.5037)"/></g><g id="fly"><path d="M695.5042,19.7776a8.356,8.356,0,0,0,4.4777,2.7691,11.2721,11.2721,0,0,1,4.6543,2.1209s3.2993,2.0032,4.36-.53-.8838-4.9489-.8838-4.9489-5.8326-4.8311-10.4281-3.9474c0,0,.3535-2.18-1.0015-1.9442,0,0-.1657-3.7553-3.9723-1.1607a2.1762,2.1762,0,0,0-.634.6681c-.6556,1.08-2.3354,4.1311-1.4724,5.7612,0,0,.1282.5051,1.2476.5641C691.8515,19.13,692.0282,22.8413,695.5042,19.7776Z"/><path class="cls-11" d="M698.3844,15.1531S705.9913,3.87,718.01,8.23a7.212,7.212,0,0,1-.7659,6.4219C715.1232,17.9512,698.3844,15.1531,698.3844,15.1531Z"/><path class="cls-11" d="M698.0965,16.2427s11.099-10.1925,20.9152-3.535c0,0,1.4139,2.5334-3.0637,6.1862a41.9064,41.9064,0,0,1-13.61,0S698.45,17.1853,698.0965,16.2427Z"/><ellipse class="cls-12" cx="694.5551" cy="16.765" rx="3.4729" ry="1.7093" transform="translate(416.4482 653.4316) rotate(-67.7862)"/><polygon points="690.649 18.4 688.997 19.413 688.621 18.143 690.559 18.094 690.649 18.4 690.649 18.4"/><path class="cls-13" d="M696.1026,20.4164a3.2286,3.2286,0,0,0-.47,2.7191"/><path class="cls-13" d="M696.9645,21.1514s-2.526.4386-3.2285,1.6329"/><path class="cls-13" d="M704.6362,24.6676s.6209,1.6292-.3626,2.4019"/><path class="cls-13" d="M707.1559,25.4182s.9856,2.0728,0,2.5646"/><path class="cls-13" d="M708.996,24.1374s1.2488,2.1238.6868,2.5631"/></g><g id="Text"><g class="cls-14"><path d="M16.9844,14.8048c-.2632-1.5439-.2642-2.4023.4135-2.6172a6.28,6.28,0,0,1,.7032-.0644,2.9654,2.9654,0,0,0,1.0444-.128,14.86,14.86,0,0,1,1.5039-.3867c1.9151-.4482,2.5352-.4189,3.624.0947a3.3082,3.3082,0,0,1,1.5982,1.6182,12.6318,12.6318,0,0,1-.1558,3.6426c-.7539,2.6123-.9546,2.8349-2.6128,5.7324a13.5242,13.5242,0,0,1-.768,1.2842l-1.0176,1.0683a5.55,5.55,0,0,1-1.07.9727,1.3877,1.3877,0,0,1-.3741-.04,1.1579,1.1579,0,0,0-.3066-.0391c-1.0732.25-1.5176.3457-1.6475-.0645a2.9279,2.9279,0,0,1-.0732-.5869l-.05-.73c-.0049-.1573-.0469-.5733-.1035-2.25L17.6514,20.9,17.26,16.9552Zm2.1167-.7383.5669,2.7129.3,2.3018.268,3.5537c1.9937-3.0508,3.7437-6.6572,3.1363-9.4268a8.2821,8.2821,0,0,0-2.6075.33Z"/><path d="M31.084,13.3634c.9858-.3125,1.6465.1338,2.0181,1.3037a2.6216,2.6216,0,0,1-.5279,2.9707A4.3781,4.3781,0,0,1,31.38,18.7169c-.7837.4522-.793.6367-.585,1.294.1953.6152.38.625.708.5214a2.4927,2.4927,0,0,0,.8252-.5341l.9947-.9258c.2954-.1387.4565.5117.5405.8457a3.1289,3.1289,0,0,1-2.2178,2.918c-1.1909.3779-2.0176-.377-2.5576-2.0821C28.6387,19.337,28.311,14.2423,31.084,13.3634Zm-.709,4.18.0928.1523c.4472-.2324,1.4468-1.499,1.2578-2.0947-.065-.2041-.3731-.6055-.6807-.5078C30.4287,15.2882,30.33,17.3321,30.375,17.5431Z"/><path d="M39.7881,4.8859a2.6468,2.6468,0,0,1,2.0615.16.7391.7391,0,0,1-.0557.5371l-.0288.1231c.0044.1562-.0171.2295-.21.4052.0264.5118-.01.6807-.77.9219l-2.5132.8418L38.6953,9.64a6.6261,6.6261,0,0,0,.2451,1.414l.6978-.2207L42.751,9.5284c.22-.0918.3818-.0078.4726.2793a2.1308,2.1308,0,0,1,.0855.6963,2.1958,2.1958,0,0,0,.0918.7168l-.0611.45c-.0908.1416-.4726.6465-2.0273,1.1621-1.9648.6455-1.9814.8086-2.0093.8633l.0347.8926a10.1234,10.1234,0,0,0,.11,1.7734,10.385,10.385,0,0,1,.0938,2.8633l-.0347.0332a1.5212,1.5212,0,0,0-.4048,1.1455c-.0254.3477-.0644.6533-.3725.751a2.114,2.114,0,0,1-1.1421-.1807l-.3125-.0586c-.1631-.0146-.3677-.0185-.5825-.6963a5.7765,5.7765,0,0,1-.0078-1.3086,34.7859,34.7859,0,0,0-.5386-6.4746l-.1353-.9961-.3095-3.4736c-.1265-.2529-.4283-.5654-.4737-.71-.0844-.2657.4854-1.0342.958-1.1836a1.4745,1.4745,0,0,1,.5381-.0127Z"/><path d="M45.4658,9.82c-.03-.3066,1.45-1.7021,2.1065-1.91a.6515.6515,0,0,1,.6987.207c.3325.1211.3657.1563.3979.2588l.2139.3164a7.2231,7.2231,0,0,1,.0342,1.3906L48.792,12.97l.06,1.4727.08.11c.26-.1055.2881-.1592.69-.6026l.1254-.1758c.4307-.5664.4454-.5918.6709-.664a.9788.9788,0,0,1,.32.44l.039,1.05a4.7344,4.7344,0,0,1-2.1929,2.707c-.4926.1563-.9409.0274-1.208-.8154a12.6207,12.6207,0,0,1-.2749-2.5791l-.0356-2.6777-.11-.916-.8925.4638a.4448.4448,0,0,1-.608-.35ZM46.749,3.1759a1.2805,1.2805,0,0,1,1.6865.6846l.3589.6338c.0718.2255-.583.7275-.7675.7861a.8724.8724,0,0,1-.8311-.0537l-.6348-.3633-.0566-.3213a2.2289,2.2289,0,0,1-.0952-.9414l.0141-.0273A1.0525,1.0525,0,0,0,46.749,3.1759Z"/></g><g class="cls-14"><path d="M685.7617,53.2042c.97-1.6377,4.74-4.2871,6.0332-4.2871.2373,0,.4951.1289.9483.5381l.3877.3232c.4736.3662.5166.4737.5166.711,0,.4961-.0645,1.3574-.4737,1.3574l-.3447-.15-.3232.0859a1.2522,1.2522,0,0,0-.5176-.2373c-1.1631-.0859-2.0684.7539-3.3819,2.3916a14.6427,14.6427,0,0,0-2.7793,5.7315c0,.7539.5167,1.1631,1.4434,1.1631a6.9484,6.9484,0,0,0,3.2529-1.5078,6.571,6.571,0,0,1,1.4873-.8623.6366.6366,0,0,1,.3233.1084c-.0225.2363.0644.84-.13,1.1416-.8184,1.5293-2.6719,3.77-4.0508,3.7919-1.27.0215-5.1924-.6894-5.1924-3.2968a10.3329,10.3329,0,0,1,1.2286-4.3516Z"/><path d="M698.498,54.4112c1.0342,0,1.5293.6241,1.5293,1.8526a2.62,2.62,0,0,1-1.4,2.6719,4.3926,4.3926,0,0,1-1.4649.6679c-.8828.1934-.9482.3662-.9482,1.0557,0,.6465.1728.7109.5175.7109a2.5,2.5,0,0,0,.9483-.2588l1.2275-.582c.3233-.043.28.625.2588.97a3.13,3.13,0,0,1-2.9951,2.1114c-1.249,0-1.81-.97-1.81-2.7578C694.3613,59.3663,695.59,54.4112,698.498,54.4112Zm-1.9394,3.77.043.1728c.4961-.0859,1.832-.9912,1.832-1.6162,0-.2148-.1729-.6894-.4961-.6894C697.291,56.048,696.58,57.9659,696.5586,58.1808Z"/><path d="M709.3584,48.96a2.6487,2.6487,0,0,1,1.917.7754c0,.1718-.043.2588-.2149.4951l-.0644.1084c-.044.15-.0869.2148-.3232.3232-.13.4951-.2159.6455-1.0127.6455l-2.65.044-.1289,1.81a6.6254,6.6254,0,0,0-.1944,1.4219h.7324l3.3614-.3017c.2373-.0215.3662.1074.3662.4091a2.1443,2.1443,0,0,1-.1289.69,2.19,2.19,0,0,0-.13.7109l-.1934.41a3.6457,3.6457,0,0,1-2.2841.4951c-2.0684.0215-2.1329.1729-2.1758.2158l-.2373.8614a10.1766,10.1766,0,0,0-.4307,1.7236,10.4027,10.4027,0,0,1-.7754,2.7578l-.0439.0215c-.3233.1943-.4737.3232-.7325.97-.1289.3233-.2578.6035-.581.6035a2.12,2.12,0,0,1-1.0342-.5175l-.28-.15c-.1513-.0645-.3447-.13-.3447-.8409a5.7579,5.7579,0,0,1,.3877-1.249,34.7733,34.7733,0,0,0,1.4434-6.3349l.1728-.9913.7539-3.4033c-.0429-.28-.2373-.6679-.2373-.8193,0-.28.7754-.84,1.2715-.84a1.4671,1.4671,0,0,1,.5166.15Z"/><path d="M713.2812,55.38a5.0783,5.0783,0,0,1,2.586-1.1846c.2363,0,.4092.086.6035.4092.2793.2158.3008.2588.3008.3662l.1084.3662a7.196,7.196,0,0,1-.3877,1.336l-.9912,2.7148-.3877,1.4219.0429.1289c.28-.0215.3233-.0645.84-.3662l.1728-.1289c.5811-.4092.6026-.4307.84-.4307a.9788.9788,0,0,1,.1728.5166l-.28,1.0127a4.736,4.736,0,0,1-2.9092,1.918c-.5166,0-.9043-.2588-.9043-1.1426a12.6853,12.6853,0,0,1,.5166-2.542l.7764-2.5635.1718-.9052-.9912.1728c-.3017,0-.4736-.1728-.4736-.5176Zm3.2325-5.9463a1.2817,1.2817,0,0,1,1.4,1.1631l.15.7109c0,.2373-.7754.5176-.97.5176a.8706.8706,0,0,1-.7754-.3017l-.4951-.5381.043-.3233a2.2382,2.2382,0,0,1,.1933-.9267l.0215-.0215A1.058,1.058,0,0,0,716.5137,49.4337Z"/></g><g id="endingText"><path d="M724.2979,23.7491h.84c1.0928,1.0918,1.5127,1.5118,1.5127,2.0157s-.7842.9238-1.9043.9795c-1.54-.0557-1.8477-.84-1.8477-1.3995,0-.3359.084-.3925.5313-.98.168-.4756.3642-.5039.6728-.5039ZM728.75,7.8165a1.3469,1.3469,0,0,1,1.2881,1.1758l-.168.8125v.9522l-.2519,1.0917-1.0918,3.7237-.42.7285-.28,1.1758a10.4535,10.4535,0,0,1-1.708,3.248l-.3643-.1679-.3076.3916-.42-.1114a1.7192,1.7192,0,0,1-.252-.8408,11.9773,11.9773,0,0,1,.1953-1.4277l.1123-.7842a16.5136,16.5136,0,0,1,.9239-4.1719l.3642-1.2041a16.454,16.454,0,0,0,.6719-2.4355C727.2383,8.8527,728.05,7.8165,728.75,7.8165Z"/><path d="M454.1885,46.2784c.4765-.9121.9248-1,1.3242-1.01a.7167.7167,0,0,1,.7109.4316l.2569.2676a1.2147,1.2147,0,0,1,.29.6191,7.924,7.924,0,0,1-.6084,1.59l-2.5449,6.0664-.6436,1.2422a6.0969,6.0969,0,0,1-.5449,1.1621,59.4911,59.4911,0,0,0-2.6094,5.5176c-.1377.43-.2568.6816-.3564.7089-.1768-.0957-.2578-.3183-.4356-.414l-.9072-.3008a1.0721,1.0721,0,0,0-.92-.7754l-.0107-.4.0957-1.1523a23.8453,23.8453,0,0,0-.3164-2.5918l-.1211-.7989-.209-4.2441-3.2617,6.3594a33.5917,33.5917,0,0,1-1.8145,3.3457l-.3213.1347c-.2695.23-.2939.2559-.5185.2618l-.8663-.627-.0507-.0234c-.4522-.0879-.8545-.2031-.85-.9785l.1621-7.33a32.3348,32.3348,0,0,1,.4287-4.7363l.1308-.7286c.2618-1.5058.5508-1.9394,1.2256-1.957a1.397,1.397,0,0,1,1.5381,1.4863l-.1035,2.8028a44.7169,44.7169,0,0,1-.5068,5.59l.1015.0723c.2412-.3574,1.07-2.1543,1.4258-2.9375l1.2129-2.4063.4805-.7617,1.1865-2.4824c.5215-1.0859.665-1.3652,1.2148-1.3809.6992-.0175.97.7754,1.0567,1.2481l.2187.6953a10.1737,10.1737,0,0,1,.4072,2.2383l.2559,2.1953.0664,1.5976a2.5512,2.5512,0,0,0,.207,1.27l.1436-.2539a8.5889,8.5889,0,0,0,.4033-.8594l1.6143-3.3164Z"/><path d="M460.6377,45.087l.2021.07c.6788.1582,1.1133.5215,1.13,1.1719l-.1738,2.0039-.4717,3.0625-.4,1.9356.1114.4218,1.497-1.1132a8.0033,8.0033,0,0,1,1.9942-1.1758c.7754-.02.9375.4746.96,1.35l-.166,1.33a6.0463,6.0463,0,0,1-.2764,1.9062,4.3061,4.3061,0,0,0-.3378,1.4356l-.334,1.6074.0556.1973a6.1608,6.1608,0,0,0,1.5459-1.0879c.6856-.5938.71-.6192.8848-.6231a.747.747,0,0,1,.1885.5215c.0469,1.8477-2.17,4.1035-3.4942,4.1387-.2754.0058-1.3466-.84-1.3545-1.1407l.6036-5.7148-.1143-.5488a5.2709,5.2709,0,0,0-1.626.9414l-.123.0781c-.54.3652-.586.541-.6153,1.3418a3.1413,3.1413,0,0,1-.0859.5781l-.707,2.6172c-.2051.7813-.2725,1.082-1.0215,1.1016-.5.0137-.9053-.1778-.918-.6524a26.6124,26.6124,0,0,1,.43-3.7343l.6328-3.5918.2432-2.2325.791-5.2461a.9028.9028,0,0,1,.4814-.7128c.1495-.0039.2745-.0059.3223-.1075A.2564.2564,0,0,1,460.6377,45.087Z"/><path d="M471.9473,51.173a2.4722,2.4722,0,0,1,2.4023,1.0644,3.9594,3.9594,0,0,1,.8076,2.2285c.07,2.7481-2.31,7.4336-5.0332,7.5039-1.0752.0274-1.6611-2.3828-1.6963-3.73C468.374,56.1144,470.15,51.2687,471.9473,51.173Zm-.3506,1.9336a11.0572,11.0572,0,0,0-.9551,4.6757,4.63,4.63,0,0,0,.2949,1.7422c1.42-1.1855,2.2637-4.3574,2.25-4.8828A1.633,1.633,0,0,0,471.5967,53.1066Z"/><path d="M485.041,44.9366a1.7088,1.7088,0,0,1,1.1621-.5039c.5254-.0136.7813.2051.7969.83l-.8721,4.9961a56.2815,56.2815,0,0,0-1.1924,6.1563l-.1943,1.18-.1348.6036a.2182.2182,0,0,0,.2559.2187,6.5976,6.5976,0,0,0,1.0264-.9,3.158,3.158,0,0,1,1.082-.7031,1.0523,1.0523,0,0,1,.1094.373,1.2441,1.2441,0,0,1-.0645.375c.0088.35-.0136.4746-.4961,1.1387l-1.1113,1.5274a2.6991,2.6991,0,0,1-1.8672,1.2734c-.9248.0254-1.37-.7637-1.4053-2.1387a8.7459,8.7459,0,0,1,.2705-2.1328l1.8331-9.4473A10.8049,10.8049,0,0,1,485.041,44.9366Z"/><path d="M493.2412,50.6534c1.1992-.0312,1.792.6778,1.8281,2.1016a3.04,3.04,0,0,1-1.5449,3.1406,5.1112,5.1112,0,0,1-1.6777.8184c-1.02.25-1.0889.4531-1.0684,1.2519.0186.75.22.82.62.8086a2.88,2.88,0,0,0,1.0918-.3281l1.4073-.7109c.373-.0586.3427.7168.3281,1.1172-.3779,1.8105-2.3848,2.5117-3.41,2.5371-1.4492.0371-2.1269-1.07-2.18-3.1446C488.5908,56.5206,489.8672,50.7394,493.2412,50.6534Zm-2.1377,4.43.0557.1973c.5722-.1152,2.0937-1.2031,2.0752-1.9277-.0059-.25-.2207-.795-.5957-.7852C491.8887,52.587,491.123,54.8331,491.1035,55.0831Z"/><path d="M501.5352,46.4894q.6-.0147.622.81c.0059.2246-.082.7266-.1865,1.5528-.0635.4257-.126.9043-.1455,1.1289l1.793-.32c.2236-.0058.6289.209.6591.4336l-.0957.1524a.8928.8928,0,0,0-.0918.3027c-.1093.6016-.874.9981-2.74,1.3438l-.7627,4.3965L500.4,57.7687l.0127.5.251.0429c.25-.0293.6875-.4668,1.15-.9277.415-.4121.8056-.7969,1.0058-.8027.2-.0039.3838.3672.3926.6914a2.301,2.301,0,0,1-.1611.5527l-.0225.1016c-.4893,1.3886-2.52,3.1152-3.6953,3.1445-.9248.0234-1.4434-.7129-1.4766-2.0117a11.78,11.78,0,0,1,.29-2.3574l.76-4.52-.8242.07c-.25.0059-.69-.6074-.708-1.3066-.0137-.5508.1592-.6035,1.9023-.873a13.2416,13.2416,0,0,0,.3877-1.4844c.333-1.6348.5811-1.7168,1.25-1.9336A1.6839,1.6839,0,0,1,501.5352,46.4894Z"/><path d="M514.4805,46.1573q.6006-.0146.622.8106c.0059.2246-.082.7266-.1865,1.5527-.0635.4278-.126.9043-.1455,1.1289l1.792-.32c.2246-.0058.63.209.66.4336l-.0957.1524a.8856.8856,0,0,0-.0918.3027c-.1094.6035-.875.998-2.74,1.3437l-.7637,4.3965-.1865,1.4785.0127.5.251.043c.25-.0293.6885-.4668,1.1514-.9277.415-.4121.8056-.7969,1.0058-.8008.1992-.0059.3828.3652.3916.6894a2.3023,2.3023,0,0,1-.1611.5528l-.0225.1015c-.4882,1.3887-2.5205,3.1153-3.6943,3.1446-.9248.0234-1.4443-.7129-1.4775-2.0117a11.7327,11.7327,0,0,1,.291-2.3575l.76-4.5195-.8242.07c-.25.0078-.6914-.6055-.709-1.3066-.0136-.5489.1592-.6035,1.9034-.8731a13.1077,13.1077,0,0,0,.3867-1.4843c.333-1.6348.581-1.7168,1.251-1.9336A1.7218,1.7218,0,0,1,514.4805,46.1573Z"/><path d="M521.666,43.5226l.2022.07c.6787.1582,1.1132.5215,1.13,1.1719l-.1738,2.0039-.4717,3.0625-.4,1.9355.11.4219,1.4971-1.1133A8.0134,8.0134,0,0,1,525.5547,49.9c.7754-.02.9375.4746.96,1.35l-.166,1.33a6.042,6.042,0,0,1-.2763,1.9063,4.28,4.28,0,0,0-.3379,1.4355l-.334,1.6074.0547.1993a6.25,6.25,0,0,0,1.5478-1.09c.6836-.5918.709-.6191.8838-.623a.74.74,0,0,1,.1875.5214c.0479,1.8477-2.1689,4.1055-3.4922,4.1387-.2754.0078-1.3476-.84-1.3554-1.1406L523.83,53.82l-.1133-.5489a5.2743,5.2743,0,0,0-1.6279.9414l-.1231.08c-.539.3633-.5849.5391-.6142,1.34a3.1163,3.1163,0,0,1-.085.5781l-.709,2.6191c-.2041.7793-.2715,1.082-1.0215,1.1-.5.0137-.9043-.1758-.916-.65a26.7049,26.7049,0,0,1,.4278-3.7363l.6337-3.5918.2432-2.2324.791-5.2442a.9013.9013,0,0,1,.4824-.7128c.1495-.0039.2735-.0079.32-.1094A.2648.2648,0,0,1,521.666,43.5226Z"/><path d="M534.1514,49.6046c1.1992-.0312,1.7929.6777,1.8291,2.1016a3.041,3.041,0,0,1-1.5459,3.1406,5.0648,5.0648,0,0,1-1.6778.8184c-1.0195.2519-1.0888.4531-1.0683,1.2519.0185.75.22.82.62.8106a2.9246,2.9246,0,0,0,1.0928-.33l1.4062-.709c.3731-.0606.3428.7148.3281,1.1152-.3779,1.8106-2.3847,2.5117-3.41,2.5371-1.4483.0371-2.127-1.0683-2.18-3.1445C529.501,55.4737,530.7773,49.6905,534.1514,49.6046Zm-2.1377,4.43.0556.1973c.5723-.1133,2.0938-1.2032,2.0752-1.9278-.0058-.25-.2207-.7949-.5957-.7851C532.8,51.5382,532.0332,53.7843,532.0137,54.0343Z"/><path d="M545.7422,47.1808a5.741,5.741,0,0,1,5.1123-4.4317,1.551,1.551,0,0,1,1.11.4239c.9385.5254.9493.9238.9551,1.15.0108.4472-.0859.5507-.3076.707l-.2695.1816a.4366.4366,0,0,1-.3223.1348c-.125.0019-.6523-.084-1.38-.1914-.4775-.0879-1.2812-.2168-1.4306-.2129-.25.0059-.9327.6738-1.3975,3.9863l2.623-.0683a1.1914,1.1914,0,0,1,.5059.2129L550.877,50.45a8.9756,8.9756,0,0,1-2.4366.5371l-.8232.0957-.0654,1.3028c-.0166.375-.2666,2.3066-.3086,2.6074l-.6514,4.8672a10.0955,10.0955,0,0,1-2.2715,5.01l-.7392.418a3.21,3.21,0,0,1-1.8067.7207,1.8557,1.8557,0,0,1-1.6953-1.7559c-.0059-.2246.0381-.4511.3115-.5332.124-.0273.124-.0527.1221-.1035-.0029-.125.0693-.2011.4443-.2109a1.003,1.003,0,0,1,.7569.2558.6.6,0,0,0,.33.1661,4.15,4.15,0,0,0,1.8623-2.4473,22.2734,22.2734,0,0,0,.6749-4.8926l.4531-4.7383-.0127-.5c-1.0029-.1-1.832-.2519-1.8526-1.0761-.0078-.2754.1006-.9532.5733-1.0157l1.501-.0117Z"/><path d="M554.7881,48.8487a1.8741,1.8741,0,0,1,1.1328.3223c.3047.168.3437.7168.3594,1.34l-.1241.9785.129.1484c.1972-.08.246-.1328.3886-.4375.6866-1.4668,1.1934-2.2031,2.0928-2.2266.7754-.02,1.2725.8418,1.3389,3.4649l-.0459.1269a4.6335,4.6335,0,0,1-1.5127.5645c-.2744.0059-.3272-.1426-.4082-.34-.1856-.42-.2364-.4688-.4619-.4629a12.1558,12.1558,0,0,0-1.0879,1.4511l-.0489.0528a11.428,11.428,0,0,0-1.8593,3.5468l-.1846.5547c-.2783.8575-.5049,1.7891-1.3291,1.8086-.45.0117-.6856-.4062-.7-.98a4.6814,4.6814,0,0,1,.1924-1.2813l1.4443-5.0859.2647-1.3321-.7989-.0058c-.0742.0019-.1748.0293-.7138.4433a.5161.5161,0,0,1-.3721.1348.4439.4439,0,0,1-.5107-.4121C551.957,50.5968,553.8145,48.8741,554.7881,48.8487Z"/><path d="M564.5645,48.8a2.4715,2.4715,0,0,1,2.4013,1.0645,3.9517,3.9517,0,0,1,.8076,2.2285c.0713,2.748-2.31,7.4336-5.0322,7.5039-1.0752.0273-1.6621-2.3828-1.6963-3.73C560.99,53.7413,562.7666,48.8956,564.5645,48.8Zm-.3516,1.9336a11.0525,11.0525,0,0,0-.9541,4.6758,4.6514,4.6514,0,0,0,.2939,1.7422c1.42-1.1856,2.2647-4.3574,2.251-4.8828A1.6318,1.6318,0,0,0,564.2129,50.7335Z"/><path d="M576.3359,46.6476c.3252-.0078.6944.7324.7012,1.0078.0078.2734-.1211,2.1035-.2275,2.83l-.334,2.584-.9854,5.4257c-.2412,1.3067-1.7783,6.7461-5.6513,6.8457a.9326.9326,0,0,1-.7813-.3066c-.0517-.0488-.1025-.0469-.2021-.0684-.5284-.1367-.9356-1.3769-.9395-1.5254l.167-.33c.0166-.2754.6367-.5176.7871-.5215l.5781.1367.87-.1484c.7236-.1172,2.623-2.0411,2.8457-4.0977l-1.0948.2031-.3515-.0644-.1729.0781a.91.91,0,0,1-.3467.16,1.9674,1.9674,0,0,1-1.4834-1.2871,16.2932,16.2932,0,0,1-.1513-2.0235,13.2758,13.2758,0,0,1,2.5986-5.8906l.6533-.8926c.334-.584.5049-.7617.9805-.7754l.57-.164a.2575.2575,0,0,1,.2529.0937.1159.1159,0,0,0,.127.07.75.75,0,0,0,.6582-.6152C575.42,46.9952,576.0361,46.6554,576.3359,46.6476Zm-1.7021,3.8183c.0205-.2011-.1074-.3222-.4824-.3125a8.6288,8.6288,0,0,0-1.9209,6l.2519.0938a3.5989,3.5989,0,0,0,.6836-.6172l.7334-.6445.041-.3516a21.9407,21.9407,0,0,1,.4678-3.2129Z"/><path d="M580.7773,49.1085a9.5138,9.5138,0,0,1,2.9248-1.9746,1.02,1.02,0,0,1,.9444.7754,2.14,2.14,0,0,1-.8233,1.0469l-.2187.23a5.0025,5.0025,0,0,1-1.2891,1.4082,4.4868,4.4868,0,0,0-1.1924,1.3067l.378.1152a4.9644,4.9644,0,0,1,1.3291.1153c.3789.1406.9629.5234.9717.85l-.1123.5019.24.57a6.1036,6.1036,0,0,1-.9,1.9727,16.9122,16.9122,0,0,1-2.4326,2.6133,5.584,5.584,0,0,1-2.461,1.5625.4411.4411,0,0,1-.5107-.461l.0361-.5273-.0966-.8223c-.0616-.4472.2793-.832,1.5732-2.0156a22.2986,22.2986,0,0,0,2.1953-2.1309.3149.3149,0,0,0-.3291-.166c-1.9268-.0762-2.1328-.2969-2.1523-1.07C578.81,51.3839,579.5576,50.3409,580.7773,49.1085Z"/><path d="M593.8291,48.05a2.4708,2.4708,0,0,1,2.4014,1.0645,3.9525,3.9525,0,0,1,.8076,2.2285c.0713,2.748-2.31,7.4336-5.0322,7.5039-1.0752.0273-1.6621-2.3828-1.6963-3.73C590.2549,52.9913,592.0312,48.1456,593.8291,48.05Zm-.3516,1.9336a11.054,11.054,0,0,0-.9541,4.6758,4.6532,4.6532,0,0,0,.294,1.7422c1.42-1.1856,2.2646-4.3574,2.251-4.8828A1.6319,1.6319,0,0,0,593.4775,49.9835Z"/><path d="M602.291,47.4835c.55-.0156.6475.8574.6553,1.1582a14.28,14.28,0,0,1-.6445,3.166,24.5,24.5,0,0,0-.9913,3.25l.125.0235c2.3663-2.3125,3.3165-3.3106,3.87-6.0508.289-1.4317.4873-1.4629.86-1.5469l.8311.2031.3232-.082c.1494-.0039.3574.291.3682.69a7.451,7.451,0,0,1-.4219,2.0859c-.0449.2012-.2061.7559-.3848,1.5859-.3359,1.5332-.36,1.5586-.4746,1.961a8.569,8.569,0,0,0-.4746,1.9629l.2754.0429a2.98,2.98,0,0,0,.7383-.4941,3.1343,3.1343,0,0,1,.8349-.57.8281.8281,0,0,1,.6661.6328.7951.7951,0,0,1-.14.4023l-.7461,1.0957a2.7642,2.7642,0,0,1-2.3369,1.5332c-.8232.0215-1.1348-.42-1.1572-1.27a10.7585,10.7585,0,0,1,.4267-2.8359l-.0781-.1739a24.489,24.489,0,0,1-2.5146,3.3418,2.5485,2.5485,0,0,1-1.8741,1.045,1.0735,1.0735,0,0,1-1.1054-1.17,14.7245,14.7245,0,0,1,.5761-3.84l.9336-3.625a8.9185,8.9185,0,0,1-1.2187.2812.5152.5152,0,0,1-.5889-.56l.3321-.6582c.4052-.7852,1.7724-1.1191,2.3447-1.26Z"/><path d="M614.9941,43.5812q.6006-.0147.6221.81c.0059.2246-.082.7266-.1865,1.5528-.0635.4277-.126.9042-.1455,1.1308l1.792-.3223c.2246-.0058.63.209.66.4336l-.0957.1524a.8928.8928,0,0,0-.0918.3027c-.1093.6035-.874.9981-2.74,1.3438l-.7637,4.3965-.1855,1.4785.0127.5.25.0449c.25-.0313.6884-.4688,1.1513-.93.4151-.41.8057-.7969,1.0059-.8008.2-.0058.3838.3653.3926.69a2.298,2.298,0,0,1-.1612.5547l-.0224.1c-.4893,1.3886-2.52,3.1152-3.6953,3.1445-.9248.0254-1.4444-.7109-1.4776-2.0117a11.74,11.74,0,0,1,.291-2.3574l.76-4.52-.8242.07c-.25.0079-.6914-.6054-.709-1.3066-.0137-.5488.1592-.6035,1.9033-.873a13.2416,13.2416,0,0,0,.3877-1.4844c.333-1.6348.58-1.7168,1.25-1.9336A1.7224,1.7224,0,0,1,614.9941,43.5812Z"/><path d="M618.7979,55.31l.75-.02c.999.9511,1.3837,1.3164,1.3945,1.7656s-.6787.8418-1.6768.9179c-1.375-.0156-1.6679-.707-1.6806-1.207-.0079-.2988.0654-.3515.4521-.8867.1387-.43.3135-.459.5889-.4648Zm3.6083-14.3184a1.2058,1.2058,0,0,1,1.1768,1.0215l-.1318.7266.0215.85-.2.98-.8887,3.3476-.3574.66-.2237,1.0547a9.2616,9.2616,0,0,1-1.4511,2.9375l-.3282-.1407-.2646.3555-.3779-.09a1.5384,1.5384,0,0,1-.2442-.7442,10.9475,10.9475,0,0,1,.1426-1.2773l.0811-.7032a14.8129,14.8129,0,0,1,.7294-3.7441l.2979-1.082a14.6762,14.6762,0,0,0,.5439-2.19C621.08,41.95,621.7812,41.007,622.4062,40.9913Z"/><path class="cls-15" d="M639.1,52.8334v-.03c0-4.64,28.52-16.06,44.35-22.03-18.14,3.44-51.36,2.19-51.36,2.19-1.67-.82-192.35,3.58-192.35,3.58a12.0305,12.0305,0,0,0-11.69,12.3l.4,15.79a12.0393,12.0393,0,0,0,12.31,11.69l186.81-4.79a12.0305,12.0305,0,0,0,11.69-12.3l-.16-6.4v-.03"/></g></g></svg>