<svg xmlns="http://www.w3.org/2000/svg" width="736" height="593.33" viewBox="0 0 736 593.33"><defs><style>.cls-1,.cls-13,.cls-6,.cls-7{fill:none;}.cls-1{stroke:#d9666d;stroke-width:5px;}.cls-1,.cls-11,.cls-6,.cls-9{stroke-miterlimit:10;}.cls-2{fill:#d9666d;}.cls-3{fill:#ffffb6;}.cls-4{fill:#9bce06;}.cls-5{fill:#58720a;}.cls-6,.cls-7{stroke:#080017;}.cls-6,.cls-7,.cls-9{stroke-width:2px;}.cls-13,.cls-7{stroke-linecap:round;stroke-linejoin:round;}.cls-8{fill:#485908;}.cls-9{fill:#fff;}.cls-11,.cls-13,.cls-9{stroke:#000;}.cls-10{fill:#080017;}.cls-11{fill:#9b9ba9;stroke-width:0.5px;}.cls-12{fill:#3a3b3a;}.cls-14{opacity:0.51;}</style></defs><g id="Frog"><g id="tongue"><line id="tongueLine" class="cls-1" x1="269.2529" y1="437.9298" x2="606.9677" y2="398.7696"/><ellipse id="tongueEnd" class="cls-2" cx="625.0624" cy="393.4787" rx="20.4828" ry="11.4261" transform="translate(-69.333 141.7974) rotate(-12.2677)"/><path id="tongueStart" class="cls-2" d="M271.7178,435.59s-13.6354-4.1337-19.2309-1.44-17.3735,7.804-28.893,2.6585,24.3336,28.0134,40.2913,20.1382h0s-5.5307-12.3058,7.8326-16.5794S271.7178,435.59,271.7178,435.59Z"/></g><path class="cls-3" d="M290.2134,465.2756a3.24,3.24,0,0,0-1.5321-2.8063,3.1675,3.1675,0,0,0-1.76-.4357,5.3257,5.3257,0,0,0-3.1148-1.1917c-.0741-.0052-.1473-.0141-.2214-.0195a14.7144,14.7144,0,0,0-2.436-.2148,93.1749,93.1749,0,0,1-21.1126-4.7138,4.9033,4.9033,0,0,0-2.216-.2438,107.0493,107.0493,0,0,1-34.2266-18.8407c-4.6535-3.8288-11.2445,2.2172-7.7958,6.3509-.0267.0812-.0441.1712-.0669.2562a4.7512,4.7512,0,0,0-3.1854,4.4908,28.7019,28.7019,0,0,0,1.5328,9.5271,5.2193,5.2193,0,0,0,.7833,1.4568l.0317.1433a4.2469,4.2469,0,0,0,.9533,1.905c.3661,1.5709.71,3.1459,1.0426,4.7226a4.4059,4.4059,0,0,0,.0084,1.0682c.0569.4439.1239.8853.1829,1.3286l-.0043.0006.0185.1025c.8347,6.2522,1.87,12.4548,3.2085,18.6239a4.5172,4.5172,0,0,0,.3332.9808l.0977.541a51.8844,51.8844,0,0,0-3.9459,10.0591,80.3,80.3,0,0,0-4.5248,11.9633q-11.2673,8.1683-21.933,17.13c-1.5516-3.0731-7.0787-3.3917-8.9662-.1337a4.9265,4.9265,0,0,0-3.3542,1.2979,5.0417,5.0417,0,0,0-8.2032.0276,3.9245,3.9245,0,0,0-.4967.2,5.4527,5.4527,0,0,0-3.9608.2122,4.945,4.945,0,0,0-5.349,2.9934,4.9566,4.9566,0,0,0-2.3143,2.047c-.0443.0724-.0847.1465-.1287.2191-.1091.0049-.217.01-.3265.0212-1.8555-3.0424-6.497-4.2232-8.55-.2863a33.4471,33.4471,0,0,0-3.6986,12.0951,31.6592,31.6592,0,0,1-2.8763,4.1189c-2.1134,2.5594-1.8648,5.9591,1.0119,7.8529,3.7812,2.4892,8.0365,3.16,12.4879,3.2967,2.1824.0668,4.3934-.0558,6.5683.17,2.608.27,4.3809,1.4382,6.751,2.3111,4.6717,1.7205,8.9835-1.2135,13.085-3.1971,3.971-1.92,8.8857-3.4184,11.7384-6.91a18.4242,18.4242,0,0,0,1.7623-1,5.2089,5.2089,0,0,0,2.2013-6.0219c3.4072-2.3147,7.132-4.1471,10.6944-6.24A51.1916,51.1916,0,0,0,221.06,530.1506c8.1236-9.2217,15.352-19.395,22.2581-29.543a4.4023,4.4023,0,0,0,.4947-.9717A52.3835,52.3835,0,0,0,264.96,489.2164a4.0117,4.0117,0,0,0,1.6028-3.0255c.9448-.6424,1.9956-1.2607,2.4689-1.64,1.3543-1.0847,2.6843-2.2,3.9769-3.3576a99.2262,99.2262,0,0,0,8.493-8.6709,5.5875,5.5875,0,0,0,.95-1.5653c.4515-.0382.9017-.0734,1.3547-.1154a5.0627,5.0627,0,0,0,4.3938-3.0506A2.7089,2.7089,0,0,0,290.2134,465.2756Z"/><path class="cls-4" d="M271.4589,556.4184a29.753,29.753,0,0,0,5.7391-.738,39.05,39.05,0,0,1,12.11-.5055,2.2174,2.2174,0,0,0,1.56-.3315,1.6474,1.6474,0,0,0,1.7063.92l2.1024-.1556a2.0107,2.0107,0,0,0,.5317-3.9285c-5.1371-2.1573-10.6434-1.9749-16.11-2.0757-2.7418-.0506-5.4932.0463-8.2326-.0475-2.7318-.0935-5.326-1.1128-8.0729-1.1128a2.0321,2.0321,0,0,0-.7753.15,6.42,6.42,0,0,0-1.6094-.5417c-9.6556-7.5736-23.967-9.2453-35.8243-10.06a20.4014,20.4014,0,0,0-5.68.3232,7.5591,7.5591,0,0,0-6.37-1.0015,4.073,4.073,0,0,0,1.8389-3.6928,57.3644,57.3644,0,0,0-2.8678-18.3552c-.3228-.9506-.6674-1.932-1.0444-2.9161a3.8871,3.8871,0,0,0,2.4655-2.0715l2.214-4.3148a5.0464,5.0464,0,0,0,.3562-.4006,25.0483,25.0483,0,0,0,4.0981-8.4712,4.1269,4.1269,0,0,0-.0136-2.3323,5.4144,5.4144,0,0,0,.2475-1.8124,45.4481,45.4481,0,0,0,.3653-22.9035,6.3314,6.3314,0,0,0,.4865-3.4832c-.6184-4.9978-2.2036-10.1107-3.3748-15.005a22.2939,22.2939,0,0,0-1.1516-3.6584,28.9863,28.9863,0,0,0,1.1328-3.27l2.796-9.2242c.7251-.4631,1.547-1.0537,2.3284-1.6334a52.1375,52.1375,0,0,0,29.9855-8.9084,4.6471,4.6471,0,0,0,2.2809-1.2251l2.2606-2.1256a5.23,5.23,0,0,0,.7258-.8407q.5046-.4347,1.0416-.8473c4.812-1.7177,10.5634-6.3891,12.7676-8.1129,8.2637-6.4626,16.5984-14.6028,21.8609-23.7854,2.1189-3.6973,3.3531-8.4375.8306-12.2776-2.5428-3.8709-8.1863-5.422-12.4426-6.32-11.7642-2.4824-23.774-.1-35.3223,2.3895a3.7329,3.7329,0,0,0-1.1415.4719,4.6973,4.6973,0,0,0-.9912-.5978,9.8961,9.8961,0,0,0-6.08-.9722c-1.8137.2906-4.2808,2.0107-6.1308,1.8893a13.8706,13.8706,0,0,0-1.4661-.17,17.0156,17.0156,0,0,1-3.4707.6486c-1.0922.3557-4.8046-2.8763-5.9951-3.47a22.2043,22.2043,0,0,0-7.34-2.3474,14.8774,14.8774,0,0,0-10.7884,2.7583,10.1782,10.1782,0,0,0-1.6122,1.346,4.5981,4.5981,0,0,0-1.1029,1.75,18.0735,18.0735,0,0,0-3.7642,5.4278,5.4692,5.4692,0,0,0-.4094,2.9146,17.0149,17.0149,0,0,0-1.41,8.2567c-.205.1572-.4067.3218-.6072.4889a9.4471,9.4471,0,0,0-3.7621,1.167c-2.2388,1.2331-3.6865,3.2206-5.2558,5.1077a4.79,4.79,0,0,0-1.0635.891l-1.7032,1.9228a4.7771,4.7771,0,0,0-1.2991,2.9473c-1.636,2.46-3.3713,4.778-4.3033,7.6466a3.5491,3.5491,0,0,0-.5509.1509q-4.9985,1.8405-9.9178,3.8733a5.33,5.33,0,0,0-2.5656,2.2027c-6.9284,1.8862-13.3659,5.0959-20.4345,6.7554-8.8711,2.0827-18.0559,1.8614-26.5682,5.4487a4.9855,4.9855,0,0,0-1.08.626,2.6138,2.6138,0,0,0-2.5578-.0564c-.4727.2333-.9543.4469-1.4374.6573a32.0273,32.0273,0,0,1-4.533,1.4759,2.52,2.52,0,0,0-1.7119,1.648c-.0168.0075-.0344.0115-.0511.0192A119.8449,119.8449,0,0,0,85.701,443.9763a2.8243,2.8243,0,0,0-.7391.765,68.3984,68.3984,0,0,0-9.9272,8.5078,11.4579,11.4579,0,0,0-2.9674,3.326,2.3869,2.3869,0,0,0-.218.4869A33.793,33.793,0,0,0,57.097,474.5908a1.7573,1.7573,0,0,0-.0848.3438,127.2908,127.2908,0,0,0-19.051,32.3479,1.9508,1.9508,0,0,0,.0061,1.5282,11.677,11.677,0,0,0-4.4959,2.0747c-8.0218,3.8628-15.0459,9.94-16.7262,19.1937a29.3434,29.3434,0,0,0,1.8793,15.7887,55.49,55.49,0,0,0,3.8062,8.1973c.4306.7357.8921,1.4488,1.37,2.1521a12.5909,12.5909,0,0,0,5.91,8.7661c5.4206,3.354,10.7623,7.48,17.21,7.9494a6.511,6.511,0,0,0,6.7846,2.5874,15.0851,15.0851,0,0,1,2.1715-.3642c.47.0752,1.0928.1349,1.6091.1733a3.5722,3.5722,0,0,0,3.59,1.538q1.9744-.2142,3.9292-.2847a4.49,4.49,0,0,0,3.1186,1.2429q5.541.1833,11.0757.0956a4.1243,4.1243,0,0,0,2.0361.5335l6.2432,0a8.504,8.504,0,0,0,3.6822.2416,117.6663,117.6663,0,0,0,19.0042-.76c4.2444-.4494,6.802,1.5152,10.6776,2.5676,1.8293.4968,4.4152.2407,6.63.3989a5.1816,5.1816,0,0,0,2.43.9626l2.7872.3707a3.5123,3.5123,0,0,0,2.5962-.6118c1.5386-.0383,3.0778-.0555,4.6215-.0378a4.0517,4.0517,0,0,0,1.352-.2145,100.4642,100.4642,0,0,0,15.5353,4.9462,1.5136,1.5136,0,0,0,1.4594-2.5071,24.7034,24.7034,0,0,0-11.1486-7.7827,1.4766,1.4766,0,0,0-.7087-.0781,8.3555,8.3555,0,0,0-2.5919-1.2576,3.6961,3.6961,0,0,0-.7583-.907,17.5587,17.5587,0,0,0,3.5456-.7313c3.0574.9086,6.2836.55,9.4465.3979a24.0343,24.0343,0,0,1,5.4262.2979,21.3928,21.3928,0,0,0,5.71.5315,1.5,1.5,0,0,0,.7773-.3084c.9013.2027,1.7953.4494,2.676.7019q.5961.171,1.1905.3452c.3852.1247.77.25,1.15.3883,1.8971.6937,3.6576,1.7009,5.5835,2.3281,1.6443.5354,2.5884-1.88,1.1559-2.7417a29.703,29.703,0,0,0-7.012-2.8461c-1.6534-.5409-3.3535-.9693-5.0189-1.4478l-11.2915-3.2445a2.6728,2.6728,0,0,0-1.7464-.4408,1.6432,1.6432,0,0,0-.5221.1465q-.9851-.2213-1.96-.4827a1.1957,1.1957,0,0,0-1.045-1.1063,4.8237,4.8237,0,0,0-1.3577-.07c-.0536-.0848-.1123-.1656-.1708-.2471a12.078,12.078,0,0,0,1.4429-.8292c1.5.1106,3.0053.3747,4.4937.5717a21.5254,21.5254,0,0,0,4.5951.2373,6.1128,6.1128,0,0,0,2.8126-.7133,20.6729,20.6729,0,0,1,3.2461.9656c1.4159.559,2.5109-1.5378,1.4594-2.5071-3.0026-2.7681-7.1593-3.1918-11.01-3.88a40.8379,40.8379,0,0,0-6.641-.9435,15.5248,15.5248,0,0,0-4.3329.6834,3.21,3.21,0,0,0-2.1771.4411,4.16,4.16,0,0,0-1.4893-.2359,5.96,5.96,0,0,0,.0548-2.6572c.4194-.2546.839-.5245,1.26-.83,4.9816-3.62,7.3116-8.6825,9.434-14.2936a10.1418,10.1418,0,0,0,.5644-5.417,32.9323,32.9323,0,0,0,9.8835-2.0145c2.8864-.3158,5.756-.9191,8.3684-1.4577,5.0348-1.038,11.4866-1.8873,15.8075-4.658,1.1086,3.4263,1.8811,6.9986,2.8183,10.3895,1.8122,6.5572,4.2308,12.6811,8.82,17.8164a3.8531,3.8531,0,0,0,1.2024.91,5.4617,5.4617,0,0,0,1.8576,1.7563,26.7708,26.7708,0,0,0,8.8393,3.321,5.2252,5.2252,0,0,0,3.6333,2.7992c6.2187,1.4573,12.4241,3.0128,18.6748,4.327,2.6769.5629,5.4089.8484,8.0789,1.4147,2.1847.4632,4.2449,1.3938,6.4163,1.8671a1.7621,1.7621,0,0,0,1.309,1.0766,39.6869,39.6869,0,0,1,8.36,2.9947,1.9639,1.9639,0,0,0,2.1-.1758c.6777.3224,1.3486.645,2.012.9505q5.9958,2.7615,11.785,5.94a2.009,2.009,0,0,0,2.4237-3.1412c-4.332-4.7445-10.2115-7.4919-15.1958-11.4138a18.6394,18.6394,0,0,0,2.1892-.012,35.61,35.61,0,0,1,8.0271,1.4922c2.7319.6715,5.4854,1.2875,8.1938,2.05,2.7343.77,5.2846,2.1166,8.0514,2.7536a2.1117,2.1117,0,0,0,.426.0359c.0549.0219.11.0424.1653.0644a1.6333,1.6333,0,0,0,1.9611-.5394c.0793.04.1587.08.2378.12.9836.7109,1.97,1.4113,2.9745,2.067,1.7107,1.117,3.7145-1.0637,2.7363-2.7364a8.546,8.546,0,0,0-4.0217-3.0043,90.0968,90.0968,0,0,0-9.0933-6.1257,28.6108,28.6108,0,0,0-6.7836-2.7625c-2.417-.602-4.9258-.5552-7.32-1.2611-.6456-.19-1.3139-.4334-1.9924-.654a8.8577,8.8577,0,0,0,.0668-1.6339c-.005-.0978-.0081-.2017-.01-.3084a1.59,1.59,0,0,0,.7515-.5147C268.3142,556.033,269.6392,556.3605,271.4589,556.4184Zm-148.9969,4.83a12.5225,12.5225,0,0,0-1.6714-.057,23.4715,23.4715,0,0,1,4.4009-1.3075c1.2031-.1785,2.3742-.2947,3.5215-.3919v.0036C126.6142,560.0421,124.585,560.7583,122.462,561.248Zm29.6694-24.5133.1419.5247Q151.4882,540.7457,152.1314,536.7347Zm45.61-5.2293q-.1615-.6191-.3261-1.2337a74.3121,74.3121,0,0,0-2.4787-7.7045q.58-.4832,1.1049-1.0167A15.6415,15.6415,0,0,1,197.7416,531.5054ZM207.4289,386.1a4.64,4.64,0,0,0-1.6841-3.34,3.667,3.667,0,0,0,.5094-2.8578,11.15,11.15,0,0,1,3.9254-2.7488,4.0308,4.0308,0,0,0,1.66-1.2923c3.0322-.02,6.2424,2.2387,9.4819,4.018a5.1211,5.1211,0,0,0,1.0287,1.55,5.6968,5.6968,0,0,0,1.1688.9513l1.4461,1.177a89.6446,89.6446,0,0,0-7.5808,5.7282,14.3463,14.3463,0,0,0-9.71.1563Z"/><path class="cls-5" d="M231.6365,550.7966a10.8382,10.8382,0,0,0-3.4214-2.7521c-2.05-.9787-3.8526.2158-5.6538,1.1587a39.2319,39.2319,0,0,0-4.64,2.5522,30.61,30.61,0,0,0-3.82,3.5147q-1.9621,1.9743-3.9245,3.9485c-1.8948,1.9062.2509,4.6717,2.3339,4.2119a2.24,2.24,0,0,0,.8631.8981,21.0472,21.0472,0,0,0,7.2154,1.9531,18.4532,18.4532,0,0,1,3.4643.8108,26.1562,26.1562,0,0,0,3.7558,1.3067,2.5423,2.5423,0,0,0,3.0752-1.7461c.7645-3.4391,1.75-6.9062,2.2622-10.3917A6.5994,6.5994,0,0,0,231.6365,550.7966Z"/><path class="cls-5" d="M205.8516,521.5894c-1.5327-2.46-5.1025-1.8791-7.56-1.67a46.7344,46.7344,0,0,0-8.6781,1.5532,2.5513,2.5513,0,0,0-1.7461,3.0753,33.0416,33.0416,0,0,1,.8785,8.15,2.4222,2.4222,0,0,0,.6944,1.6976c-.0182.1-.0409.1987-.05.3035q-.09.9948-.18,1.99a2.5058,2.5058,0,0,0,1.8355,2.4107,2.6374,2.6374,0,0,0,2.8232-1.1489q.273-.3731.55-.743.1129-.15.2268-.2993l.0258-.033q.61-.7808,1.2477-1.5392,1.1467-1.3656,2.3774-2.658a26.7206,26.7206,0,0,1,2.4423-2.3019l.049-.04q.109-.0824.2184-.1645c.2036-.1527.4084-.3038.6123-.4562.5188-.3875,1.0373-.7779,1.5384-1.1882C205.0177,527.0037,207.406,524.0842,205.8516,521.5894Z"/><path class="cls-5" d="M137.1168,550.9613q-.1934-3.1182-.3868-6.2363a25.9506,25.9506,0,0,0-.78-5.6753,46.6554,46.6554,0,0,0-2.0821-5.6427c-1.3331-3.0441-3.8508-6.5493-7.3355-7.2367-2.4937-.4918-4.0107,1.7916-4.8911,3.78a12.1126,12.1126,0,0,0-1.0009,6.4848c.0022.0168.0074.032.01.0487-1.74,7.4347-.59,15.2086-1.4951,22.7631a2.5141,2.5141,0,0,0,2.5,2.5,2.2924,2.2924,0,0,0,2.0723-1.209,2.4669,2.4669,0,0,0,1.9564.3269l6.1761-1.5581c1.7468-.4406,3.9862-.6669,5.0027-2.3689C137.8447,555.2933,137.23,552.7808,137.1168,550.9613Z"/><path class="cls-5" d="M95.3886,561.0649a37.5631,37.5631,0,0,1-.9579-9.9941c-.0166-1.6794-.0408-3.3619-.199-5.0352a27.6964,27.6964,0,0,1-.2623-5.1043,33.6517,33.6517,0,0,0-.7912-9.9641c-.3375-1.6254-.734-3.2379-1.1592-4.8423a52.1781,52.1781,0,0,0-1.47-5.2564c-1.3765-3.5949-4.662.9148-5.4123,2.53a82.0358,82.0358,0,0,0-3.1445,9.1072c-1.0648,3.2527-2.1617,6.4892-2.9122,9.8326-.7562,3.3683-1.3929,6.766-2.0774,10.1494-.3138,1.5509-1.0326,3.4773-.7072,5.0793.345,1.6992,1.678,2.1072,3.1868,2.4328l12.1137,2.6146a1.5674,1.5674,0,0,0,1.17-.2183A1.5139,1.5139,0,0,0,95.3886,561.0649Z"/><path class="cls-6" d="M188.0645,527.3471c-9.05,3.67-20.41,6.58-34.61,8.42"/><path class="cls-6" d="M230.1745,426.2271a38.0576,38.0576,0,0,0-7.92,7.23.6885.6885,0,0,0-.11.13c-3.15,3.86-6.03,9.06-6.03,15.23,0,9.43,15.7,41.49-6.2,64.46"/><path class="cls-6" d="M37.0945,508.5519s32.39-82.7448,102.3-84.8748c0,0,29.13-9.59,37.76-15.16"/><path class="cls-6" d="M173.9141,421.5434s.8524-20.8851,20.0326-33.2456"/><path class="cls-6" d="M37.0958,544.7224s51.5733,26.426,81.8352,17.049c0,0,42.6226-10.2294,50.7208,3.8361,0,0-24.721-.4263-30.2619,0"/><path class="cls-6" d="M141.26,558.4146s49.7411-40.7293-54.1522-56.6788c0,0-109.21-4.9477-57.5955,63.8717,0,0,17.0571,17.4265,86.6147,12.7746a42.6077,42.6077,0,0,0,24.5889,3.3228s12.4051,4.6519,18.3862,4.6519c0,0,1.1229-8.3917-25.6964-15.5064"/><path class="cls-6" d="M140.9259,573.1112s28.3457-.2672,38.1029,5.2709c0,0,12.8589-3.7749-30.1164-12.9635"/><path class="cls-7" d="M256.793,465.4064s16.8356,8.6393,25.9179,6.6456c0,0,21.266-10.4115-5.3165-12.6267,0,0-44.0728-6.2049-55.2122-25.8906l11.8994-1.4693a41.7244,41.7244,0,0,0,18.3338-6.75c78.9535-52.8588,26.3379-59.9345,13.5633-57.05-13.213,2.9836-39.2127,3.836-39.2127,3.836-34.098-19.18-32.8193,21.3113-32.8193,21.3113"/><path class="cls-6" d="M282.7109,472.052s-18.0786,16.7829-22.08,20.4508-20.34,11.3371-25.6751,6.3354"/><path class="cls-6" d="M244.4662,499.9768s-28.1833,39.5416-30.8508,37.5409"/><path class="cls-6" d="M169.6518,565.6075s25.4312-10.3847,26.3309-13.0836"/><path class="cls-6" d="M204.6609,488.7114s11.879,13.32,4.3183,22.4914"/><path class="cls-6" d="M187.5675,519.66c-11.3357-4.8582-6.7363-20.872-6.7363-20.872"/><path class="cls-6" d="M187.5675,506.8845s-3.4187,44.4429,17.0934,52.9c0,0,9.1765,7.4987,40.6644,12.1161,0,0,28.9689,9.2956,29.3287,12.7143,0,0,6.1177-4.1384-13.3148-16.3737,0,0,30.3047,6.2976,33.5953,9.3564,0,0,6.1694-7.3116-28.9171-18.77,0,0-6.2976-2.7037,30.4083-3.6623,0,0,7.5571-7.4362-34.5468-6.3566,0,0-17.0949-14.1577-53.8-11.2173"/><path class="cls-6" d="M213.6154,537.5177c1.3973-28.744-14.8922-39.63-14.8922-39.63"/><path class="cls-8" d="M285.1848,377.44s-2.0238,4.4415,3.5577,6.0207C288.7425,383.461,293.8054,378.535,285.1848,377.44Z"/><ellipse class="cls-5" cx="120.8908" cy="476.5569" rx="16.431" ry="7.5809" transform="translate(-228.4318 130.5875) rotate(-31.042)"/><ellipse class="cls-5" cx="154.9605" cy="448.2498" rx="11.5168" ry="5.3136" transform="translate(-208.9556 144.1022) rotate(-31.042)"/><ellipse class="cls-5" cx="77.1307" cy="482.2487" rx="11.5295" ry="5.3195" transform="translate(-237.6337 108.837) rotate(-31.042)"/><ellipse class="cls-5" cx="100.2746" cy="462.422" rx="10.2177" ry="4.7142" transform="translate(-224.0953 117.9321) rotate(-31.042)"/><ellipse class="cls-5" cx="123.822" cy="448.2498" rx="7.6067" ry="3.5096" transform="translate(-213.4149 128.0451) rotate(-31.042)"/><path class="cls-6" d="M75.8532,559.5009s15.3385-92.9531,19.8147,3.8241"/><path class="cls-6" d="M118.931,561.7714s-1.6963-35.4468,6.7215-36.3328,14.14,21.3656,10.9465,33.3887"/><path class="cls-6" d="M208.0788,561.834s14.0157-15.9474,19.4153-14.2118,7.2919,5.6109,2.6817,21.5114"/><path class="cls-6" d="M190.6,540.6149s17.2292-14.3559,15.612-18.4483-14.6963-2.7-18.5949,0"/><path class="cls-9" d="M220.43,415.446s18.947-5.7476,9.7462-21.9764-13.693-22.6526-22.097-19.9478S210.1432,422.681,220.43,415.446Z"/><ellipse class="cls-10" cx="222.5211" cy="396.7862" rx="4.8207" ry="7.4883" transform="translate(-109.5106 85.8041) rotate(-17.5909)"/></g><g id="fly"><path d="M629.01,398.0392s5.7349,7.2148,14.06,8.6947a35.3957,35.3957,0,0,1,14.6145,6.66s10.36,6.29,13.69-1.6649-2.7749-15.54-2.7749-15.54-18.3144-15.17-32.744-12.3946c0,0,1.11-6.8448-3.1449-6.1048,0,0-.52-11.7914-12.4729-3.6444a6.8321,6.8321,0,0,0-1.9906,2.0976c-2.0587,3.3912-7.3332,12.9716-4.6235,18.09,0,0,.4026,1.5863,3.9175,1.7712C617.54,396.0042,618.0952,407.6589,629.01,398.0392Z"/><path class="cls-11" d="M638.0535,383.5182s23.8853-35.4275,61.6242-21.7379a22.6457,22.6457,0,0,1-2.405,20.1644C690.6129,392.3044,638.0535,383.5182,638.0535,383.5182Z"/><path class="cls-11" d="M637.15,386.94s34.8505-32.004,65.673-11.1c0,0,4.44,7.9547-9.62,19.4244,0,0-16.8345,3.7-42.7337,0C650.4692,395.2643,638.26,389.8994,637.15,386.94Z"/><ellipse class="cls-12" cx="626.0294" cy="388.5797" rx="10.9048" ry="5.3672" transform="translate(29.6112 821.2369) rotate(-67.7862)"/><polygon points="613.765 393.712 608.577 396.893 607.398 392.906 613.481 392.754 613.765 393.712 613.765 393.712"/><path class="cls-13" d="M630.8887,400.0451a10.1365,10.1365,0,0,0-1.4753,8.5377"/><path class="cls-13" d="M633.595,402.3529s-7.9315,1.3771-10.1373,5.127"/><path class="cls-13" d="M657.6839,413.3937s1.95,5.1154-1.1387,7.5418"/><path class="cls-13" d="M665.5957,415.75s3.0948,6.5087,0,8.0528"/><path class="cls-13" d="M671.3735,411.7288s3.9214,6.6685,2.1567,8.0479"/></g><g id="Text"><g class="cls-14"><path d="M85.8755,391.5293c-.499-2.9336-.501-4.5645.7861-4.9727a11.3936,11.3936,0,0,1,1.336-.124,5.5889,5.5889,0,0,0,1.9843-.2422,28.4493,28.4493,0,0,1,2.8584-.7353c3.6387-.8516,4.8155-.7969,6.8858.18a6.2821,6.2821,0,0,1,3.0371,3.0742,23.99,23.99,0,0,1-.2969,6.9219c-1.4326,4.9648-1.8144,5.3867-4.9639,10.8945a26.4192,26.4192,0,0,1-1.46,2.4394l-1.9336,2.0293a10.5734,10.5734,0,0,1-2.0342,1.8477,2.6216,2.6216,0,0,1-.71-.0762,2.1364,2.1364,0,0,0-.582-.0722c-2.04.4746-2.8848.6562-3.1318-.1241a5.4734,5.4734,0,0,1-.14-1.1162l-.0957-1.3867c-.0088-.2988-.0869-1.0879-.1953-4.2754l-.0771-2.6806-.7442-7.4952Zm4.0224-1.4043,1.0762,5.1562.57,4.3711.51,6.7539c3.7871-5.7968,7.1113-12.6484,5.96-17.91a15.7161,15.7161,0,0,0-4.9551.6269Z"/><path d="M112.6675,388.79c1.873-.5947,3.13.253,3.8349,2.4776.792,2.498.5674,3.6855-1.0029,5.6426a8.3693,8.3693,0,0,1-2.2695,2.0527c-1.4893.8574-1.5059,1.207-1.11,2.4551.3711,1.1718.72,1.1894,1.3448.9922a4.7543,4.7543,0,0,0,1.5683-1.0127l1.8906-1.7588c.5606-.2637.8653.9687,1.0245,1.6074.2275,3.0195-2.6124,5.0371-4.212,5.5439-2.2636.7178-3.8349-.7168-4.8613-3.956C108.02,400.1416,107.3989,390.4609,112.6675,388.79Zm-1.3477,7.9424.1778.2891c.8476-.4414,2.747-2.8477,2.3886-3.9805-.124-.39-.708-1.1484-1.2929-.9629C111.4233,392.4492,111.2358,396.33,111.32,396.7324Z"/><path d="M129.2065,372.6807a5.0409,5.0409,0,0,1,3.919.3037,1.4078,1.4078,0,0,1-.1055,1.0215l-.0556.2324c.0087.2969-.0323.4394-.4.7695.0507.9727-.0186,1.2949-1.4629,1.7539l-4.7754,1.6.8056,3.3516a12.6588,12.6588,0,0,0,.4649,2.6875l1.3271-.4219,5.9151-2.4765c.417-.1739.7256-.0137.8984.5322a4.0819,4.0819,0,0,1,.1611,1.3232,4.25,4.25,0,0,0,.1749,1.3633l-.1163.8516c-.1728.2695-.8984,1.23-3.8525,2.2089-3.7334,1.2266-3.7637,1.5372-3.8174,1.6407l.0664,1.6972a19.1652,19.1652,0,0,0,.208,3.3682c.2119,2.2959.4991,4.8232.1787,5.44l-.0654.0645a2.8994,2.8994,0,0,0-.77,2.1777c-.0469.6582-.1211,1.24-.707,1.4258a4.0145,4.0145,0,0,1-2.17-.3437l-.5938-.1114c-.31-.0312-.6992-.0371-1.1074-1.3242a10.9148,10.9148,0,0,1-.0147-2.4863c.3672-3.8535-.915-11.6914-1.0224-12.3008l-.2578-1.8955-.5889-6.5986c-.2393-.4825-.8125-1.0743-.8994-1.3477-.1612-.5068.9219-1.9668,1.8193-2.252a2.7779,2.7779,0,0,1,1.0244-.0234Z"/><path d="M139.9956,382.0576c-.0547-.583,2.7539-3.2334,4.0039-3.63a1.235,1.235,0,0,1,1.3281.3946c.6309.2285.6944.2949.7559.49l.4062.6016a13.7111,13.7111,0,0,1,.0645,2.6425l-.2363,5.4864.1142,2.7978.1524.208c.4951-.1992.5478-.3027,1.3115-1.1445l.2383-.334c.8183-1.0762.8447-1.126,1.2744-1.2617a1.8679,1.8679,0,0,1,.6084.8379l.0742,1.9941c.0352,1.1914-2.6055,4.6485-4.167,5.1426-.9365.2969-1.7871.0527-2.2949-1.5478a24.0685,24.0685,0,0,1-.5234-4.9024l-.0674-5.0889-.2071-1.7382-1.6972.8808a.8435.8435,0,0,1-1.1543-.664Zm2.44-12.626a2.435,2.435,0,0,1,3.2051,1.3028l.6807,1.2011c.1367.43-1.1074,1.3819-1.459,1.4922a1.6539,1.6539,0,0,1-1.5781-.1l-1.2071-.6914-.1074-.6094a4.2424,4.2424,0,0,1-.1806-1.789l.0263-.0528A2.0148,2.0148,0,0,0,142.436,369.4316Z"/></g><g class="cls-14"><path d="M622.6914,459.7393c1.8418-3.1114,9.0068-8.1465,11.4629-8.1465.45,0,.9414.2451,1.8018,1.0234l.7363.6143c.9014.6953.9824.9.9824,1.3506,0,.9414-.1221,2.5791-.9,2.5791l-.6553-.2862-.6132.1631a2.3879,2.3879,0,0,0-.9834-.45c-2.21-.1631-3.93,1.4336-6.4268,4.5449-3.07,3.8067-5.2812,9.5381-5.2812,10.89,0,1.4326.9824,2.2109,2.7421,2.2109,1.5567,0,3.7666-1.1875,6.1827-2.8662a12.4625,12.4625,0,0,1,2.8242-1.6377,1.2135,1.2135,0,0,1,.6142.2051c-.041.45.1231,1.5967-.2451,2.17-1.5556,2.9063-5.0771,7.1641-7.6972,7.2051-2.4151.041-9.8663-1.3106-9.8663-6.2637a19.6221,19.6221,0,0,1,2.334-8.2695Z"/><path d="M646.8867,462.0322c1.9649,0,2.9072,1.1875,2.9072,3.5205,0,2.62-.5732,3.6846-2.6611,5.0762a8.3445,8.3445,0,0,1-2.7842,1.2695c-1.6787.3682-1.8007.6963-1.8007,2.0059,0,1.2285.3271,1.3516.9824,1.3516a4.7419,4.7419,0,0,0,1.8008-.4913l2.3339-1.1054c.6143-.0821.5323,1.1865.4912,1.8418-.6962,2.9482-4.0126,4.0127-5.69,4.0127-2.375,0-3.4394-1.8428-3.4394-5.24C639.0264,471.4482,641.36,462.0322,646.8867,462.0322Zm-3.6846,7.1641.0821.3281c.9414-.164,3.4795-1.8838,3.4795-3.0713,0-.4092-.3272-1.31-.9414-1.31C644.5947,465.1436,643.2432,468.7871,643.2021,469.1963Z"/><path d="M667.5215,451.6748a5.0379,5.0379,0,0,1,3.6435,1.4736c0,.3272-.082.4912-.4091.9414l-.1231.2051c-.082.2862-.164.4092-.6142.6133-.2461.9424-.4092,1.2285-1.9239,1.2285l-5.0361.0821-.2451,3.4384a12.6616,12.6616,0,0,0-.3692,2.7022h1.3926l6.3867-.5733c.45-.041.6953.2051.6953.7784a4.0853,4.0853,0,0,1-.2451,1.31,4.1951,4.1951,0,0,0-.2461,1.3516l-.3681.7773c-.2461.2051-1.2285.9014-4.34.9414-3.93.0411-4.0527.3282-4.1347.41l-.45,1.6377a19.3766,19.3766,0,0,0-.8194,3.2744c-.4912,2.252-.9824,4.749-1.4736,5.24l-.082.0411c-.6133.3691-.9.6142-1.3916,1.8427-.2452.6143-.4912,1.1465-1.1055,1.1465a4.0291,4.0291,0,0,1-1.9648-.9834l-.5323-.2861c-.2861-.1231-.6552-.2461-.6552-1.5967a10.89,10.89,0,0,1,.7373-2.374c1.5146-3.5625,2.6611-11.4229,2.7431-12.0362l.3272-1.8837,1.4326-6.4688c-.082-.5322-.45-1.2686-.45-1.5557,0-.5322,1.4736-1.5966,2.415-1.5966a2.7769,2.7769,0,0,1,.9834.2871Z"/><path d="M674.9727,463.874c.123-.5732,3.6025-2.251,4.913-2.251.45,0,.7784.1631,1.1465.7774.5323.4092.5733.4912.5733.6963l.2041.6963a13.676,13.676,0,0,1-.7364,2.5381l-1.8837,5.1582-.7364,2.7021.0821.2451c.5322-.041.6132-.123,1.5966-.6953l.3272-.2461c1.1055-.7783,1.1465-.8183,1.5967-.8183a1.8748,1.8748,0,0,1,.3271.9824l-.5322,1.9238c-.3272,1.1465-3.8887,3.6436-5.5264,3.6436-.9824,0-1.72-.4912-1.72-2.17a24.0441,24.0441,0,0,1,.9824-4.831l1.4736-4.8711.3282-1.72-1.8838.3271c-.5733,0-.9-.3271-.9-.9824Zm6.1416-11.2988a2.4351,2.4351,0,0,1,2.6611,2.2109l.2861,1.3506c0,.45-1.4736.9824-1.8418.9824a1.6551,1.6551,0,0,1-1.4746-.5732l-.9414-1.0234.082-.6143a4.2483,4.2483,0,0,1,.3682-1.76l.041-.041A2.033,2.033,0,0,0,681.1143,452.5752Z"/></g></g></svg>