<svg xmlns="http://www.w3.org/2000/svg" xmlns:xlink="http://www.w3.org/1999/xlink" width="569" height="467" viewBox="0 0 569 467"><defs><style>.cls-1,.cls-8{fill:none;}.cls-2{fill:#fbb03b;stroke-width:0.5052px;}.cls-2,.cls-3,.cls-4,.cls-5,.cls-8{stroke:#000;}.cls-2,.cls-3,.cls-4,.cls-5{stroke-miterlimit:10;}.cls-3{stroke-width:0.9502px;}.cls-4{fill:#9acf07;}.cls-5{fill:url(#radial-gradient);}.cls-6{clip-path:url(#clip-path);}.cls-7{fill:#d8a2c6;}.cls-8{stroke-linecap:round;stroke-linejoin:round;stroke-width:3px;}.cls-9{fill:#fff;}.cls-10{clip-path:url(#clip-path-2);}</style><radialGradient id="radial-gradient" cx="294" cy="164.8452" fy="369.4824503715578" r="350.6312" gradientUnits="userSpaceOnUse"><stop offset="0" stop-color="#f15a24"/><stop offset="0.5791" stop-color="#fbb03b"/></radialGradient><clipPath id="clip-path"><rect class="cls-1" x="172" y="91" width="121.5" height="282"/></clipPath><clipPath id="clip-path-2"><rect class="cls-1" x="293.5" y="91" width="121.5" height="282"/></clipPath></defs><g id="LotusBackground"><polygon class="cls-2" points="18.872 235.898 54.745 264.766 61.809 219.265 18.872 235.898"/><polygon class="cls-2" points="50.678 143.261 74.343 182.762 96.719 142.518 50.678 143.261"/><polygon class="cls-2" points="112.582 67.358 121.112 112.608 156.035 82.596 112.582 67.358"/><polygon class="cls-2" points="196.931 17.574 189.272 62.979 232.424 46.909 196.931 17.574"/><polygon class="cls-2" points="293.298 0.061 270.397 40.009 316.443 39.868 293.298 0.061"/><polygon class="cls-2" points="389.77 16.984 354.458 46.537 397.707 62.342 389.77 16.984"/><polygon class="cls-2" points="474.422 66.253 431.063 81.756 466.169 111.554 474.422 66.253"/><polygon class="cls-2" points="536.788 141.775 490.744 141.313 513.366 181.42 536.788 141.775"/><polygon class="cls-2" points="569.161 234.216 526.122 217.846 533.465 263.303 569.161 234.216"/><path id="BlackKichad" class="cls-3" d="M64.5,279.5s-96,84-54,97c0,0,35.4233-5.1647,53.6967-19.0511C86.5,340.5,64.5,403.5,85.5,431.5s68.2828-24,97.1414-44,15.8586,53,57.8586,76,109.3737-92.6585,164.1868-81.8293S431.5,433.5,446.5,446.5s51,15,88-46-11-121-11-121Z"/><path id="LeafSemiCircle" class="cls-4" d="M221,267.5s-9.52,66.7563,72.48,65.8781S362.2137,267.5,362.2137,267.5H221"/><path id="SunSemiCircle" class="cls-5" d="M294,50.19C167.2468,50.19,64.4672,152.81,64.1967,279.5H523.8033C523.5328,152.81,420.7532,50.19,294,50.19Z"/></g><g id="Lotus"><g class="cls-6"><path id="LotusColor" class="cls-7" d="M186.7054,255.9861q.2943.2.589.3987c-.2-.7459,5.5239-2.9212,6.1108-3.1082A41.56,41.56,0,0,1,203.12,251.26a22.9417,22.9417,0,0,1,4.3944.1164,18.8857,18.8857,0,0,1-1.7957-4.0681,45.0869,45.0869,0,0,1-19.5828-23.6821,4.4554,4.4554,0,0,1-.1484-2.9292,10.0781,10.0781,0,0,1-.6118-1.5459c-2.3157-1.3245-1.4543-5.7744,1.6078-5.58.07.0045.1411.0082.2115.0126a2.6506,2.6506,0,0,1,.6651-.0359l.2823.0232a2.8818,2.8818,0,0,1,2.2143.1812l.4875.04c5.6759.3025,11.3835.5439,17.0043,1.2775a34.0716,34.0716,0,0,1,8.5214,2.1148,136.92,136.92,0,0,1-8.1071-32.3716,109.3327,109.3327,0,0,1-3.45-19.06c-.2869-3.2466-.0733-6.6773-.69-9.8823-.6453-3.3517-2.6322-6.0795-4.5817-8.7879-1.6679-2.3174,1.0766-4.859,3.3879-4.4071,1.1352.2219,2.2949.4215,3.4664.6162a3.0188,3.0188,0,0,1,2.3646-.5147l1.6566.2963a2.5255,2.5255,0,0,1,1.6754,1.1883,40.1157,40.1157,0,0,1,10.6476,3.2412,2.611,2.611,0,0,1,1.394,1.5052,18.1313,18.1313,0,0,1,4.7188.8918,6.3521,6.3521,0,0,1,.4087-3.604,27.621,27.621,0,0,0,.9983-2.6209,6.2718,6.2718,0,0,1-.3448-1.5176,48.5911,48.5911,0,0,1,2.0335-18.88,5.45,5.45,0,0,1,2.6239-3.2992,6.5515,6.5515,0,0,1,.9767-1.7826,2.8131,2.8131,0,0,1,.1476-2.6423,3.4867,3.4867,0,0,1,6.0842.2364c.0507.0946.0871.2008.1344.2982a33.9368,33.9368,0,0,1,13.57,6.701c3.1486,1.6223,6.276,3.2861,9.3677,5.0191,3.19,1.7879,6.6046,3.7818,8.6563,6.5165a12.2837,12.2837,0,0,1,1.184-2.9437c.7863-1.2976,2.189-1.8629,3.1378-3.0292a2.7044,2.7044,0,0,1,1.0384-.8083,3.2118,3.2118,0,0,1,.1244-.772,45.5966,45.5966,0,0,1,5.0578-10.7781,42.4019,42.4019,0,0,1,1.9449-6.8232,5.53,5.53,0,0,1,3.6084-3.44,12.8364,12.8364,0,0,0,.5931-3.322c.138-3.85,6.1387-3.8682,6,0a18.8576,18.8576,0,0,1-.7359,4.4705,4.4325,4.4325,0,0,1,1.1415,5.2152,35.3627,35.3627,0,0,0-2.1915,16.4095,4.4562,4.4562,0,0,1-.907,3.0694c.0224.1572.0382.3159.0616.4729a5.2938,5.2938,0,0,1,1.6408,3.7573,24.3566,24.3566,0,0,1-.1487,3.9322,6.02,6.02,0,0,1-.3114,1.321c.0354.1364.0871.2619.1105.4062a95.702,95.702,0,0,1,1.1088,22.2739l.2679,18.0547a4.8294,4.8294,0,0,1-1.15,3.24q.4869,5.1867,1.0317,10.3684a4.6185,4.6185,0,0,1-.0947,1.5823c.365,2.5746.7648,5.1455,1.221,7.7107l1.0992,5.7668a5.4722,5.4722,0,0,1-1.3034,4.8372q.29,1.4523.58,2.9049a5.441,5.441,0,0,1-1.8505,5.4134q.3969,1.87.8049,3.7393a5.3149,5.3149,0,0,1-1.62,5.2542c.6265,3.0046,1.2723,6.0053,1.9571,8.9989a5.5679,5.5679,0,0,1-.407,3.9018q.7911,2.8677,1.6125,5.7306a4.894,4.894,0,0,1-3.0811,6.3206,5.0352,5.0352,0,0,1-1.0743,3.9675l.0144.05a4.9983,4.9983,0,0,1-.7341,4.6129,6.1178,6.1178,0,0,1,.957,2.3206c.1941.2095.3822.4245.58.6307,3.2311,3.3683.9527,7.8883-2.38,9.1193a11.6787,11.6787,0,0,1,2.51,3.2294,2.98,2.98,0,0,1,.3131,2.1117c.195.2879.3742.5833.5739.8693a2.9313,2.9313,0,0,1-.99,4.0028,2.3427,2.3427,0,0,1-.03,2.4658q1.7291,1.7566,3.4451,3.5358a3.02,3.02,0,0,1-1.4848,5.0139l1.5368,1.5392c2.4307,2.4346-.4773,5.8219-3.1773,4.87a2.6936,2.6936,0,0,1-.4534.685c.5563,2.3307,1.13,4.6576,1.7363,6.9775.7356,2.8159-2.9194,5.1615-5.0142,2.9188q-5.4451-5.83-10.4149-12.058c-.0448-.0561-.0745-.1142-.1136-.1711a3.7819,3.7819,0,0,1-2.03,1.9425c-5.9613,2.4251-11.9343,4.8561-18.104,6.7084-6.2547,1.8778-12.7319,2.2682-18.99,3.95a3.0352,3.0352,0,0,1-3.69-3.69c2.0061-9.5843,5.6253-20.0664,11.6753-27.9233a5.205,5.205,0,0,1,3.9355-2.2454c-.0542-.0144-.1087-.0286-.1631-.0428a23.5487,23.5487,0,0,1-4.7253.72c-3.1757.0915-6.49-.8018-9.58-1.371-.5653-.1042-1.1292-.2126-1.6935-.32-4.04,1.5991-8.7109-.512-12.5765-1.8887-1.611-.5737-3.1959-1.2106-4.7691-1.8744a2.9267,2.9267,0,0,1-1.4886.0959c-12.42-2.4819-23.0964-9.1363-33.4473-16.1231a5.0813,5.0813,0,0,1-2.1188-1.4914C180.9193,258.293,183.7381,253.9709,186.7054,255.9861Z"/><g id="LotusOutline"><path class="cls-8" d="M260.8068,171.5335S226.5,140.5,198.5,141.5c0,0,3,10,5,18,2.1828,8.7313,2,113,89.5,120,0,0-86.5-30,0-181"/><path class="cls-8" d="M293,279.5c-82.5,16-112.5-21-112.5-21,14-10,51.6286-10.3477,51.6286-10.3477"/><path class="cls-8" d="M214.7532,216.183A63.2207,63.2207,0,0,0,183.5,213.5s3.2029,28.5205,26.6014,36.26"/><path class="cls-8" d="M274.6586,134.1638S253,115.8874,236.75,113.6937c0,0-8.0915,9.4688-7.6707,36.1376"/><path class="cls-8" d="M271.0156,282.69S275.5,304.6284,293,318.5642"/><path class="cls-8" d="M281.1847,305.6475S255,317.4491,236.75,316.9746c0,0,3.83-27.4523,16.29-33.4635"/></g><path id="InsideWhiteMark" class="cls-9" d="M294.5,212.6257S286.5,274.5,294,279Z"/></g><g class="cls-10"><path id="LotusColor-2" data-name="LotusColor" class="cls-7" d="M400.2946,255.9861q-.2943.2-.589.3987c.2-.7459-5.5239-2.9212-6.1108-3.1082A41.56,41.56,0,0,0,383.88,251.26a22.9417,22.9417,0,0,0-4.3944.1164,18.8857,18.8857,0,0,0,1.7957-4.0681,45.0869,45.0869,0,0,0,19.5828-23.6821,4.4554,4.4554,0,0,0,.1484-2.9292,10.0781,10.0781,0,0,0,.6118-1.5459c2.3157-1.3245,1.4543-5.7744-1.6078-5.58-.07.0045-.1411.0082-.2115.0126a2.6506,2.6506,0,0,0-.6651-.0359l-.2823.0232a2.8818,2.8818,0,0,0-2.2143.1812l-.4875.04c-5.6759.3025-11.3835.5439-17.0043,1.2775a34.0716,34.0716,0,0,0-8.5214,2.1148,136.92,136.92,0,0,0,8.1071-32.3716,109.3327,109.3327,0,0,0,3.45-19.06c.2869-3.2466.0733-6.6773.69-9.8823.6453-3.3517,2.6322-6.0795,4.5817-8.7879,1.6679-2.3174-1.0766-4.859-3.3879-4.4071-1.1352.2219-2.2949.4215-3.4664.6162a3.0188,3.0188,0,0,0-2.3646-.5147l-1.6566.2963a2.5255,2.5255,0,0,0-1.6754,1.1883,40.1157,40.1157,0,0,0-10.6476,3.2412,2.611,2.611,0,0,0-1.394,1.5052,18.1313,18.1313,0,0,0-4.7188.8918,6.3521,6.3521,0,0,0-.4087-3.604,27.621,27.621,0,0,1-.9983-2.6209,6.2718,6.2718,0,0,0,.3448-1.5176,48.5911,48.5911,0,0,0-2.0335-18.88,5.45,5.45,0,0,0-2.6239-3.2992,6.5515,6.5515,0,0,0-.9767-1.7826,2.8131,2.8131,0,0,0-.1476-2.6423,3.4867,3.4867,0,0,0-6.0842.2364c-.0507.0946-.0871.2008-.1344.2982a33.9368,33.9368,0,0,0-13.57,6.701c-3.1486,1.6223-6.276,3.2861-9.3677,5.0191-3.19,1.7879-6.6046,3.7818-8.6563,6.5165a12.2837,12.2837,0,0,0-1.184-2.9437c-.7863-1.2976-2.189-1.8629-3.1378-3.0292a2.7044,2.7044,0,0,0-1.0384-.8083,3.2118,3.2118,0,0,0-.1244-.772,45.5966,45.5966,0,0,0-5.0578-10.7781,42.4019,42.4019,0,0,0-1.9449-6.8232,5.53,5.53,0,0,0-3.6084-3.44,12.8364,12.8364,0,0,1-.5931-3.322c-.138-3.85-6.1387-3.8682-6,0a18.8576,18.8576,0,0,0,.7359,4.4705,4.4325,4.4325,0,0,0-1.1415,5.2152,35.3627,35.3627,0,0,1,2.1915,16.4095,4.4562,4.4562,0,0,0,.907,3.0694c-.0224.1572-.0382.3159-.0616.4729a5.2938,5.2938,0,0,0-1.6408,3.7573,24.3566,24.3566,0,0,0,.1487,3.9322,6.02,6.02,0,0,0,.3114,1.321c-.0354.1364-.0871.2619-.1105.4062a95.702,95.702,0,0,0-1.1088,22.2739l-.2679,18.0547a4.8294,4.8294,0,0,0,1.15,3.24q-.4869,5.1867-1.0317,10.3684a4.6185,4.6185,0,0,0,.0947,1.5823c-.365,2.5746-.7648,5.1455-1.221,7.7107l-1.0992,5.7668a5.4722,5.4722,0,0,0,1.3034,4.8372q-.29,1.4523-.58,2.9049a5.441,5.441,0,0,0,1.8505,5.4134q-.3969,1.87-.8049,3.7393a5.3149,5.3149,0,0,0,1.62,5.2542c-.6265,3.0046-1.2723,6.0053-1.9571,8.9989a5.5679,5.5679,0,0,0,.407,3.9018q-.7911,2.8677-1.6125,5.7306a4.894,4.894,0,0,0,3.0811,6.3206,5.0352,5.0352,0,0,0,1.0743,3.9675l-.0144.05a4.9983,4.9983,0,0,0,.7341,4.6129,6.1178,6.1178,0,0,0-.957,2.3206c-.1941.2095-.3822.4245-.58.6307-3.2311,3.3683-.9527,7.8883,2.38,9.1193a11.6787,11.6787,0,0,0-2.51,3.2294,2.98,2.98,0,0,0-.3131,2.1117c-.195.2879-.3742.5833-.5739.8693a2.9313,2.9313,0,0,0,.99,4.0028,2.3427,2.3427,0,0,0,.03,2.4658q-1.7291,1.7566-3.4451,3.5358a3.02,3.02,0,0,0,1.4848,5.0139l-1.5368,1.5392c-2.4307,2.4346.4773,5.8219,3.1773,4.87a2.6936,2.6936,0,0,0,.4534.685c-.5563,2.3307-1.13,4.6576-1.7363,6.9775-.7356,2.8159,2.9194,5.1615,5.0142,2.9188q5.4451-5.83,10.4149-12.058c.0448-.0561.0745-.1142.1136-.1711a3.7819,3.7819,0,0,0,2.03,1.9425c5.9613,2.4251,11.9343,4.8561,18.104,6.7084,6.2547,1.8778,12.7319,2.2682,18.99,3.95a3.0352,3.0352,0,0,0,3.69-3.69c-2.0061-9.5843-5.6253-20.0664-11.6753-27.9233a5.205,5.205,0,0,0-3.9355-2.2454c.0542-.0144.1087-.0286.1631-.0428a23.5487,23.5487,0,0,0,4.7253.72c3.1757.0915,6.49-.8018,9.58-1.371.5653-.1042,1.1292-.2126,1.6935-.32,4.04,1.5991,8.7109-.512,12.5765-1.8887,1.611-.5737,3.1959-1.2106,4.7691-1.8744a2.9267,2.9267,0,0,0,1.4886.0959c12.42-2.4819,23.0964-9.1363,33.4473-16.1231a5.0813,5.0813,0,0,0,2.1188-1.4914C406.0807,258.293,403.2619,253.9709,400.2946,255.9861Z"/><g id="LotusOutline-2" data-name="LotusOutline"><path class="cls-8" d="M326.1932,171.5335S360.5,140.5,388.5,141.5c0,0-3,10-5,18-2.1828,8.7313-2,113-89.5,120,0,0,86.5-30,0-181"/><path class="cls-8" d="M294,279.5c82.5,16,112.5-21,112.5-21-14-10-51.6286-10.3477-51.6286-10.3477"/><path class="cls-8" d="M372.2468,216.183A63.2207,63.2207,0,0,1,403.5,213.5s-3.2029,28.5205-26.6014,36.26"/><path class="cls-8" d="M312.3414,134.1638S334,115.8874,350.25,113.6937c0,0,8.0915,9.4688,7.6707,36.1376"/><path class="cls-8" d="M315.9844,282.69S311.5,304.6284,294,318.5642"/><path class="cls-8" d="M305.8153,305.6475S332,317.4491,350.25,316.9746c0,0-3.83-27.4523-16.29-33.4635"/></g><path id="InsideWhiteMark-2" data-name="InsideWhiteMark" class="cls-9" d="M292.5,212.6257S300.5,274.5,293,279Z"/></g></g></svg>